{"glyphs":{"0":{"ha":537,"x_min":15,"x_max":629,"o":"m 187 92 q 307 157 249 79 q 409 401 365 235 q 442 718 463 605 q 396 790 431 782 q 155 467 247 825 q 123 212 115 319 q 187 92 131 105 m 25 169 q 20 203 25 169 q 23 317 15 236 q 58 508 30 398 q 141 713 86 618 q 270 855 195 807 q 425 884 345 903 q 508 378 629 834 q 371 88 461 200 q 272 8 327 33 q 159 -2 217 -16 q 68 58 101 13 q 25 169 34 102 z "},"1":{"ha":389,"x_min":41,"x_max":408,"o":"m 383 872 q 402 862 397 873 q 404 837 408 852 l 197 28 q 163 0 190 0 l 126 0 q 103 12 110 0 q 100 39 96 23 l 276 731 l 165 618 q 113 590 137 590 q 76 590 113 590 q 47 611 53 590 q 63 651 41 631 l 234 800 q 249 815 239 805 l 266 830 q 316 869 302 865 q 335 872 329 872 l 383 872 z "},"2":{"ha":515,"x_min":-39,"x_max":542,"o":"m 84 88 l 401 92 q 428 85 421 92 q 431 59 435 79 l 425 31 q 409 8 422 17 q 381 0 396 0 l 14 0 q -25 15 -11 0 q -38 51 -39 30 q -21 91 -36 73 l 349 513 q 414 613 391 560 q 438 709 437 666 q 414 780 439 751 q 338 808 388 808 q 248 763 287 808 q 208 649 208 718 q 200 630 208 639 q 183 619 192 621 l 141 611 q 121 617 128 608 q 114 654 114 626 q 130 725 114 683 q 175 804 146 767 q 252 864 205 841 q 366 887 300 887 q 477 847 431 887 q 532 746 523 807 q 514 608 542 685 q 425 463 487 532 l 84 88 z "},"3":{"ha":490,"x_min":6,"x_max":489,"o":"m 183 406 q 152 420 152 406 q 153 435 152 426 l 158 462 q 220 491 160 491 q 335 539 281 491 q 395 655 389 586 q 379 765 400 725 q 315 805 359 805 q 237 766 271 805 q 199 656 202 727 q 189 634 199 644 q 168 623 180 625 l 131 614 q 108 621 113 612 q 104 647 103 630 q 209 848 111 778 q 321 884 258 884 q 447 827 405 884 q 486 678 489 770 q 421 515 483 585 q 321 444 376 465 q 408 264 408 410 q 341 74 408 162 q 260 8 309 33 q 161 -18 212 -18 q 80 1 111 -18 q 34 51 49 19 q 9 186 6 111 q 29 227 9 219 l 70 245 q 94 245 85 251 q 101 222 103 238 l 100 182 q 123 85 100 110 q 169 66 141 66 q 258 119 217 66 q 310 243 299 172 q 290 360 321 314 q 183 406 258 406 z "},"4":{"ha":539,"x_min":-24,"x_max":510,"o":"m 455 207 q 405 207 455 207 l 360 28 q 322 0 353 0 l 285 0 q 262 12 269 0 q 259 39 255 23 l 301 207 l 33 207 q -15 239 -7 207 q 0 304 -24 271 l 372 855 q 410 872 386 872 l 458 872 q 483 858 479 872 q 473 825 487 843 l 109 294 l 323 294 l 368 473 q 406 502 376 502 l 444 502 q 467 490 460 502 q 470 462 473 478 l 428 295 l 475 295 q 502 289 495 295 q 504 267 510 282 l 491 227 q 480 211 487 215 q 455 207 473 207 z "},"5":{"ha":542,"x_min":23,"x_max":599,"o":"m 214 547 q 341 582 267 582 q 445 537 416 582 q 472 447 473 491 q 337 83 465 222 q 165 -14 249 -13 q 78 5 112 -19 q 33 68 43 29 q 29 154 23 108 q 59 240 36 200 q 94 251 70 259 l 121 242 q 141 230 137 237 q 140 209 145 223 q 135 88 104 135 q 167 66 148 68 q 256 128 204 63 q 338 280 307 194 q 369 429 369 366 q 336 497 369 491 q 247 470 281 499 q 186 396 217 445 q 149 383 172 376 l 106 403 q 90 414 93 408 q 91 440 86 421 l 205 845 q 244 872 212 872 l 563 872 q 591 840 599 872 l 584 805 q 575 784 580 788 q 558 780 571 780 l 282 785 l 214 547 z "},"6":{"ha":524,"x_min":18,"x_max":609,"o":"m 222 565 q 323 586 269 589 q 456 366 472 579 q 376 121 448 249 q 290 23 341 62 q 184 -17 239 -17 q 91 15 129 -17 q 35 107 53 46 q 30 268 18 168 q 84 479 43 369 q 175 665 124 589 q 279 787 227 742 q 464 881 386 880 l 585 867 q 603 857 597 865 q 603 840 609 849 q 567 827 597 832 q 497 809 537 822 q 411 768 456 795 q 222 565 291 699 m 277 507 q 185 478 233 507 q 133 130 106 247 q 191 65 148 65 q 265 116 227 65 q 327 230 303 167 q 358 340 351 293 q 277 507 379 507 z "},"7":{"ha":533,"x_min":58,"x_max":590,"o":"m 566 802 l 567 802 l 167 27 q 125 1 153 -2 l 91 5 q 63 20 68 6 q 68 53 58 35 l 458 779 l 125 777 q 98 813 88 777 l 106 847 q 115 868 110 864 q 132 872 119 872 l 534 872 q 573 848 557 872 q 566 802 590 822 z "},"8":{"ha":528,"x_min":19,"x_max":535,"o":"m 301 500 q 388 576 346 522 q 432 681 430 629 q 351 809 439 801 q 254 766 296 813 q 212 657 212 718 q 233 563 212 595 q 301 500 255 531 m 271 411 q 168 319 222 385 q 115 193 115 253 q 207 66 115 66 q 305 125 263 66 q 348 250 348 183 q 326 354 348 318 q 271 411 305 391 m 193 -17 q 19 169 19 -17 q 116 379 19 281 q 200 451 153 415 q 148 504 170 472 q 111 624 111 558 q 155 770 111 701 q 362 891 232 891 q 488 840 441 891 q 535 705 535 788 q 446 516 535 605 q 366 454 408 478 q 425 376 398 426 q 451 271 451 326 q 433 166 451 215 q 382 76 415 117 q 300 9 350 35 q 193 -17 250 -17 z "},"9":{"ha":554,"x_min":4,"x_max":574,"o":"m 346 312 q 304 292 322 299 q 249 285 286 285 q 182 299 212 285 q 135 338 152 314 q 101 457 101 388 q 123 602 101 527 q 180 740 144 678 q 270 841 216 802 q 384 881 324 881 q 511 803 472 881 q 468 369 574 675 q 128 -21 331 -21 q 4 172 4 -21 q 29 217 4 209 l 70 229 q 93 228 83 234 q 103 213 103 223 q 101 178 103 203 q 101 137 100 153 q 105 103 101 122 q 145 64 111 64 q 177 70 164 64 q 346 312 270 114 m 379 407 q 433 736 452 635 q 372 802 421 802 q 290 752 331 802 q 224 626 249 703 q 200 475 200 550 q 279 363 200 363 q 331 375 298 363 q 379 407 364 387 z "},"\f":{"ha":0,"x_min":0,"x_max":0,"o":""}," ":{"ha":332,"x_min":0,"x_max":0,"o":""},"!":{"ha":232,"x_min":-38,"x_max":354,"o":"m 49 229 q 203 912 49 229 q 241 940 209 940 l 317 940 q 345 910 354 940 q 114 227 345 910 q 80 199 105 199 l 72 199 q 52 206 59 199 q 49 229 45 214 m 24 -24 q -20 -3 -1 -24 q -38 49 -38 18 q -19 100 -38 79 q 32 121 1 121 l 46 121 q 90 99 71 121 q 110 46 110 76 q 90 -4 110 16 q 37 -24 69 -24 l 24 -24 z "},"\"":{"ha":551,"x_min":135,"x_max":495,"o":"m 495 1009 q 463 850 495 931 q 400 720 431 768 q 341 672 368 672 q 327 692 327 672 q 352 768 327 713 q 385 874 376 824 q 395 1012 395 924 q 427 1038 395 1038 l 464 1038 q 495 1009 495 1043 m 302 1009 q 271 850 302 931 q 207 720 239 768 q 149 672 175 672 q 135 692 135 672 q 159 768 135 713 q 193 874 183 824 q 203 1012 203 924 q 235 1038 203 1038 l 272 1038 q 302 1009 302 1043 z "},"#":{"ha":1034,"x_min":54,"x_max":1015,"o":"m 85 381 q 281 381 85 381 l 338 603 l 163 603 q 138 613 143 603 q 138 649 132 624 l 142 666 q 150 687 146 682 q 163 691 154 691 l 361 691 l 427 945 q 465 973 435 973 l 495 973 q 523 944 530 973 l 459 691 l 708 691 l 773 945 q 812 973 781 973 l 841 973 q 870 944 877 973 l 805 691 l 976 691 q 1006 650 1015 691 q 987 613 1000 624 q 959 603 974 603 l 783 603 l 726 381 l 898 381 q 927 340 936 381 l 925 328 q 909 303 922 314 q 881 292 895 292 l 704 292 l 636 28 q 597 0 629 0 l 576 0 q 543 12 552 0 q 539 41 534 24 l 604 292 l 358 292 l 290 28 q 251 0 282 0 l 230 0 q 197 12 206 0 q 192 41 188 24 l 257 292 l 85 292 q 59 303 65 292 q 60 339 54 314 l 64 355 q 72 376 68 371 q 85 381 76 381 m 436 603 l 380 381 l 627 381 l 684 603 l 436 603 z "},"$":{"ha":518,"x_min":8,"x_max":467,"o":"m 110 230 q 159 109 110 109 q 231 161 197 111 q 278 268 266 210 q 291 356 290 326 q 190 437 292 417 q 104 537 101 453 q 139 702 106 621 q 228 835 171 782 q 296 878 260 865 l 316 952 q 353 979 323 979 l 381 979 q 408 951 415 979 l 390 882 q 463 770 457 862 q 463 640 467 716 q 435 602 461 611 l 398 589 q 375 592 382 587 q 369 610 368 597 q 372 653 369 623 q 375 704 375 683 q 373 753 376 726 q 326 805 367 807 q 278 776 300 800 q 242 719 255 753 q 205 575 205 635 q 210 547 205 554 q 217 535 214 540 q 228 527 220 531 q 241 520 235 523 q 258 515 246 518 q 277 510 269 512 q 301 504 286 508 q 390 367 400 482 q 261 83 373 179 q 177 38 222 49 l 160 -24 q 123 -51 153 -51 l 101 -51 q 74 -40 81 -51 q 70 -11 66 -29 l 85 44 q 17 276 8 83 q 44 328 19 309 l 70 344 q 101 347 89 354 q 113 326 114 340 l 110 230 z "},"%":{"ha":1018,"x_min":-56,"x_max":1033,"o":"m 182 699 q 236 608 182 608 q 293 628 267 608 q 333 680 318 648 q 363 807 363 746 q 351 886 363 868 q 306 904 338 904 q 249 884 274 904 q 210 833 225 865 q 182 699 182 770 m 145 884 q 219 954 173 927 q 326 981 264 981 q 421 935 388 981 q 455 832 455 888 q 441 726 455 776 q 399 632 426 676 q 326 559 371 587 q 224 531 281 531 q 128 572 167 531 q 90 705 90 614 q 145 884 90 797 m 667 157 q 721 66 667 66 q 777 86 752 66 q 818 138 803 106 q 848 265 848 204 q 835 344 848 326 q 791 362 823 362 q 734 342 758 362 q 695 291 709 322 q 667 157 667 228 m 630 342 q 703 412 657 385 q 811 439 749 439 q 906 392 872 439 q 940 290 940 346 q 925 184 940 234 q 883 90 910 134 q 811 17 856 45 q 709 -11 766 -11 q 613 30 652 -11 q 574 163 574 71 q 630 342 574 254 m 18 -34 q -33 -33 18 -34 q -52 -21 -48 -33 q -41 9 -56 -9 l 897 951 q 958 980 926 980 q 1008 980 958 980 q 1030 967 1027 980 q 1018 937 1033 954 l 72 -11 q 46 -30 57 -26 q 18 -34 36 -34 z "},"&":{"ha":780,"x_min":6,"x_max":770,"o":"m 228 453 q 200 579 200 527 q 211 671 200 630 q 247 748 223 711 q 303 813 271 785 q 483 860 376 873 q 502 835 505 858 l 495 804 q 481 790 493 795 q 456 787 468 786 q 420 783 443 788 q 373 764 398 779 q 328 726 348 750 q 292 575 282 673 q 312 490 296 537 q 453 222 353 372 q 551 451 525 336 l 499 451 q 477 461 478 451 q 480 474 477 465 q 483 487 483 483 l 492 515 q 512 531 497 531 l 748 531 q 759 503 770 531 l 754 487 q 741 458 746 465 q 727 451 735 451 l 639 451 q 506 145 584 255 q 631 -17 565 63 q 619 -67 662 -54 q 539 -56 575 -79 q 438 68 488 -3 q 190 -13 331 -31 q 52 60 98 1 q 19 210 6 120 q 86 352 30 296 q 200 437 137 403 q 228 453 209 442 m 389 142 q 259 377 296 289 q 170 309 214 354 q 121 193 127 264 q 148 110 117 146 q 225 75 178 75 q 389 142 320 75 z "},"'":{"ha":238,"x_min":135,"x_max":302,"o":"m 302 1009 q 271 850 302 931 q 207 720 239 768 q 149 672 175 672 q 135 692 135 672 q 159 768 135 713 q 193 874 183 824 q 203 1012 203 924 q 235 1038 203 1038 l 272 1038 q 302 1009 302 1043 z "},"(":{"ha":508,"x_min":126,"x_max":621,"o":"m 217 -202 q 126 212 126 -34 q 288 768 126 501 q 508 1040 381 920 q 559 1063 535 1066 l 597 1060 q 617 1044 614 1058 q 611 1023 621 1031 q 271 529 377 819 q 217 253 217 381 q 243 9 217 125 q 317 -169 269 -106 q 322 -189 326 -181 q 309 -199 317 -197 l 252 -214 q 217 -202 229 -227 z "},")":{"ha":522,"x_min":-101,"x_max":396,"o":"m 396 611 q 160 -38 396 279 q 17 -199 94 -126 q -10 -219 -1 -215 q -36 -222 -19 -223 l -78 -218 q -93 -210 -88 -217 q -87 -183 -101 -197 q 194 178 84 -34 q 305 597 305 391 q 281 828 305 718 q 205 1011 256 938 q 201 1030 198 1021 q 214 1040 204 1038 l 268 1056 q 304 1043 291 1069 q 396 611 396 872 z "},"*":{"ha":488,"x_min":67,"x_max":486,"o":"m 218 694 l 94 714 q 73 729 80 716 q 72 759 67 742 l 78 777 q 93 798 81 790 q 116 802 104 806 l 244 750 l 262 894 q 277 918 264 909 q 309 926 291 926 l 326 926 q 353 915 343 926 q 358 884 364 904 l 309 748 l 443 793 q 486 768 486 807 l 486 749 q 479 725 486 733 q 454 713 472 717 l 305 690 l 386 557 q 391 532 393 545 q 374 510 388 518 l 355 500 q 309 515 323 483 l 258 647 l 154 523 q 125 507 140 508 q 103 518 110 507 l 91 531 q 81 560 77 549 q 95 581 85 571 l 218 694 z "},"+":{"ha":518,"x_min":38,"x_max":515,"o":"m 369 597 q 333 460 369 597 l 491 460 q 509 452 502 460 q 513 431 515 445 l 507 399 q 473 372 500 372 l 310 372 l 267 207 q 229 178 259 178 l 196 178 q 168 208 161 178 l 211 372 l 68 372 q 45 401 38 372 l 56 446 q 60 456 58 455 q 63 458 63 457 q 66 459 64 459 q 69 460 68 460 q 73 460 70 460 q 234 460 153 460 l 271 599 q 309 627 278 627 l 341 627 q 369 597 376 627 z "},",":{"ha":291,"x_min":-31,"x_max":141,"o":"m 141 133 q 49 -155 141 1 q -16 -210 18 -210 q -31 -194 -31 -210 q -10 -123 -31 -178 q 13 -39 10 -68 q 24 41 16 -10 q 32 112 32 91 q 39 138 32 132 q 59 148 45 145 l 110 159 q 141 133 141 165 z "},"-":{"ha":491,"x_min":61,"x_max":441,"o":"m 96 460 q 417 460 96 460 q 435 452 429 460 q 438 431 441 443 l 432 399 q 399 372 427 372 l 91 372 q 68 401 61 372 l 80 446 q 96 460 83 460 z "},".":{"ha":250,"x_min":32,"x_max":181,"o":"m 95 -24 q 51 -3 70 -24 q 32 49 32 18 q 52 100 32 79 q 103 121 71 121 l 116 121 q 161 99 141 121 q 181 46 181 76 q 160 -4 181 16 q 108 -24 140 -24 l 95 -24 z "},"/":{"ha":530,"x_min":23,"x_max":619,"o":"m 550 974 q 594 974 550 974 q 614 964 610 974 q 609 935 619 953 l 128 28 q 90 0 113 0 l 46 0 q 27 13 31 0 q 31 39 23 25 l 512 946 q 550 974 525 974 z "},":":{"ha":423,"x_min":32,"x_max":309,"o":"m 224 527 q 179 549 198 527 q 160 600 160 570 q 180 652 160 631 q 231 673 200 673 l 245 673 q 289 650 269 673 q 309 598 309 628 q 289 548 309 568 q 236 527 268 527 l 224 527 m 95 -24 q 51 -3 70 -24 q 32 49 32 18 q 52 100 32 79 q 103 121 71 121 l 116 121 q 161 99 141 121 q 181 46 181 76 q 160 -4 181 16 q 108 -24 140 -24 l 95 -24 z "},";":{"ha":295,"x_min":-16,"x_max":297,"o":"m 212 527 q 167 549 186 527 q 148 600 148 570 q 168 652 148 631 q 219 673 188 673 l 233 673 q 277 650 257 673 q 297 598 297 628 q 277 548 297 568 q 224 527 256 527 l 212 527 m 155 133 q 63 -155 155 1 q -1 -210 33 -210 q -16 -194 -16 -210 q 4 -123 -16 -178 q 28 -39 24 -68 q 39 41 31 -10 q 46 112 46 91 q 53 138 46 132 q 73 148 59 145 l 125 159 q 155 133 155 165 z "},"<":{"ha":606,"x_min":10,"x_max":589,"o":"m 135 392 l 471 263 q 495 215 502 251 l 490 190 q 477 165 486 170 q 450 169 468 161 l 39 343 q 16 387 10 354 l 19 405 q 58 445 24 434 l 549 613 q 581 610 573 621 q 584 579 589 599 l 579 558 q 545 519 570 526 l 135 392 z "},"=":{"ha":577,"x_min":38,"x_max":569,"o":"m 473 273 q 68 273 473 273 q 45 302 38 273 l 56 348 q 64 360 59 358 q 88 362 69 362 l 491 362 q 509 354 502 362 q 513 332 515 346 l 507 300 q 473 273 501 273 m 527 480 l 122 480 q 99 509 93 480 l 110 554 q 124 567 113 567 q 142 568 128 568 l 545 568 q 563 560 556 568 q 567 539 569 552 l 560 507 q 527 480 555 480 z "},">":{"ha":606,"x_min":13,"x_max":592,"o":"m 467 393 l 131 522 q 106 569 100 534 l 111 594 q 124 618 115 614 q 152 614 133 622 l 562 441 q 586 396 592 430 l 582 378 q 544 339 577 350 l 53 170 q 21 173 29 162 q 18 205 13 185 l 23 227 q 56 266 32 257 l 467 393 z "},"?":{"ha":409,"x_min":5,"x_max":471,"o":"m 185 374 q 163 297 175 348 q 152 230 152 246 q 142 209 152 214 q 113 207 132 205 l 86 209 q 75 321 44 212 q 86 363 79 337 q 134 445 101 420 q 217 477 166 471 q 255 489 245 481 q 270 499 266 497 q 278 508 274 502 q 286 517 283 514 q 292 526 288 520 q 301 544 298 537 q 305 552 304 550 q 337 670 324 588 q 346 783 349 751 q 332 827 342 815 q 297 848 316 846 q 207 772 279 844 q 187 762 194 762 q 165 770 180 762 l 143 783 q 131 804 132 791 q 136 825 130 818 q 210 900 162 862 q 287 943 258 937 q 364 926 317 949 q 426 872 412 902 q 414 579 471 768 q 342 435 384 480 q 286 398 315 406 q 225 384 257 390 q 185 374 193 377 m 68 -24 q 24 -3 43 -24 q 5 49 5 18 q 25 100 5 79 q 76 121 44 121 l 90 121 q 134 99 114 121 q 154 46 154 76 q 133 -4 154 16 q 81 -24 113 -24 l 68 -24 z "},"@":{"ha":1127,"x_min":52,"x_max":1059,"o":"m 684 527 q 645 547 672 536 q 589 548 617 557 q 530 497 560 539 q 480 403 500 455 q 437 219 435 287 q 500 109 441 109 q 564 150 538 109 q 616 272 590 190 q 684 527 642 354 m 351 287 q 361 341 351 287 q 419 483 371 394 q 510 607 466 572 q 598 641 554 641 q 703 604 642 641 q 715 637 709 629 q 738 646 722 646 l 770 647 q 804 607 813 647 l 700 217 q 705 133 691 164 q 747 101 719 101 q 801 117 775 101 q 855 164 827 133 q 949 363 916 234 q 951 590 982 491 q 835 751 920 690 q 629 812 750 812 q 351 701 469 812 q 186 421 238 595 q 175 177 153 310 q 292 -49 198 46 q 407 -119 337 -93 q 563 -141 477 -144 q 582 -147 577 -140 q 581 -169 588 -155 l 570 -188 q 556 -204 564 -200 q 531 -209 548 -208 q 364 -188 441 -215 q 233 -111 286 -161 q 142 7 180 -61 q 88 150 104 75 q 94 446 52 309 q 216 682 136 583 q 402 833 296 781 q 627 885 508 885 q 981 723 860 885 q 1056 486 1050 631 q 1040 348 1059 418 q 915 102 1003 195 q 740 9 827 9 q 613 80 652 9 q 566 36 598 60 q 495 13 534 13 q 422 33 456 13 q 372 90 389 53 q 351 287 331 181 z "},"A":{"ha":590,"x_min":-81,"x_max":527,"o":"m 156 278 l 32 26 q -16 0 18 -3 l -45 3 q -75 19 -68 3 q -72 51 -81 36 l 355 875 q 426 926 382 926 l 477 927 q 513 912 500 927 q 525 865 527 896 l 480 28 q 441 0 478 0 l 398 1 q 368 36 366 1 l 384 278 l 156 278 m 202 371 l 391 371 l 420 817 l 202 371 z "},"B":{"ha":577,"x_min":-15,"x_max":572,"o":"m 216 524 l 321 522 q 450 641 412 520 q 448 794 478 731 q 372 840 427 840 l 297 840 l 216 524 m 192 840 l 160 840 q 131 850 143 840 q 122 874 118 860 l 130 903 q 142 921 132 914 q 159 929 151 929 l 372 929 q 520 878 469 929 q 572 722 572 828 q 513 544 572 617 q 425 471 472 492 q 476 417 456 452 q 487 301 495 381 q 360 63 473 158 q 149 0 288 0 l 14 0 q -8 12 -1 0 q -11 39 -15 23 l 192 840 m 105 88 l 186 91 q 308 147 251 93 q 381 281 364 200 q 360 410 403 371 q 311 429 344 425 q 193 433 277 433 l 105 88 z "},"C":{"ha":542,"x_min":3,"x_max":572,"o":"m 492 909 q 543 832 522 888 q 568 735 565 776 q 571 687 570 694 q 545 662 572 670 l 509 651 q 483 658 497 648 q 468 686 469 669 q 425 826 458 785 q 387 832 408 832 q 261 744 324 835 q 153 493 198 652 q 128 164 94 292 q 185 83 147 93 q 340 222 279 91 q 345 233 342 225 q 350 242 349 240 q 354 250 351 244 q 358 256 357 255 q 362 260 359 257 q 367 263 364 263 q 372 264 369 263 q 378 264 374 265 q 386 261 381 262 q 395 258 390 260 l 436 241 q 448 221 448 237 q 440 190 448 206 q 322 35 379 81 q 181 -10 266 -10 q 99 17 142 -10 q 16 201 29 59 q 48 519 3 342 q 131 732 76 636 q 260 883 187 827 q 408 939 333 939 q 450 930 423 939 q 492 909 477 921 z "},"D":{"ha":537,"x_min":-18,"x_max":553,"o":"m 294 848 q 99 86 294 848 q 158 85 110 85 q 307 178 239 85 q 418 431 376 271 q 426 761 477 656 q 409 794 420 776 q 294 848 378 845 m 188 845 l 122 837 q 101 867 98 837 l 106 903 q 128 927 110 923 q 274 937 180 937 q 473 867 406 937 q 545 662 540 796 q 465 268 553 479 q 336 70 410 137 q 137 -5 254 -5 q 34 0 68 -5 q -9 20 -1 5 q -10 64 -18 34 l 188 845 z "},"E":{"ha":512,"x_min":-14,"x_max":609,"o":"m 323 0 q 16 0 323 0 q -7 12 0 0 q -10 39 -14 23 l 193 840 l 142 840 q 118 846 123 840 q 119 874 114 852 l 127 903 q 138 924 131 920 q 162 929 144 929 l 580 929 q 603 922 598 929 q 604 897 609 915 l 595 864 q 563 840 589 840 l 298 840 l 224 547 l 450 547 q 467 539 462 547 q 468 518 472 530 l 459 486 q 421 459 453 459 l 201 459 l 106 88 l 353 88 q 369 80 364 88 q 371 59 374 71 l 362 27 q 323 0 356 0 z "},"F":{"ha":506,"x_min":-14,"x_max":610,"o":"m 410 391 q 183 391 410 391 l 91 28 q 53 0 83 0 l 16 0 q -7 12 0 0 q -10 39 -14 23 l 193 840 l 143 840 q 120 846 124 840 q 121 874 116 852 l 128 903 q 139 924 133 920 q 163 929 145 929 q 581 929 163 929 q 605 922 599 929 q 606 897 610 915 l 596 864 q 564 840 590 840 l 298 840 l 206 480 l 440 480 q 456 471 451 480 q 458 450 461 463 l 449 418 q 410 391 443 391 z "},"G":{"ha":551,"x_min":13,"x_max":570,"o":"m 274 436 q 508 436 274 436 q 519 408 529 436 l 513 386 q 505 360 512 381 q 479 289 498 339 q 440 197 460 239 q 393 113 420 154 q 338 48 366 73 q 188 -8 275 -8 q 95 22 140 -8 q 13 277 13 76 q 44 509 13 382 q 130 732 76 637 q 255 883 183 827 q 401 939 326 939 q 487 911 451 939 q 546 813 522 884 q 570 707 570 743 q 545 662 570 671 l 500 649 q 479 653 487 646 q 468 700 470 660 q 449 782 467 740 q 401 831 431 824 q 270 754 342 847 q 153 493 199 660 q 128 162 97 292 q 180 86 145 88 q 297 153 247 78 q 383 349 354 237 l 260 349 q 245 384 235 349 l 255 421 q 262 433 258 430 q 274 436 266 436 z "},"H":{"ha":683,"x_min":-15,"x_max":722,"o":"m 208 900 q 246 929 215 929 l 284 929 q 306 917 299 929 q 309 889 313 905 l 221 544 l 526 544 l 617 900 q 656 929 624 929 l 693 929 q 715 917 708 929 q 718 889 722 905 l 499 28 q 460 0 492 0 l 423 0 q 401 12 408 0 q 398 39 394 23 l 503 455 l 199 455 l 90 28 q 51 0 82 0 l 14 0 q -8 12 -1 0 q -11 39 -15 23 l 208 900 z "},"I":{"ha":284,"x_min":-18,"x_max":310,"o":"m 205 900 q 244 929 213 929 l 281 929 q 303 917 297 929 q 306 889 310 905 l 87 28 q 49 0 80 0 l 11 0 q -11 12 -4 0 q -14 39 -18 23 l 205 900 z "},"J":{"ha":293,"x_min":-155,"x_max":319,"o":"m 251 929 q 290 929 251 929 q 312 917 306 929 q 316 890 319 905 l 101 48 q 9 -111 74 -59 q -96 -168 -44 -154 q -127 -160 -120 -175 l -142 -131 q -132 -98 -155 -108 q -94 -77 -110 -88 q -59 -49 -78 -67 q 0 61 -19 -12 l 214 900 q 251 929 222 929 z "},"K":{"ha":546,"x_min":-18,"x_max":647,"o":"m 205 900 q 244 929 213 929 l 281 929 q 303 917 297 929 q 306 889 310 905 l 215 533 l 523 908 q 565 929 540 929 l 619 929 q 642 917 636 929 q 636 892 647 906 l 286 477 l 417 38 q 395 0 429 0 l 348 0 q 323 7 329 0 q 312 32 317 13 l 191 437 l 87 28 q 49 0 80 0 l 11 0 q -11 12 -4 0 q -14 39 -18 23 l 205 900 z "},"L":{"ha":493,"x_min":-18,"x_max":415,"o":"m 362 0 q 11 0 362 0 q -11 12 -4 0 q -14 39 -18 23 l 205 900 q 244 929 213 929 l 281 929 q 303 917 297 929 q 306 889 310 905 l 102 88 l 393 88 q 410 80 405 88 q 411 59 415 71 l 403 27 q 362 0 396 0 z "},"M":{"ha":733,"x_min":-18,"x_max":772,"o":"m 205 900 q 242 929 213 928 l 284 929 q 314 899 311 929 q 336 357 349 527 l 664 904 q 703 929 678 929 l 745 929 l 745 929 q 766 916 759 927 q 768 889 772 905 l 549 28 q 510 0 542 0 l 473 0 q 451 12 458 0 q 448 39 444 23 l 596 619 q 471 415 551 541 q 369 254 391 289 q 305 204 337 202 l 279 205 q 247 257 244 207 q 240 628 256 393 l 87 28 q 49 0 80 0 l 11 0 q -11 12 -4 0 q -14 39 -18 23 l 205 900 z "},"N":{"ha":663,"x_min":-18,"x_max":701,"o":"m 205 900 q 242 929 213 928 l 281 929 q 314 889 307 929 l 428 239 l 596 900 q 635 929 604 929 l 672 929 q 694 917 688 929 q 698 889 701 905 l 478 28 q 440 0 471 0 l 394 0 q 373 15 378 0 q 370 31 371 24 q 368 39 369 37 l 255 686 l 87 28 q 49 0 80 0 l 11 0 q -11 12 -4 0 q -14 39 -18 23 l 205 900 z "},"O":{"ha":572,"x_min":9,"x_max":584,"o":"m 129 154 q 197 81 150 81 q 317 148 266 81 q 437 422 379 235 q 477 718 492 599 q 450 802 470 771 q 396 833 429 833 q 271 762 326 833 q 147 478 204 673 q 129 154 91 283 m 9 278 q 90 641 9 451 q 307 914 180 847 q 402 939 353 939 q 513 903 451 939 q 569 825 554 879 q 584 670 584 772 q 539 398 584 569 q 294 18 460 96 q 191 -6 245 -6 q 101 18 148 -6 q 9 278 9 67 z "},"P":{"ha":575,"x_min":-15,"x_max":570,"o":"m 203 472 l 274 476 q 416 553 376 480 q 454 659 441 599 q 467 759 467 719 q 379 838 467 835 q 297 840 351 840 l 203 472 m 193 841 q 152 841 172 841 q 126 852 133 841 q 122 877 118 863 l 130 903 q 142 921 132 914 q 159 929 151 929 l 360 929 q 517 885 463 929 q 570 744 570 842 q 539 584 570 671 q 465 463 508 496 q 436 441 444 446 q 395 420 427 435 q 332 398 363 405 q 180 384 266 385 l 90 28 q 51 0 82 0 l 14 0 q -8 12 -1 0 q -11 39 -15 23 l 193 841 z "},"Q":{"ha":590,"x_min":13,"x_max":587,"o":"m 98 -63 q 106 -33 98 -63 q 121 -11 110 -19 q 148 2 133 -3 q 104 19 125 8 q 36 111 59 43 q 13 287 13 179 q 94 641 13 451 q 311 914 183 847 q 406 939 357 939 q 517 903 455 939 q 572 825 557 879 q 587 670 587 772 q 542 398 587 569 q 298 18 463 96 q 254 1 277 7 q 273 -6 264 -2 q 427 -6 344 -39 q 447 -12 440 -1 q 450 -39 454 -23 l 443 -72 q 436 -91 441 -85 q 408 -107 430 -96 q 349 -119 386 -118 q 272 -103 312 -120 q 116 -103 198 -65 q 97 -97 102 -108 q 98 -63 93 -86 m 133 154 q 202 81 155 81 q 321 148 269 81 q 441 422 384 236 q 481 718 496 599 q 454 802 475 771 q 400 833 433 833 q 274 762 329 833 q 151 477 207 673 q 133 154 95 282 z "},"R":{"ha":577,"x_min":-15,"x_max":572,"o":"m 209 494 l 289 498 q 422 573 376 502 q 467 759 467 641 q 444 815 467 792 q 383 838 422 837 q 297 839 343 838 l 209 494 m 192 840 q 153 840 172 840 q 127 851 135 840 q 123 876 120 862 l 130 903 q 142 921 132 914 q 159 929 151 929 l 377 929 q 518 884 465 929 q 572 754 572 840 q 539 592 572 668 q 467 484 506 516 q 407 441 428 451 q 362 423 386 431 l 421 44 q 393 0 428 0 l 349 0 q 325 10 332 0 q 314 45 317 20 l 266 407 l 186 406 l 90 28 q 51 0 82 0 l 14 0 q -8 12 -1 0 q -11 39 -15 23 l 192 840 z "},"S":{"ha":563,"x_min":34,"x_max":572,"o":"m 420 942 q 537 874 503 942 q 572 678 572 806 q 550 640 572 646 l 505 626 q 485 629 495 622 q 475 652 475 636 q 420 848 475 822 q 358 844 394 861 q 286 761 322 827 q 246 612 249 696 q 257 560 245 578 q 306 530 270 542 l 359 512 q 458 449 435 486 q 480 340 480 415 q 439 178 480 264 q 330 35 399 91 q 186 -21 261 -21 q 34 225 34 -21 l 34 230 q 54 284 34 279 l 101 299 q 122 297 114 304 q 131 274 131 290 q 143 122 131 173 q 182 58 155 71 q 232 66 202 53 q 326 162 284 90 q 374 361 376 250 q 337 415 374 394 q 284 435 318 424 l 230 451 q 167 492 193 462 q 141 574 141 522 q 162 690 141 625 q 218 812 183 756 q 307 905 254 869 q 420 942 361 942 z "},"T":{"ha":570,"x_min":88,"x_max":683,"o":"m 629 836 q 432 836 629 836 l 225 28 q 187 0 218 0 l 150 0 q 128 12 135 0 q 125 39 121 23 l 327 836 l 125 836 q 96 865 88 836 l 105 903 q 117 924 109 919 q 143 929 125 929 l 644 929 q 674 892 683 929 l 668 863 q 629 836 663 836 z "},"U":{"ha":634,"x_min":-1,"x_max":679,"o":"m 88 37 q 58 358 -1 132 l 196 900 q 235 929 204 929 l 272 929 q 294 917 287 929 q 297 889 301 905 l 153 317 q 240 75 91 75 q 349 126 302 75 q 428 302 396 177 l 581 900 q 619 929 589 929 l 651 929 q 673 917 667 929 q 676 889 679 905 l 526 294 q 367 29 477 95 q 218 -9 304 -9 q 88 37 133 -9 z "},"V":{"ha":575,"x_min":75,"x_max":689,"o":"m 204 926 q 234 891 238 926 l 182 113 l 569 902 q 618 927 583 931 l 646 925 q 673 876 689 922 l 245 51 q 168 0 220 2 l 128 -1 q 89 18 103 -2 q 77 70 75 37 l 122 898 q 160 926 125 926 l 204 926 z "},"W":{"ha":897,"x_min":68,"x_max":961,"o":"m 289 929 q 299 879 322 929 q 229 683 264 816 q 181 408 195 549 q 188 163 167 266 q 365 447 276 259 q 485 790 453 634 l 487 792 q 508 881 498 848 q 528 921 518 914 q 557 929 538 929 l 603 929 q 619 890 633 929 q 553 569 569 742 q 546 299 536 395 q 569 149 557 203 q 672 296 620 205 q 761 495 723 387 q 852 898 843 723 q 859 924 853 919 q 877 929 865 929 l 929 929 q 955 922 950 929 q 958 867 961 916 q 936 722 956 818 q 880 521 917 626 q 794 319 843 416 q 678 137 745 222 q 539 0 612 51 l 523 0 q 491 26 500 0 q 448 416 443 162 q 322 192 401 307 q 173 0 243 78 l 141 0 q 109 26 118 0 q 75 225 81 108 q 81 462 68 342 q 197 910 108 725 q 232 929 207 929 l 289 929 z "},"X":{"ha":515,"x_min":-48,"x_max":604,"o":"m 327 428 l 411 41 q 410 12 415 24 q 389 0 404 0 l 341 0 q 316 11 327 0 q 300 44 304 21 l 247 364 l 80 29 q 33 0 66 0 l -14 0 q -42 13 -36 0 q -34 54 -48 27 l 209 490 l 125 879 q 158 930 110 930 l 188 930 q 221 920 210 930 q 237 886 233 910 l 296 552 l 477 908 q 492 925 484 919 q 519 930 500 930 l 560 930 q 589 922 580 930 q 585 876 604 907 l 327 428 z "},"Y":{"ha":513,"x_min":94,"x_max":629,"o":"m 268 482 q 525 912 447 748 q 563 929 533 931 l 603 924 q 623 910 618 922 q 618 877 629 897 q 287 373 468 614 l 199 28 q 160 0 191 0 l 123 0 q 101 12 108 0 q 98 39 94 23 l 187 393 q 168 634 187 478 q 133 842 148 790 q 128 910 119 894 q 155 927 137 926 l 191 932 q 217 928 209 934 q 229 902 225 922 q 268 482 269 664 z "},"Z":{"ha":587,"x_min":-35,"x_max":643,"o":"m 199 929 q 617 929 199 929 q 638 922 634 929 q 641 902 643 915 l 634 864 q 621 842 630 848 q 597 836 613 836 l 592 836 l 101 92 l 406 92 q 436 58 444 92 l 430 28 q 387 0 425 0 l 10 0 q -23 9 -12 0 q -35 31 -35 18 q -29 59 -35 44 l 482 836 l 195 836 q 167 870 158 836 l 178 910 q 185 925 181 922 q 199 929 190 929 z "},"[":{"ha":324,"x_min":-81,"x_max":523,"o":"m 324 1016 l 30 -121 l 149 -121 q 178 -162 187 -121 l 176 -175 q 160 -200 173 -189 q 132 -210 147 -210 l -36 -210 q -72 -196 -64 -210 q -73 -153 -81 -182 l 242 1066 q 295 1105 253 1105 l 485 1105 q 514 1065 523 1105 l 512 1051 q 496 1026 509 1037 q 468 1016 483 1016 l 324 1016 z "},"\\":{"ha":384,"x_min":111,"x_max":288,"o":"m 193 26 q 114 935 193 26 q 146 974 111 974 l 176 974 q 209 946 207 974 q 287 28 209 946 q 281 8 288 16 q 259 0 273 0 l 223 0 q 193 26 197 0 z "},"]":{"ha":371,"x_min":-172,"x_max":430,"o":"m 27 -121 l 317 1014 l 199 1014 q 169 1056 160 1014 l 172 1070 q 188 1095 174 1084 q 215 1105 201 1105 l 384 1105 q 421 1091 413 1105 q 422 1048 430 1077 l 110 -170 q 58 -210 100 -210 l -133 -210 q -163 -169 -172 -210 l -160 -157 q -144 -131 -158 -142 q -116 -121 -131 -121 l 27 -121 z "},"^":{"ha":539,"x_min":-2,"x_max":498,"o":"m 400 816 l 415 816 q 446 803 433 816 q 460 766 458 790 l 498 333 q 460 312 498 312 l 433 312 q 400 335 400 312 l 375 722 l 108 329 q 97 315 101 319 q 81 312 92 312 l 22 312 q 2 319 6 312 q 5 335 -2 327 l 300 759 q 346 805 322 793 q 400 816 369 816 z "},"_":{"ha":681,"x_min":-73,"x_max":550,"o":"m -38 -55 q 526 -55 -38 -55 q 543 -62 536 -55 q 548 -85 550 -70 l 541 -116 q 508 -143 535 -143 l -44 -143 q -66 -114 -73 -143 l -55 -69 q -38 -55 -52 -55 z "},"`":{"ha":309,"x_min":73,"x_max":276,"o":"m 158 895 q 197 874 183 895 l 271 755 q 271 738 276 745 q 254 731 266 731 l 234 731 q 196 749 214 731 l 82 868 q 76 888 73 880 q 90 895 79 895 l 158 895 z "},"a":{"ha":482,"x_min":5,"x_max":480,"o":"m 359 554 q 260 565 297 589 q 189 466 223 540 q 109 219 131 341 q 101 142 99 165 q 120 110 103 120 q 165 123 137 101 q 223 192 193 146 q 283 312 254 237 q 359 554 312 387 m 378 626 q 408 656 385 656 l 437 657 q 470 644 460 657 q 472 611 479 632 l 319 98 q 398 182 358 126 q 430 191 411 202 l 460 170 q 467 138 480 157 q 370 43 415 76 q 266 -5 326 9 q 251 -3 257 -7 q 242 9 244 2 l 218 80 q 168 24 198 51 q 116 -4 138 -4 l 114 -4 q 82 11 104 -4 q 49 41 61 26 q 32 62 36 56 q 21 78 27 68 q 13 97 16 88 q 9 119 11 106 q 10 183 5 141 q 75 422 24 288 q 175 603 126 557 q 297 649 224 649 q 378 626 341 649 z "},"b":{"ha":475,"x_min":-8,"x_max":466,"o":"m 327 944 q 215 506 327 944 l 235 539 q 296 615 262 583 q 353 647 331 647 l 355 647 q 387 633 365 647 q 429 593 409 618 q 458 542 450 569 q 456 435 466 516 q 394 219 445 354 q 295 40 344 85 q 172 -5 246 -5 q 90 18 128 -5 q 55 0 80 0 l 33 0 q 1 12 10 0 q -4 41 -8 23 l 231 945 q 269 973 239 973 l 299 973 q 327 944 334 973 m 110 90 q 210 79 173 54 q 281 178 247 104 q 360 425 338 303 q 368 501 370 478 q 349 534 366 524 q 304 520 333 543 q 246 452 276 498 q 186 331 215 406 q 114 101 156 255 l 110 90 z "},"c":{"ha":378,"x_min":-19,"x_max":432,"o":"m 181 613 q 194 625 181 613 q 236 648 207 637 q 292 656 265 659 q 346 636 319 652 q 407 586 382 614 q 417 540 432 557 l 395 515 q 356 509 373 493 q 341 524 354 511 q 319 546 328 538 q 269 565 292 569 q 173 467 224 557 q 98 282 121 378 q 87 122 75 187 q 111 94 90 107 q 143 83 133 81 q 230 160 183 105 q 249 171 240 172 q 271 163 257 171 l 290 150 q 301 129 305 142 q 232 45 291 93 q 148 -9 174 -3 q 71 10 123 -16 q 8 61 20 36 q -7 209 -19 121 q 33 379 4 297 q 90 501 62 461 q 136 565 117 542 q 181 613 155 589 z "},"d":{"ha":497,"x_min":5,"x_max":573,"o":"m 564 944 q 321 98 564 944 q 398 182 358 126 q 430 191 411 202 l 460 170 q 467 138 480 157 q 370 43 415 76 q 266 -5 326 9 q 251 -3 257 -7 q 242 9 244 2 l 218 80 q 168 24 198 51 q 116 -4 138 -4 l 114 -4 q 49 39 89 -4 q 8 130 9 81 q 64 392 5 229 q 174 602 123 556 q 297 649 225 649 q 378 626 341 649 l 464 945 q 503 973 472 973 l 536 973 q 564 944 573 973 m 359 554 q 255 562 297 589 q 130 304 191 518 q 113 116 87 150 q 150 113 127 98 q 258 256 210 152 q 359 554 306 361 z "},"e":{"ha":400,"x_min":-8,"x_max":404,"o":"m 110 260 q 287 413 240 317 q 311 510 311 463 q 283 558 311 558 q 179 464 223 558 q 110 260 136 370 m 93 176 q 95 101 84 122 q 128 73 105 79 q 245 169 176 91 q 271 172 257 181 l 295 157 q 306 143 302 152 q 306 128 309 134 q 216 30 282 82 q 110 -14 150 -23 q 4 81 19 8 q 8 237 -8 139 q 70 438 25 334 q 222 631 136 590 q 347 637 291 663 q 404 513 404 612 q 376 400 404 455 q 197 225 325 300 q 93 176 147 195 z "},"f":{"ha":368,"x_min":38,"x_max":586,"o":"m 103 0 q 70 0 103 0 q 46 8 53 0 q 41 29 38 16 l 181 562 l 109 562 q 92 568 96 562 q 92 592 88 575 l 101 627 q 130 651 106 651 l 205 651 l 220 711 q 361 954 267 887 q 411 978 384 971 q 449 984 438 986 q 467 980 461 981 l 545 959 q 565 912 586 949 l 549 881 q 504 875 540 863 l 421 903 q 319 711 356 850 l 304 651 l 396 651 q 415 645 411 651 q 416 623 420 639 l 406 590 q 372 562 398 562 l 280 562 l 140 28 q 103 0 132 0 z "},"g":{"ha":463,"x_min":-90,"x_max":473,"o":"m 404 650 q 441 651 404 650 q 467 618 473 652 q 344 166 410 395 q 278 -64 278 -63 q 177 -220 245 -183 q 136 -240 147 -237 q 60 -222 110 -250 l -71 -148 q -89 -126 -88 -140 q -81 -101 -90 -111 l -61 -75 q -19 -64 -41 -52 l 123 -152 q 165 -116 153 -165 l 227 108 q 164 28 199 61 q 108 -4 130 -4 l 105 -4 q 73 11 95 -4 q 31 50 51 26 q 3 101 11 75 q 5 209 -6 128 q 66 424 15 289 q 165 604 116 559 q 289 649 214 649 q 370 625 333 649 q 381 646 376 641 q 404 650 386 650 m 350 554 q 250 565 287 589 q 179 465 214 540 q 100 219 122 341 q 92 142 90 165 q 111 110 94 120 q 156 123 128 101 q 214 192 184 146 q 275 313 245 237 q 346 542 304 389 l 350 554 z "},"h":{"ha":541,"x_min":-7,"x_max":532,"o":"m 50 0 l 34 0 q 2 12 11 0 q -3 41 -7 23 l 232 945 q 271 973 240 973 l 300 973 q 328 944 335 973 l 169 318 l 286 512 q 373 616 327 581 q 450 651 418 651 l 477 651 q 529 599 532 651 q 520 541 527 577 l 377 18 q 356 0 373 0 l 290 0 q 279 8 283 0 q 279 31 275 15 l 415 471 q 424 516 424 505 q 415 527 424 527 q 394 515 406 527 q 361 473 382 503 q 295 370 335 435 q 180 186 254 304 q 90 41 105 68 q 72 12 74 15 q 68 8 70 9 q 64 4 66 6 q 61 3 63 3 q 50 0 56 0 z "},"i":{"ha":245,"x_min":-24,"x_max":289,"o":"m 213 722 q 173 740 190 722 q 157 784 157 759 q 175 828 157 810 q 219 847 193 847 l 231 847 q 271 827 252 847 q 289 783 289 808 q 270 740 289 758 q 223 722 250 722 l 213 722 m 242 624 l 87 28 q 49 0 80 0 l 11 0 q -17 29 -24 0 l 140 626 q 176 651 147 651 l 218 651 q 240 645 235 651 q 242 624 246 639 z "},"j":{"ha":257,"x_min":-204,"x_max":301,"o":"m 225 722 q 186 740 203 722 q 169 784 169 759 q 188 828 169 810 q 232 847 206 847 l 244 847 q 283 827 265 847 q 301 783 301 808 q 282 740 301 758 q 236 722 264 722 l 225 722 m 190 651 l 230 651 q 254 624 260 651 l 98 28 q -48 -185 62 -106 q -146 -235 -97 -220 q -186 -224 -172 -242 l -196 -209 q -202 -185 -204 -199 q -186 -167 -200 -172 q -74 -89 -130 -145 q 4 53 -19 -33 l 155 626 q 190 651 162 651 z "},"k":{"ha":467,"x_min":-14,"x_max":480,"o":"m 321 944 q 180 393 321 944 l 374 637 q 409 651 386 651 l 456 651 q 478 638 477 651 q 464 607 480 624 l 244 348 l 344 34 q 343 8 349 16 q 317 0 338 0 l 282 0 q 256 5 263 0 q 244 28 249 11 l 160 314 l 87 28 q 49 0 80 0 l 27 0 q -5 12 4 0 q -10 41 -14 23 l 224 945 q 263 973 232 973 l 292 973 q 321 944 327 973 z "},"l":{"ha":237,"x_min":-14,"x_max":327,"o":"m 321 944 q 87 28 321 944 q 49 0 80 0 l 27 0 q -5 12 4 0 q -10 41 -14 23 l 224 945 q 263 973 232 973 l 292 973 q 321 944 327 973 z "},"m":{"ha":835,"x_min":-13,"x_max":825,"o":"m 425 516 q 425 522 425 516 q 416 527 425 527 q 395 515 408 527 q 362 473 383 503 q 302 380 336 435 q 216 245 268 326 q 98 55 120 96 q 73 12 75 15 q 70 8 71 9 q 66 4 68 6 q 62 2 64 3 q 59 1 60 1 q 55 0 57 0 q 18 0 33 0 q -4 33 -13 0 l 152 618 q 153 624 152 619 q 154 629 154 628 q 157 639 157 638 q 159 642 158 640 q 161 646 160 645 q 164 648 162 646 q 168 650 166 649 q 177 651 172 651 l 230 651 q 251 644 246 651 q 250 614 255 636 l 154 291 l 287 512 q 374 614 326 576 q 451 651 421 651 l 478 651 q 522 541 549 651 l 456 301 l 580 513 q 665 616 619 582 q 744 651 711 651 l 771 651 q 822 599 825 651 q 814 541 821 577 l 671 18 q 650 0 667 0 l 584 0 q 573 8 577 0 q 573 31 569 15 l 708 471 q 717 516 717 505 q 707 527 717 527 q 677 503 698 527 q 614 411 656 479 q 526 272 572 343 q 463 173 481 201 q 378 18 407 82 q 356 0 371 0 l 291 0 q 281 31 276 0 l 416 471 q 425 516 425 505 z "},"n":{"ha":542,"x_min":-13,"x_max":549,"o":"m 425 516 q 425 522 425 516 q 416 527 425 527 q 395 515 408 527 q 362 473 383 503 q 302 380 336 435 q 216 245 268 326 q 98 55 120 96 q 73 12 75 15 q 70 8 71 9 q 66 4 68 6 q 62 2 64 3 q 59 1 60 1 q 55 0 57 0 q 18 0 33 0 q -4 33 -13 0 l 152 618 q 160 643 155 636 q 177 651 165 651 l 230 651 q 250 644 246 651 q 250 614 255 636 l 154 291 l 287 512 q 374 616 329 581 q 451 651 420 651 l 478 651 q 522 541 549 651 l 378 18 q 358 0 374 0 l 291 0 q 281 31 276 0 l 416 471 q 425 516 425 505 z "},"o":{"ha":430,"x_min":2,"x_max":420,"o":"m 222 135 q 314 441 310 274 q 307 542 316 517 q 268 569 297 568 q 216 542 239 570 q 170 468 192 514 q 108 199 112 348 q 148 80 105 83 q 222 135 185 78 m 4 186 q 75 483 10 359 q 121 563 103 539 q 165 612 140 588 q 294 662 219 663 q 394 597 358 659 q 417 457 420 555 q 384 266 413 359 q 317 110 354 172 q 128 -10 243 -14 q 53 26 86 -8 q 16 89 30 47 q 4 186 2 130 z "},"p":{"ha":467,"x_min":-78,"x_max":458,"o":"m 239 623 q 210 510 239 623 l 227 539 q 288 615 254 583 q 345 647 323 647 l 348 647 q 379 633 358 647 q 422 593 401 618 q 450 542 442 569 q 448 435 458 516 q 387 219 438 354 q 287 40 336 85 q 164 -5 239 -5 q 84 18 121 -5 l 21 -229 q -18 -257 13 -257 l -41 -257 q -70 -245 -62 -257 q -75 -215 -78 -233 l 141 624 q 176 651 148 651 l 213 651 q 239 623 245 651 m 103 90 q 202 79 165 54 q 273 178 239 104 q 353 425 331 303 q 361 501 363 478 q 342 534 359 524 q 297 520 325 543 q 238 452 269 498 q 178 331 208 406 q 106 101 148 255 l 103 90 z "},"q":{"ha":465,"x_min":-2,"x_max":477,"o":"m 373 626 q 408 651 379 651 l 445 651 q 470 622 477 651 l 251 -229 q 213 -257 244 -257 l 190 -257 q 161 -245 169 -257 q 157 -215 153 -233 l 246 132 l 230 105 q 168 28 203 61 q 111 -4 133 -4 l 109 -4 q 77 11 99 -4 q 35 50 55 26 q 6 101 14 75 q 8 209 -2 128 q 70 424 19 289 q 169 604 120 559 q 292 649 218 649 q 373 626 336 649 m 354 554 q 254 564 290 589 q 183 465 217 540 q 104 219 126 341 q 96 142 94 165 q 115 110 98 120 q 160 123 131 101 q 218 192 188 146 q 278 313 249 237 q 350 542 308 389 l 354 554 z "},"r":{"ha":361,"x_min":-12,"x_max":446,"o":"m 214 479 q 343 645 297 614 q 396 656 358 656 l 409 656 q 435 627 446 656 q 403 588 429 611 q 335 512 378 565 q 292 441 292 458 q 324 378 292 408 q 329 364 332 372 q 316 355 326 357 l 267 346 q 235 351 246 343 q 209 389 225 359 l 198 409 l 99 28 q 60 0 91 0 l 23 0 q -5 29 -12 0 l 152 626 q 187 651 158 651 l 227 651 q 249 645 244 651 q 251 624 255 639 l 214 479 z "},"s":{"ha":410,"x_min":-33,"x_max":417,"o":"m 252 659 q 272 659 252 659 q 352 626 315 659 q 413 544 389 593 q 415 522 417 535 q 404 503 414 509 l 366 481 q 344 474 355 473 q 329 483 333 475 q 316 511 325 490 q 302 541 307 532 q 281 563 296 551 q 250 576 267 574 q 190 534 219 570 q 162 432 162 497 q 175 393 162 404 q 223 374 188 381 l 259 367 q 338 237 338 350 q 287 83 338 171 q 221 14 262 42 q 132 -14 180 -14 l 123 -14 q 36 20 75 -14 q -18 89 -3 54 q -18 142 -33 125 l 10 165 q 39 177 24 178 q 59 154 54 175 q 90 103 64 133 q 138 72 116 74 q 205 117 177 78 q 234 207 234 157 q 224 272 234 257 q 181 294 214 286 l 153 300 q 82 341 102 312 q 61 422 61 371 q 88 530 61 474 q 160 622 115 585 q 252 659 205 659 z "},"t":{"ha":297,"x_min":9,"x_max":358,"o":"m 318 849 q 267 651 318 849 l 335 651 q 354 645 349 651 q 354 623 358 639 l 345 590 q 312 562 337 562 l 245 562 l 109 28 q 71 0 101 0 l 46 0 q 17 12 26 0 q 13 41 9 24 l 145 562 l 95 562 q 78 568 82 562 q 78 592 74 575 l 88 627 q 116 651 95 651 l 168 651 l 219 850 q 258 879 227 879 l 290 879 q 318 849 325 879 z "},"u":{"ha":518,"x_min":-10,"x_max":526,"o":"m 357 337 l 240 140 q 157 34 199 69 q 82 0 115 0 l 75 0 q 13 44 35 0 q 9 157 -10 87 l 140 634 q 160 651 143 651 l 227 651 q 238 644 234 651 q 237 621 242 636 l 108 176 q 111 121 95 123 q 175 188 130 120 q 326 447 220 255 q 434 642 431 639 q 439 647 437 646 q 445 650 441 649 q 450 651 449 651 l 508 651 q 521 642 515 651 q 522 618 526 632 l 367 33 q 358 8 364 16 q 341 0 353 0 l 289 0 q 268 8 272 0 q 268 37 263 15 l 357 337 z "},"v":{"ha":465,"x_min":88,"x_max":487,"o":"m 187 121 q 384 632 304 314 q 421 657 391 659 l 456 654 q 479 643 472 652 q 483 622 487 634 q 250 73 381 279 q 167 0 201 -2 l 131 3 q 104 19 114 4 q 95 65 93 35 q 91 604 110 299 q 122 651 88 651 l 158 651 q 188 622 186 651 q 187 121 207 341 z "},"w":{"ha":755,"x_min":89,"x_max":777,"o":"m 182 119 q 262 272 217 174 q 341 474 307 369 q 377 627 374 578 q 408 651 379 651 l 449 651 q 477 622 473 651 q 476 120 498 356 q 674 632 594 313 q 711 657 681 659 l 746 654 q 769 643 761 652 q 773 622 777 634 q 540 73 671 279 q 459 0 493 -2 l 421 3 q 393 19 404 4 q 384 65 383 35 q 390 357 391 219 q 245 73 343 234 q 167 0 200 -2 l 127 3 q 100 19 110 4 q 91 65 89 35 q 96 623 107 372 q 104 644 95 637 q 127 651 113 651 l 165 651 q 195 622 193 651 q 182 119 204 359 z "},"x":{"ha":453,"x_min":-67,"x_max":507,"o":"m -58 32 q 175 328 86 207 q 100 604 143 460 q 121 651 83 651 l 157 651 q 193 622 185 651 q 252 407 227 506 q 354 568 310 494 q 400 644 398 642 q 428 651 407 651 l 472 651 q 478 606 507 651 q 276 303 410 488 q 328 27 306 174 q 308 0 332 2 l 269 -4 q 245 1 251 -6 q 232 36 239 9 q 199 219 219 124 q 77 64 100 92 q 49 30 54 37 q 42 22 44 24 q 36 15 41 20 q 28 9 31 11 q 21 4 26 7 q 0 0 12 0 l -37 0 q -61 11 -55 0 q -58 32 -67 21 z "},"y":{"ha":520,"x_min":-33,"x_max":529,"o":"m 455 651 l 510 651 q 523 642 518 651 q 525 618 529 632 q 408 193 477 438 q 331 -85 339 -51 q 294 -161 322 -119 q 226 -225 266 -205 q 190 -242 202 -239 q 118 -222 165 -249 l -13 -148 q -31 -125 -29 -140 q -23 -101 -33 -110 l -4 -75 q 16 -60 8 -63 q 38 -64 25 -58 l 181 -152 q 204 -150 193 -158 q 223 -116 216 -142 l 348 323 l 318 267 l 242 140 q 159 34 201 69 q 85 0 117 0 l 77 0 q 32 19 50 0 q 11 157 -13 69 l 142 634 q 163 651 147 651 l 230 651 q 240 621 245 651 l 110 176 q 114 122 97 124 q 178 188 133 120 q 328 447 223 255 q 436 642 433 639 q 442 647 440 646 q 455 651 446 651 z "},"z":{"ha":469,"x_min":-46,"x_max":497,"o":"m 81 82 l 266 82 l 287 164 q 327 192 293 190 l 354 195 q 378 188 371 196 q 382 164 386 180 l 346 28 q 308 0 339 0 l 4 0 q -34 14 -22 0 q -44 46 -46 28 q -28 81 -42 65 l 374 569 l 194 569 l 173 487 q 133 459 167 462 l 105 456 q 81 463 88 455 q 77 487 73 472 l 114 626 q 152 651 121 651 l 440 651 q 476 638 460 651 q 494 602 492 624 q 471 549 497 579 l 81 82 z "},"{":{"ha":356,"x_min":-21,"x_max":565,"o":"m 202 -208 l 145 -210 q 39 -173 80 -211 q -9 -72 -1 -134 q 26 75 -21 -15 q 68 154 45 113 q 107 232 90 195 q 130 301 123 269 q 66 401 143 372 l 37 413 q 16 463 7 425 l 24 500 q 70 534 31 527 l 121 544 q 205 585 181 556 q 227 663 229 614 q 220 777 225 712 q 215 891 215 842 q 228 980 215 940 q 265 1049 241 1021 q 436 1111 314 1110 l 526 1111 q 555 1070 565 1111 l 550 1045 q 535 1021 548 1031 q 508 1012 522 1012 l 420 1012 q 321 961 342 1012 q 316 726 300 909 q 320 654 320 676 q 314 600 321 632 q 294 549 308 567 q 266 519 280 531 q 237 499 253 507 q 209 486 220 490 q 177 474 198 481 q 146 463 156 467 q 216 393 194 440 q 228 302 237 346 q 197 213 218 259 q 148 113 176 167 q 108 32 120 59 q 93 -70 80 -31 q 157 -109 106 -109 l 229 -109 q 258 -148 267 -109 l 252 -172 q 236 -197 249 -186 q 209 -208 224 -208 l 202 -208 z "},"|":{"ha":227,"x_min":-91,"x_max":308,"o":"m 301 944 q 1 -229 301 944 q -37 -257 -6 -257 l -54 -257 q -83 -245 -75 -257 q -87 -215 -91 -233 l 210 945 q 249 973 218 973 l 273 973 q 301 944 308 973 z "},"}":{"ha":411,"x_min":-153,"x_max":433,"o":"m 210 1108 l 267 1111 q 372 1073 331 1111 q 421 972 413 1034 q 386 825 433 915 q 344 746 367 786 q 305 668 321 705 q 282 599 288 632 q 345 499 268 529 l 374 487 q 396 437 405 475 l 387 400 q 343 367 381 374 l 291 356 q 207 315 231 344 q 184 237 183 286 q 191 123 186 188 q 196 9 197 58 q 183 -80 196 -40 q 147 -149 170 -120 q -24 -210 97 -209 l -114 -210 q -143 -169 -153 -210 l -138 -145 q -123 -121 -136 -130 q -96 -111 -110 -111 l -8 -111 q 91 -60 70 -111 q 97 162 112 -8 q 97 305 87 274 q 119 353 106 336 q 145 381 131 369 q 175 401 158 393 q 202 414 191 410 q 235 426 214 419 q 266 437 255 433 q 196 507 217 460 q 185 604 174 554 q 248 757 196 653 q 304 868 301 861 q 319 970 331 931 q 255 1009 306 1009 l 183 1009 q 154 1048 145 1009 l 159 1072 q 175 1097 162 1086 q 203 1108 188 1108 l 210 1108 z "},"~":{"ha":555,"x_min":63,"x_max":532,"o":"m 70 497 q 77 518 70 497 q 190 565 88 560 q 299 549 248 567 q 498 549 394 515 q 523 543 515 555 q 527 512 532 530 l 520 486 q 511 466 518 472 q 476 448 505 460 q 399 435 446 436 q 297 453 351 433 q 94 453 201 494 q 69 459 76 446 q 70 497 63 472 z "}," ":{"ha":332,"x_min":0,"x_max":0,"o":""},"¡":{"ha":338,"x_min":23,"x_max":417,"o":"m 328 698 q 175 14 328 698 q 136 -14 169 -14 l 60 -14 q 32 16 23 -14 l 263 699 q 297 727 272 727 l 305 727 q 325 720 317 727 q 328 698 332 713 m 329 807 q 283 827 302 807 q 263 875 263 847 q 283 924 263 904 q 336 944 304 944 l 350 944 q 396 922 375 944 q 417 873 417 901 q 395 826 417 845 q 341 807 373 807 l 329 807 z "},"¢":{"ha":423,"x_min":-13,"x_max":449,"o":"m 99 -122 q 71 -111 79 -122 q 66 -82 63 -100 l 98 33 q 26 108 54 51 q 4 282 -13 186 q 53 450 21 378 q 214 639 116 587 q 256 654 235 649 l 294 794 q 331 821 301 821 l 359 821 q 386 793 393 821 l 349 651 q 392 621 374 642 q 395 383 449 548 q 359 371 389 366 l 328 378 q 305 389 310 381 q 305 416 299 398 q 328 541 329 483 q 301 599 327 599 q 199 516 257 599 q 99 230 107 384 q 108 139 96 178 q 148 95 120 100 q 253 197 206 108 q 266 224 259 209 q 276 242 274 239 q 302 254 285 259 l 345 236 q 360 192 374 224 q 191 29 294 50 l 158 -95 q 121 -122 150 -122 l 99 -122 z "},"£":{"ha":584,"x_min":-103,"x_max":581,"o":"m -98 33 q -87 65 -98 33 q -74 88 -85 81 q -39 118 -64 95 q 22 180 -13 142 q 142 369 114 284 l 80 369 q 59 405 51 369 l 65 432 q 72 453 68 448 q 85 458 76 458 l 152 458 q 186 755 137 651 q 393 904 255 900 q 535 848 487 906 q 572 695 581 792 q 560 625 569 649 q 551 598 552 601 q 548 591 550 596 q 543 585 545 587 q 526 576 534 578 l 483 564 q 457 570 464 559 q 456 596 451 581 q 463 793 511 738 q 400 818 443 816 q 309 780 350 820 q 243 539 246 718 q 245 458 242 502 l 416 458 q 436 452 431 458 q 438 428 442 446 l 432 395 q 399 369 427 369 l 242 369 q 196 253 228 300 q 103 131 157 195 q 214 117 169 133 q 279 96 260 101 q 327 88 297 91 q 455 110 374 83 q 477 105 469 114 q 480 78 485 96 l 472 43 q 457 21 468 28 q 425 8 447 14 q 392 -1 404 2 q 356 -7 381 -4 q 311 -8 331 -10 q 210 18 257 -1 q 131 38 163 36 q 68 32 98 39 q 13 17 39 26 q -76 -8 -58 -7 q -98 0 -94 -9 q -98 33 -103 10 z "},"¤":{"ha":656,"x_min":55,"x_max":671,"o":"m 373 207 q 469 462 465 321 q 461 546 471 524 q 421 568 451 567 q 367 546 391 569 q 319 485 343 523 q 254 260 259 387 q 296 161 252 163 q 373 207 334 160 m 318 607 q 448 645 376 646 q 506 632 483 644 l 570 730 q 614 746 591 761 l 646 727 q 669 703 668 714 q 657 673 671 691 l 567 559 q 574 460 577 525 q 541 317 572 394 q 469 185 511 240 l 513 49 q 513 21 519 31 q 486 0 507 12 l 464 -13 q 400 16 412 -39 l 378 107 q 287 86 330 85 q 218 103 245 88 l 162 9 q 158 4 161 8 q 153 -1 155 0 q 148 -6 152 -3 q 142 -10 145 -9 q 135 -11 139 -11 q 118 -6 128 -13 l 80 19 q 58 40 60 31 q 68 72 55 49 l 152 192 q 147 271 145 218 q 233 515 153 393 l 183 674 q 179 690 180 683 q 177 703 178 698 q 178 712 176 708 q 180 719 179 717 q 185 726 181 722 q 190 731 188 730 q 198 737 192 733 q 207 743 204 741 l 232 755 q 264 756 249 766 q 285 722 278 746 l 318 607 z "},"¥":{"ha":616,"x_min":-36,"x_max":676,"o":"m 44 438 q 575 438 44 438 q 598 410 605 438 l 593 384 q 578 365 590 372 q 550 358 565 358 l 38 358 q 9 391 -1 358 l 16 413 q 25 434 20 430 q 44 438 31 438 m 9 277 q 540 277 9 277 q 563 249 570 277 l 558 223 q 543 203 555 210 q 515 196 530 196 l 3 196 q -26 230 -36 196 l -19 251 q -10 272 -15 268 q 9 277 -4 277 m 316 482 q 572 912 495 748 q 611 929 580 931 l 651 924 q 671 910 666 922 q 666 877 676 897 q 334 373 515 614 l 246 28 q 208 0 239 0 l 171 0 q 148 12 155 0 q 145 39 142 23 l 235 393 q 215 634 235 478 q 181 842 195 790 q 175 910 167 894 q 203 927 184 926 l 239 932 q 265 928 257 934 q 276 902 272 922 q 316 482 316 664 z "},"¦":{"ha":229,"x_min":-95,"x_max":311,"o":"m 304 947 q 177 460 304 947 q 138 432 170 432 l 114 432 q 86 462 79 432 l 213 949 q 251 977 220 977 l 276 977 q 304 947 311 977 m 130 258 l 3 -230 q -36 -258 -5 -258 l -60 -258 q -88 -229 -95 -258 l 38 259 q 77 287 46 287 l 101 287 q 130 258 137 287 z "},"§":{"ha":535,"x_min":-19,"x_max":569,"o":"m 299 574 q 272 573 286 575 q 206 508 235 564 q 176 409 176 453 q 194 370 176 388 q 243 334 212 352 q 286 306 274 316 q 332 347 309 319 q 374 470 372 396 q 369 511 376 498 q 360 528 362 524 q 351 538 358 532 q 342 547 344 544 q 331 555 340 549 q 320 562 322 560 q 299 574 315 564 m 336 229 q 340 183 340 212 q 330 111 340 153 q 300 30 320 69 q 252 -40 279 -9 q 105 -108 191 -108 q -19 100 -19 -108 q 5 148 -19 136 l 43 167 q 70 169 59 175 q 81 155 81 163 q 80 130 81 147 q 79 102 79 113 q 79 72 78 91 q 81 41 79 53 q 87 15 83 28 q 114 -16 95 -13 q 196 37 155 -13 q 239 159 236 86 q 233 201 240 188 q 224 218 226 214 q 215 228 222 222 q 206 236 209 234 q 195 244 204 239 q 184 251 187 250 q 159 266 170 258 q 72 377 72 317 q 91 490 72 436 q 202 639 126 589 q 219 649 210 644 q 208 709 208 670 q 227 800 208 747 q 275 889 245 852 q 338 949 304 926 q 405 972 373 972 q 468 959 438 972 q 520 920 497 946 q 560 750 569 864 q 536 718 559 728 l 491 705 q 470 707 477 702 q 464 728 463 712 q 408 884 473 880 q 342 819 371 875 q 312 719 312 763 q 330 681 312 699 q 395 635 348 663 q 476 505 476 589 q 436 341 476 418 q 336 229 396 262 z "},"¨":{"ha":671,"x_min":186,"x_max":523,"o":"m 448 773 q 408 792 425 773 q 391 836 391 810 q 410 879 391 861 q 454 898 428 898 l 465 898 q 505 879 487 898 q 523 834 523 859 q 504 792 523 810 q 458 773 485 773 l 448 773 m 242 773 q 203 792 220 773 q 186 836 186 810 q 204 879 186 861 q 249 898 222 898 l 260 898 q 300 879 282 898 q 318 834 318 859 q 299 792 318 810 q 252 773 280 773 l 242 773 z "},"©":{"ha":998,"x_min":52,"x_max":955,"o":"m 437 218 q 507 276 472 227 q 559 376 542 326 q 580 386 565 392 l 627 367 q 639 340 646 358 q 552 207 605 259 q 435 154 498 154 q 364 173 394 154 q 318 220 334 191 q 294 287 302 249 q 331 560 269 412 q 455 723 375 666 q 602 765 525 774 q 698 698 676 756 q 667 517 719 636 q 640 503 660 500 l 600 510 q 582 537 574 514 q 608 685 626 652 q 556 701 594 709 q 477 647 518 693 q 395 471 429 592 q 408 234 348 301 q 437 218 421 219 m 175 512 q 157 370 157 438 q 178 246 157 303 q 237 148 200 189 q 453 60 314 60 q 694 163 594 60 q 826 410 788 261 q 833 629 855 523 q 741 798 811 732 q 557 867 669 867 q 313 763 416 867 q 175 512 212 660 m 88 544 q 263 822 135 710 q 399 905 324 875 q 553 936 475 936 q 844 808 737 936 q 914 673 892 751 q 909 357 955 525 q 739 90 862 189 q 445 -10 616 -10 q 159 104 273 -10 q 70 297 89 175 q 88 544 52 419 z "},"ª":{"ha":378,"x_min":61,"x_max":425,"o":"m 284 745 q 191 714 230 745 q 145 629 152 683 q 154 595 142 608 q 184 581 165 581 q 223 605 203 581 q 246 638 243 629 q 258 669 249 647 q 269 699 267 691 q 277 721 272 706 q 284 745 282 736 m 298 583 q 371 652 346 612 q 391 661 379 667 l 410 651 q 418 632 425 644 q 355 555 393 589 q 276 513 317 521 q 259 514 269 512 q 246 520 249 516 l 232 545 q 123 520 182 498 q 63 608 64 546 q 101 721 61 670 q 197 792 142 771 q 299 809 252 813 q 301 817 300 813 q 305 835 302 821 q 311 865 308 850 q 299 924 319 910 q 199 848 264 922 q 185 833 190 837 q 172 835 180 828 l 149 857 q 141 866 143 859 q 141 876 139 872 q 209 948 157 909 q 299 985 260 988 q 349 967 321 984 q 384 919 378 950 q 364 759 396 870 q 298 583 333 647 z "},"«":{"ha":514,"x_min":111,"x_max":570,"o":"m 385 344 l 453 135 q 435 104 463 104 l 415 104 q 377 133 387 104 l 306 335 q 316 390 296 365 l 487 587 q 527 603 500 603 l 548 603 q 566 596 562 603 q 560 575 570 589 l 385 344 m 200 344 l 268 135 q 250 104 279 104 l 230 104 q 192 133 202 104 l 121 335 q 131 390 111 365 l 302 587 q 343 603 316 603 l 363 603 q 381 596 377 603 q 376 575 386 589 l 200 344 z "},"¬":{"ha":1077,"x_min":152,"x_max":919,"o":"m 795 483 l 182 483 q 157 494 163 483 q 158 530 152 505 l 162 542 q 178 572 168 565 q 209 579 188 579 l 868 579 q 904 523 919 579 l 837 277 q 799 249 830 249 l 767 249 q 739 278 732 249 l 795 483 z "},"®":{"ha":998,"x_min":52,"x_max":955,"o":"m 175 512 q 157 370 157 438 q 178 246 157 303 q 237 148 200 189 q 453 60 314 60 q 773 274 659 60 q 833 629 870 455 q 741 798 811 732 q 557 867 669 867 q 313 763 416 867 q 175 512 212 660 m 88 544 q 263 822 135 710 q 399 905 324 875 q 553 936 475 936 q 844 808 737 936 q 914 673 892 751 q 909 357 955 525 q 739 90 862 189 q 445 -10 616 -10 q 159 104 273 -10 q 70 297 89 175 q 88 544 52 419 m 451 472 l 491 473 q 565 493 543 475 q 617 604 613 531 q 609 643 618 627 q 575 673 600 659 q 510 688 550 686 l 451 472 m 422 683 q 395 678 409 681 q 375 683 382 676 q 371 701 368 691 l 381 739 q 405 756 383 750 q 552 763 480 775 q 664 714 624 752 q 704 618 704 676 q 676 512 704 560 q 621 446 647 463 q 569 419 595 428 l 617 213 q 615 189 621 197 q 599 181 609 181 l 553 181 q 529 205 535 181 l 489 408 l 435 408 l 379 202 q 349 182 374 182 l 316 182 q 297 190 303 182 q 295 209 292 198 l 422 683 z "},"¯":{"ha":510,"x_min":50,"x_max":549,"o":"m 82 832 q 532 832 82 832 q 545 827 542 832 q 539 790 549 820 q 513 759 530 759 l 72 759 q 50 768 51 759 q 53 782 50 773 q 56 795 56 792 l 63 817 q 82 832 66 832 z "},"°":{"ha":590,"x_min":162,"x_max":518,"o":"m 354 972 q 331 972 354 972 q 266 932 307 972 q 225 847 225 892 q 253 773 225 801 q 325 745 280 745 q 412 784 369 745 q 454 871 454 822 q 428 946 454 920 q 354 972 402 972 m 194 938 q 210 962 194 938 q 274 1009 226 985 q 379 1033 321 1033 q 477 991 437 1033 q 518 894 518 949 q 499 800 518 838 q 450 736 480 761 q 315 685 386 685 q 203 728 244 685 q 162 831 162 770 q 194 938 162 892 z "},"±":{"ha":609,"x_min":-2,"x_max":524,"o":"m 22 115 q 425 115 22 115 q 444 90 448 115 l 438 59 q 413 36 435 36 q 19 36 413 36 q 1 59 -2 36 l 9 101 q 22 115 12 115 m 486 379 l 316 379 l 279 241 q 242 214 272 214 l 217 214 q 190 242 182 214 l 225 379 l 70 379 q 53 399 49 379 l 63 440 q 71 455 65 451 q 91 459 77 459 l 247 459 l 278 580 q 316 607 286 607 l 341 607 q 368 579 376 607 l 337 459 l 503 459 q 519 453 513 459 q 522 438 524 447 l 513 400 q 486 379 508 379 z "},"²":{"ha":378,"x_min":14,"x_max":430,"o":"m 144 490 l 349 490 q 371 463 378 490 l 363 433 q 350 417 361 424 q 329 410 340 410 l 61 410 q 24 432 35 410 q 38 483 14 454 l 290 748 q 338 822 324 784 q 338 886 352 860 q 286 912 324 912 q 218 883 248 912 q 187 809 187 853 q 179 795 187 802 q 162 787 171 788 l 127 782 q 106 793 109 780 q 105 804 105 797 q 161 930 105 879 q 301 981 217 981 q 384 954 352 981 q 423 885 416 927 q 410 792 430 844 q 343 691 389 739 l 144 490 z "},"³":{"ha":384,"x_min":65,"x_max":425,"o":"m 324 702 q 383 604 383 685 q 325 461 383 523 q 185 399 266 400 q 71 498 97 397 q 65 551 65 524 q 82 585 65 577 l 119 600 q 143 601 138 606 q 148 580 148 597 q 203 465 140 465 q 288 539 259 465 q 296 564 294 554 q 289 636 306 611 q 220 661 272 661 q 195 674 197 661 q 195 683 194 678 l 197 711 q 230 731 200 732 q 297 754 261 731 q 342 819 332 777 q 335 887 352 860 q 285 914 319 914 q 224 887 252 914 q 196 823 197 859 q 175 785 195 788 l 140 781 q 119 793 121 778 q 118 807 118 798 q 170 931 118 879 q 289 983 223 984 q 390 945 356 982 q 425 847 425 907 q 376 739 425 787 q 324 702 352 714 z "},"´":{"ha":359,"x_min":81,"x_max":283,"o":"m 262 895 q 279 887 276 895 q 271 863 283 879 l 159 746 q 123 731 145 731 l 96 731 q 83 738 86 731 q 85 749 81 745 l 164 874 q 204 895 178 895 l 262 895 z "},"µ":{"ha":535,"x_min":-80,"x_max":542,"o":"m 177 651 q 244 651 177 651 q 255 644 250 651 q 254 621 259 636 l 125 176 q 128 121 112 124 q 192 188 147 119 q 342 447 237 255 q 451 642 448 639 q 456 647 454 646 q 462 650 458 649 q 467 651 466 651 l 525 651 q 537 642 532 651 q 539 618 542 632 l 383 33 q 375 8 380 16 q 358 0 369 0 l 305 0 q 284 8 289 0 q 285 37 280 15 l 373 337 l 257 140 q 173 34 215 69 q 99 0 131 0 l 73 0 q 60 -65 72 -19 l 14 -229 q -24 -257 7 -257 l -41 -257 q -71 -245 -63 -257 q -75 -215 -80 -233 l 157 634 q 177 651 160 651 z "},"¶":{"ha":867,"x_min":153,"x_max":946,"o":"m 563 837 l 292 -229 q 254 -257 285 -257 l 223 -257 q 194 -245 202 -257 q 190 -215 186 -233 l 359 449 q 212 505 272 453 q 153 646 153 558 q 251 850 153 772 q 503 929 349 929 l 920 929 q 941 922 936 929 q 942 898 946 915 l 935 863 q 899 837 929 837 l 804 837 l 534 -229 q 495 -257 526 -257 l 464 -257 q 435 -245 443 -257 q 431 -215 427 -233 l 698 837 l 563 837 z "},"·":{"ha":272,"x_min":111,"x_max":266,"o":"m 177 363 q 131 384 152 363 q 111 435 111 406 q 132 486 111 465 q 185 508 153 508 l 199 508 q 244 485 223 508 q 266 434 266 463 q 244 384 266 405 q 190 363 222 363 l 177 363 z "},"¸":{"ha":378,"x_min":71,"x_max":296,"o":"m 236 -50 q 273 -60 236 -50 q 288 -96 296 -66 q 270 -147 281 -126 q 238 -188 259 -168 q 103 -235 197 -231 q 80 -218 83 -235 l 76 -203 q 92 -177 71 -178 q 174 -145 144 -173 q 204 -71 204 -116 q 216 -50 204 -54 q 236 -50 229 -45 z "},"¹":{"ha":244,"x_min":65,"x_max":333,"o":"m 314 977 q 330 972 327 978 q 328 953 333 966 l 173 430 q 150 410 167 410 l 101 410 q 86 418 90 410 q 86 436 83 426 l 215 868 l 159 813 q 125 795 142 795 l 86 795 q 68 809 71 795 q 80 835 65 822 l 195 932 q 209 945 200 937 q 224 958 219 954 q 237 968 229 962 q 263 977 250 977 l 314 977 z "},"º":{"ha":416,"x_min":90,"x_max":455,"o":"m 182 699 q 236 608 182 608 q 293 628 267 608 q 333 680 318 648 q 363 807 363 746 q 351 886 363 868 q 306 904 338 904 q 249 884 274 904 q 210 833 225 865 q 182 699 182 770 m 145 884 q 219 954 173 927 q 326 981 264 981 q 421 935 388 981 q 455 832 455 888 q 441 726 455 776 q 399 632 426 676 q 326 559 371 587 q 224 531 281 531 q 128 572 167 531 q 90 705 90 614 q 145 884 90 797 z "},"»":{"ha":460,"x_min":28,"x_max":492,"o":"m 403 363 l 335 572 q 353 603 324 603 l 373 603 q 410 573 400 603 l 482 372 q 472 317 492 342 l 300 119 q 260 104 287 104 l 240 104 q 222 111 226 104 q 227 132 217 118 l 403 363 m 213 363 l 145 572 q 163 603 135 603 l 183 603 q 220 573 210 603 l 292 372 q 282 317 302 342 l 110 119 q 71 104 97 104 l 50 104 q 32 111 36 104 q 37 132 28 118 l 213 363 z "},"¼":{"ha":1172,"x_min":22,"x_max":1111,"o":"m 985 123 q 946 123 985 123 l 915 18 q 885 0 909 0 l 850 0 q 833 8 838 0 q 832 26 828 16 l 860 123 l 713 123 q 668 137 683 123 q 654 169 652 150 q 671 208 656 188 l 937 549 q 971 567 953 567 l 1004 567 q 1023 556 1018 567 q 1020 532 1028 544 l 751 195 l 881 195 l 916 316 q 946 334 922 334 l 980 334 q 997 326 991 334 q 999 308 1003 318 l 967 195 l 1007 195 q 1029 171 1036 197 l 1019 147 q 985 123 1009 123 m 96 -34 q 45 -33 96 -34 q 26 -21 30 -33 q 38 9 22 -9 l 975 951 q 1036 980 1004 980 q 1086 980 1036 980 q 1108 967 1105 980 q 1096 937 1111 954 l 150 -11 q 125 -30 135 -26 q 96 -34 114 -34 m 400 954 q 416 949 413 955 q 414 930 418 942 l 259 406 q 236 387 253 387 l 187 387 q 172 395 176 387 q 172 413 168 403 l 301 845 l 245 790 q 210 772 227 772 l 172 772 q 154 786 157 772 q 165 812 151 799 l 281 909 q 295 922 286 914 q 310 935 304 931 q 322 945 315 939 q 349 954 336 954 l 400 954 z "},"½":{"ha":1185,"x_min":22,"x_max":1111,"o":"m 818 80 l 1023 80 q 1045 53 1053 80 l 1038 23 q 1025 7 1035 14 q 1004 0 1014 0 l 736 0 q 699 22 709 0 q 713 73 688 44 l 964 338 q 1013 412 999 374 q 1013 476 1026 450 q 961 502 999 502 q 892 472 922 502 q 862 399 862 443 q 853 385 862 391 q 836 377 845 378 l 802 372 q 781 383 783 369 q 780 394 780 386 q 836 520 780 468 q 976 571 892 571 q 1058 544 1026 571 q 1097 475 1090 517 q 1084 381 1105 434 q 1017 281 1064 329 l 818 80 m 96 -34 q 45 -33 96 -34 q 26 -21 30 -33 q 38 9 22 -9 l 975 951 q 1036 980 1004 980 q 1086 980 1036 980 q 1108 967 1105 980 q 1096 937 1111 954 l 150 -11 q 125 -30 135 -26 q 96 -34 114 -34 m 400 954 q 416 949 413 955 q 414 930 418 942 l 259 406 q 236 387 253 387 l 187 387 q 172 395 176 387 q 172 413 168 403 l 301 845 l 245 790 q 210 772 227 772 l 172 772 q 154 786 157 772 q 165 812 151 799 l 281 909 q 295 922 286 914 q 310 935 304 931 q 322 945 315 939 q 349 954 336 954 l 400 954 z "},"¾":{"ha":1160,"x_min":22,"x_max":1111,"o":"m 985 123 q 946 123 985 123 l 915 18 q 885 0 909 0 l 850 0 q 833 8 838 0 q 832 26 828 16 l 860 123 l 713 123 q 668 137 683 123 q 654 169 652 150 q 671 208 656 188 l 937 549 q 971 567 953 567 l 1004 567 q 1023 556 1018 567 q 1020 532 1028 544 l 751 195 l 881 195 l 916 316 q 946 334 922 334 l 980 334 q 997 326 991 334 q 999 308 1003 318 l 967 195 l 1007 195 q 1029 171 1036 197 l 1019 147 q 985 123 1009 123 m 96 -34 q 45 -33 96 -34 q 26 -21 30 -33 q 38 9 22 -9 l 975 951 q 1036 980 1004 980 q 1086 980 1036 980 q 1108 967 1105 980 q 1096 937 1111 954 l 150 -11 q 125 -30 135 -26 q 96 -34 114 -34 m 343 679 q 403 581 403 662 q 344 438 403 500 q 204 376 286 376 q 91 475 116 374 q 85 528 85 501 q 101 562 85 554 l 138 577 q 162 578 158 583 q 167 557 167 574 q 222 442 159 442 q 307 515 278 442 q 316 541 314 530 q 308 613 325 588 q 240 637 292 637 q 214 651 216 637 q 214 659 214 654 l 217 688 q 250 708 219 709 q 316 731 281 708 q 361 796 351 754 q 355 864 371 837 q 305 891 338 891 q 244 864 271 891 q 215 800 217 836 q 194 761 214 765 l 159 758 q 138 770 141 755 q 137 783 137 775 q 190 908 137 855 q 309 960 242 961 q 410 921 375 959 q 444 824 444 884 q 396 716 444 764 q 343 679 371 691 z "},"¿":{"ha":424,"x_min":-1,"x_max":445,"o":"m 379 929 q 425 907 405 929 q 445 856 445 885 q 424 805 445 827 q 372 783 403 783 l 358 783 q 312 806 333 783 q 291 858 291 828 q 313 908 291 887 q 367 929 335 929 l 379 929 m 266 549 q 291 622 281 569 q 301 695 301 674 q 311 720 301 716 q 340 723 321 725 l 369 719 q 397 671 398 714 q 371 567 396 628 q 314 480 346 505 q 235 453 283 454 q 168 436 187 452 q 135 376 150 419 q 106 254 119 333 q 98 145 94 175 q 148 80 104 88 q 223 145 171 86 q 235 159 230 153 q 272 157 249 172 l 296 141 q 308 121 307 133 q 301 103 308 110 q 227 28 269 63 q 157 -13 185 -8 q 80 5 128 -19 q 18 61 32 28 q 2 145 4 94 q 8 245 -1 196 q 41 387 23 342 q 68 449 60 432 q 89 484 76 465 q 116 512 102 503 q 151 530 130 521 q 266 549 185 544 z "},"À":{"ha":590,"x_min":-81,"x_max":527,"o":"m 409 1175 q 448 1153 435 1175 l 522 1034 q 522 1017 527 1024 q 505 1010 517 1010 l 485 1010 q 447 1028 465 1010 l 333 1147 q 327 1167 324 1160 q 341 1175 330 1175 l 409 1175 m 156 278 l 32 26 q -16 0 18 -3 l -45 3 q -75 19 -68 3 q -72 51 -81 36 l 355 875 q 426 926 382 926 l 477 927 q 513 912 500 927 q 525 865 527 896 l 480 28 q 441 0 478 0 l 398 1 q 368 36 366 1 l 384 278 l 156 278 m 202 371 l 391 371 l 420 817 l 202 371 z "},"Á":{"ha":591,"x_min":-81,"x_max":629,"o":"m 608 1156 q 626 1147 622 1156 q 617 1123 629 1139 l 505 1007 q 470 991 491 991 l 443 991 q 430 998 432 991 q 431 1009 427 1006 l 510 1134 q 550 1156 524 1156 l 608 1156 m 156 278 l 32 26 q -16 0 18 -3 l -45 3 q -75 19 -68 3 q -72 51 -81 36 l 355 875 q 426 926 382 926 l 477 927 q 513 912 500 927 q 525 865 527 896 l 480 28 q 441 0 478 0 l 398 1 q 368 36 366 1 l 384 278 l 156 278 m 202 371 l 391 371 l 420 817 l 202 371 z "},"Â":{"ha":585,"x_min":-81,"x_max":592,"o":"m 475 1099 l 394 1017 q 378 1005 384 1008 q 358 1003 372 1003 l 327 1003 q 310 1013 312 1003 q 319 1033 307 1022 l 449 1149 q 481 1167 471 1168 l 493 1166 q 518 1143 507 1164 l 586 1024 q 588 1010 592 1016 q 574 1003 585 1003 l 536 1003 q 518 1006 523 1003 q 509 1017 513 1008 l 475 1099 m 156 278 l 32 26 q -16 0 18 -3 l -45 3 q -75 19 -68 3 q -72 51 -81 36 l 355 875 q 426 926 382 926 l 477 927 q 513 912 500 927 q 525 865 527 896 l 480 28 q 441 0 478 0 l 398 1 q 368 36 366 1 l 384 278 l 156 278 m 202 371 l 391 371 l 420 817 l 202 371 z "},"Ã":{"ha":590,"x_min":-81,"x_max":661,"o":"m 259 1053 q 267 1078 259 1053 q 287 1103 272 1097 q 363 1116 312 1116 q 458 1100 413 1115 q 541 1084 504 1084 q 611 1093 578 1084 q 653 1096 644 1103 q 657 1072 661 1090 l 649 1041 q 639 1019 646 1026 q 616 1008 632 1013 q 456 1011 530 984 q 286 1019 362 1043 q 260 1021 267 1013 q 259 1053 253 1029 m 156 278 l 32 26 q -16 0 18 -3 l -45 3 q -75 19 -68 3 q -72 51 -81 36 l 355 875 q 426 926 382 926 l 477 927 q 513 912 500 927 q 525 865 527 896 l 480 28 q 441 0 478 0 l 398 1 q 368 36 366 1 l 384 278 l 156 278 m 202 371 l 391 371 l 420 817 l 202 371 z "},"Ä":{"ha":585,"x_min":-81,"x_max":629,"o":"m 553 1043 q 513 1061 530 1043 q 497 1105 497 1080 q 515 1149 497 1130 q 559 1167 533 1167 l 570 1167 q 610 1148 592 1167 q 629 1104 629 1128 q 610 1061 629 1079 q 563 1043 590 1043 l 553 1043 m 348 1043 q 308 1061 325 1043 q 291 1105 291 1080 q 309 1149 291 1130 q 354 1167 327 1167 l 366 1167 q 405 1148 387 1167 q 423 1104 423 1128 q 404 1061 423 1079 q 358 1043 385 1043 l 348 1043 m 156 278 l 32 26 q -16 0 18 -3 l -45 3 q -75 19 -68 3 q -72 51 -81 36 l 355 875 q 426 926 382 926 l 477 927 q 513 912 500 927 q 525 865 527 896 l 480 28 q 441 0 478 0 l 398 1 q 368 36 366 1 l 384 278 l 156 278 m 202 371 l 391 371 l 420 817 l 202 371 z "},"Å":{"ha":594,"x_min":-81,"x_max":619,"o":"m 469 1009 q 452 1013 469 1009 q 404 994 434 1017 q 361 927 374 971 q 360 846 348 883 q 410 802 373 809 q 477 819 448 795 q 519 886 507 844 q 518 965 532 929 q 469 1009 505 1001 m 304 772 q 270 905 259 823 q 333 1034 280 987 q 461 1079 386 1082 q 577 1030 535 1076 q 610 903 619 984 q 544 768 601 822 q 518 748 532 756 l 481 28 q 443 0 479 0 l 399 1 q 369 36 368 1 l 386 278 l 157 278 l 33 26 q -14 0 19 -3 l -44 3 q -73 18 -64 4 q -71 51 -81 31 l 304 772 m 415 725 q 379 730 396 726 l 203 371 l 392 371 l 415 725 z "},"Æ":{"ha":836,"x_min":-125,"x_max":941,"o":"m 150 278 l -9 24 q -26 3 -19 9 q -51 0 -34 -2 l -96 3 q -119 18 -114 3 q -115 48 -125 34 l 430 875 q 505 929 467 929 l 529 929 q 537 929 533 929 l 912 929 q 935 922 930 929 q 936 897 941 915 l 927 864 q 895 840 920 840 l 574 840 l 524 547 l 782 547 q 798 539 792 547 q 800 518 804 532 l 792 486 q 753 459 785 459 l 509 459 l 446 88 l 685 88 q 701 80 696 88 q 703 59 706 71 l 694 27 q 652 0 688 0 l 364 0 q 335 34 331 0 l 378 278 l 150 278 m 209 371 l 394 371 l 466 780 l 209 371 z "},"Ç":{"ha":544,"x_min":4,"x_max":574,"o":"m 306 -50 q 343 -60 306 -50 q 358 -96 365 -66 q 339 -147 350 -126 q 307 -188 328 -168 q 172 -235 266 -231 q 149 -218 153 -235 l 145 -203 q 162 -177 140 -178 q 244 -145 214 -173 q 274 -71 274 -116 q 286 -50 274 -54 q 306 -50 298 -45 m 493 909 q 544 832 523 888 q 569 735 566 776 q 572 687 572 694 q 546 662 574 670 l 510 651 q 484 658 498 648 q 470 686 470 669 q 426 826 460 785 q 388 832 409 832 q 262 744 326 835 q 154 493 199 652 q 129 164 95 292 q 186 83 148 93 q 341 222 280 91 q 347 233 343 225 q 351 242 350 240 q 355 250 353 244 q 359 256 358 255 q 363 260 361 257 q 368 263 366 263 q 373 264 370 263 q 379 264 376 265 q 387 261 383 262 q 396 258 391 260 l 437 241 q 449 221 449 237 q 441 190 450 206 q 324 35 381 81 q 182 -10 267 -10 q 100 17 143 -10 q 17 201 31 59 q 49 519 4 342 q 133 732 78 636 q 261 883 188 827 q 409 939 334 939 q 451 930 425 939 q 493 909 478 921 z "},"È":{"ha":512,"x_min":-14,"x_max":609,"o":"m 241 1175 q 281 1153 267 1175 l 354 1034 q 354 1017 359 1024 q 338 1010 349 1010 l 317 1010 q 279 1028 297 1010 l 165 1147 q 159 1167 156 1160 q 173 1175 162 1175 l 241 1175 m 323 0 q 16 0 323 0 q -7 12 0 0 q -10 39 -14 23 l 193 840 l 142 840 q 118 846 123 840 q 119 874 114 852 l 127 903 q 138 924 131 920 q 162 929 144 929 l 580 929 q 603 922 598 929 q 604 897 609 915 l 595 864 q 563 840 589 840 l 298 840 l 224 547 l 450 547 q 467 539 462 547 q 468 518 472 530 l 459 486 q 421 459 453 459 l 201 459 l 106 88 l 353 88 q 369 80 364 88 q 371 59 374 71 l 362 27 q 323 0 356 0 z "},"É":{"ha":512,"x_min":-14,"x_max":609,"o":"m 547 1175 q 564 1166 560 1175 q 555 1142 568 1158 l 444 1026 q 408 1010 430 1010 l 381 1010 q 368 1017 371 1010 q 369 1028 366 1024 l 449 1153 q 489 1175 463 1175 l 547 1175 m 323 0 q 16 0 323 0 q -7 12 0 0 q -10 39 -14 23 l 193 840 l 142 840 q 118 846 123 840 q 119 874 114 852 l 127 903 q 138 924 131 920 q 162 929 144 929 l 580 929 q 603 922 598 929 q 604 897 609 915 l 595 864 q 563 840 589 840 l 298 840 l 224 547 l 450 547 q 467 539 462 547 q 468 518 472 530 l 459 486 q 421 459 453 459 l 201 459 l 106 88 l 353 88 q 369 80 364 88 q 371 59 374 71 l 362 27 q 323 0 356 0 z "},"Ê":{"ha":512,"x_min":-14,"x_max":609,"o":"m 436 1138 l 355 1056 q 339 1045 346 1047 q 319 1043 333 1043 l 288 1043 q 271 1052 274 1043 q 281 1072 269 1061 l 410 1189 q 442 1207 432 1208 l 454 1205 q 480 1182 468 1204 l 547 1064 q 549 1049 553 1056 q 535 1043 546 1043 l 497 1043 q 479 1045 484 1043 q 470 1056 474 1048 l 436 1138 m 323 0 q 16 0 323 0 q -7 12 0 0 q -10 39 -14 23 l 193 840 l 142 840 q 118 846 123 840 q 119 874 114 852 l 127 903 q 138 924 131 920 q 162 929 144 929 l 580 929 q 603 922 598 929 q 604 897 609 915 l 595 864 q 563 840 589 840 l 298 840 l 224 547 l 450 547 q 467 539 462 547 q 468 518 472 530 l 459 486 q 421 459 453 459 l 201 459 l 106 88 l 353 88 q 369 80 364 88 q 371 59 374 71 l 362 27 q 323 0 356 0 z "},"Ë":{"ha":512,"x_min":-14,"x_max":609,"o":"m 486 1053 q 446 1071 463 1053 q 430 1115 430 1090 q 448 1159 430 1140 q 492 1177 466 1177 l 503 1177 q 543 1158 525 1177 q 562 1114 562 1138 q 543 1071 562 1089 q 496 1053 523 1053 l 486 1053 m 281 1053 q 241 1071 258 1053 q 224 1115 224 1090 q 242 1159 224 1140 q 287 1177 260 1177 l 299 1177 q 338 1158 320 1177 q 356 1114 356 1138 q 337 1071 356 1089 q 291 1053 318 1053 l 281 1053 m 323 0 q 16 0 323 0 q -7 12 0 0 q -10 39 -14 23 l 193 840 l 142 840 q 118 846 123 840 q 119 874 114 852 l 127 903 q 138 924 131 920 q 162 929 144 929 l 580 929 q 603 922 598 929 q 604 897 609 915 l 595 864 q 563 840 589 840 l 298 840 l 224 547 l 450 547 q 467 539 462 547 q 468 518 472 530 l 459 486 q 421 459 453 459 l 201 459 l 106 88 l 353 88 q 369 80 364 88 q 371 59 374 71 l 362 27 q 323 0 356 0 z "},"Ì":{"ha":301,"x_min":-1,"x_max":339,"o":"m 222 900 q 260 929 229 929 l 297 929 q 320 917 313 929 q 323 889 327 905 l 104 28 q 65 0 96 0 l 28 0 q 6 12 13 0 q 3 39 -1 23 l 222 900 m 220 1175 q 260 1153 247 1175 l 333 1035 q 333 1018 339 1024 q 317 1011 328 1011 l 296 1011 q 259 1028 276 1011 l 145 1148 q 139 1168 135 1160 q 153 1175 142 1175 l 220 1175 z "},"Í":{"ha":276,"x_min":-18,"x_max":445,"o":"m 205 900 q 244 929 213 929 l 281 929 q 303 917 297 929 q 306 889 310 905 l 87 28 q 49 0 80 0 l 11 0 q -11 12 -4 0 q -14 39 -18 23 l 205 900 m 423 1175 q 441 1167 437 1175 q 432 1143 445 1158 l 321 1026 q 285 1011 307 1011 l 258 1011 q 245 1018 247 1011 q 246 1028 242 1024 l 326 1153 q 366 1175 339 1175 l 423 1175 z "},"Î":{"ha":284,"x_min":-18,"x_max":402,"o":"m 205 900 q 244 929 213 929 l 281 929 q 303 917 297 929 q 306 889 310 905 l 87 28 q 49 0 80 0 l 11 0 q -11 12 -4 0 q -14 39 -18 23 l 205 900 m 284 1099 l 204 1017 q 188 1005 195 1008 q 168 1003 182 1003 l 137 1003 q 120 1013 123 1003 q 130 1033 118 1022 l 259 1149 q 291 1167 281 1168 l 302 1166 q 328 1143 316 1164 l 396 1024 q 398 1009 402 1016 q 383 1003 394 1003 l 346 1003 q 328 1006 333 1003 q 319 1017 323 1008 l 284 1099 z "},"Ï":{"ha":284,"x_min":-18,"x_max":427,"o":"m 205 900 q 244 929 213 929 l 281 929 q 303 917 297 929 q 306 889 310 905 l 87 28 q 49 0 80 0 l 11 0 q -11 12 -4 0 q -14 39 -18 23 l 205 900 m 351 1041 q 312 1060 329 1041 q 295 1104 295 1078 q 313 1147 295 1129 q 358 1166 331 1166 l 369 1166 q 409 1147 391 1166 q 427 1102 427 1127 q 408 1060 427 1078 q 362 1041 389 1041 l 351 1041 m 181 1041 q 142 1060 158 1041 q 125 1104 125 1078 q 143 1147 125 1129 q 187 1166 161 1166 l 199 1166 q 238 1147 220 1166 q 257 1102 257 1127 q 238 1060 257 1078 q 191 1041 219 1041 l 181 1041 z "},"Ð":{"ha":592,"x_min":61,"x_max":532,"o":"m 96 460 q 507 460 96 460 q 526 452 520 460 q 529 431 532 444 l 522 399 q 488 372 517 372 l 91 372 q 68 401 61 372 l 80 446 q 96 460 83 460 z "},"Ñ":{"ha":663,"x_min":-18,"x_max":714,"o":"m 495 1133 l 515 1126 q 601 1100 582 1100 q 628 1102 621 1100 q 640 1105 636 1103 q 654 1112 644 1106 q 678 1125 664 1118 q 703 1126 691 1132 q 707 1099 714 1120 l 688 1048 q 663 1022 683 1031 q 592 1004 627 1004 q 529 1015 557 1004 q 482 1036 502 1026 q 420 1054 445 1054 q 364 1037 395 1054 q 325 1031 334 1020 q 323 1068 316 1043 l 330 1090 q 358 1127 339 1117 q 423 1146 394 1146 q 495 1133 460 1146 m 205 900 q 242 929 213 928 l 281 929 q 314 889 307 929 l 428 239 l 596 900 q 635 929 604 929 l 672 929 q 694 917 688 929 q 698 889 701 905 l 478 28 q 440 0 471 0 l 394 0 q 373 15 378 0 q 370 31 371 24 q 368 39 369 37 l 255 686 l 87 28 q 49 0 80 0 l 11 0 q -11 12 -4 0 q -14 39 -18 23 l 205 900 z "},"Ò":{"ha":572,"x_min":9,"x_max":584,"o":"m 377 1175 q 416 1153 403 1175 l 490 1034 q 490 1017 495 1024 q 473 1010 485 1010 l 453 1010 q 415 1028 433 1010 l 301 1147 q 295 1167 292 1160 q 309 1175 298 1175 l 377 1175 m 129 154 q 197 81 150 81 q 317 148 266 81 q 437 422 379 235 q 477 718 492 599 q 450 802 470 771 q 396 833 429 833 q 271 762 326 833 q 147 478 204 673 q 129 154 91 283 m 9 278 q 90 641 9 451 q 307 914 180 847 q 402 939 353 939 q 513 903 451 939 q 569 825 554 879 q 584 670 584 772 q 539 398 584 569 q 294 18 460 96 q 191 -6 245 -6 q 101 18 148 -6 q 9 278 9 67 z "},"Ó":{"ha":572,"x_min":9,"x_max":622,"o":"m 601 1175 q 618 1166 614 1175 q 609 1142 622 1158 l 498 1026 q 462 1010 483 1010 l 435 1010 q 422 1017 425 1010 q 423 1028 420 1024 l 503 1153 q 543 1175 517 1175 l 601 1175 m 129 154 q 197 81 150 81 q 317 148 266 81 q 437 422 379 235 q 477 718 492 599 q 450 802 470 771 q 396 833 429 833 q 271 762 326 833 q 147 478 204 673 q 129 154 91 283 m 9 278 q 90 641 9 451 q 307 914 180 847 q 402 939 353 939 q 513 903 451 939 q 569 825 554 879 q 584 670 584 772 q 539 398 584 569 q 294 18 460 96 q 191 -6 245 -6 q 101 18 148 -6 q 9 278 9 67 z "},"Ô":{"ha":573,"x_min":9,"x_max":584,"o":"m 453 1099 l 372 1017 q 356 1005 363 1008 q 336 1003 350 1003 l 305 1003 q 288 1013 291 1003 q 297 1033 286 1022 l 427 1149 q 459 1167 449 1168 l 471 1166 q 497 1143 485 1164 l 564 1024 q 566 1010 570 1016 q 552 1003 563 1003 l 514 1003 q 496 1006 501 1003 q 487 1017 491 1008 l 453 1099 m 129 154 q 197 81 150 81 q 317 148 266 81 q 437 422 379 235 q 477 718 492 599 q 450 802 470 771 q 396 833 429 833 q 271 762 326 833 q 147 478 204 673 q 129 154 91 283 m 9 278 q 90 641 9 451 q 307 914 180 847 q 402 939 353 939 q 513 903 451 939 q 569 825 554 879 q 584 670 584 772 q 539 398 584 569 q 294 18 460 96 q 191 -6 245 -6 q 101 18 148 -6 q 9 278 9 67 z "},"Õ":{"ha":572,"x_min":9,"x_max":629,"o":"m 227 1053 q 234 1078 227 1053 q 255 1103 239 1097 q 330 1116 280 1116 q 426 1100 380 1115 q 508 1084 472 1084 q 579 1093 545 1084 q 620 1096 612 1103 q 624 1072 629 1090 l 617 1041 q 606 1019 613 1026 q 583 1008 599 1013 q 424 1011 498 984 q 254 1019 329 1043 q 228 1021 235 1013 q 227 1053 220 1029 m 129 154 q 197 81 150 81 q 317 148 266 81 q 437 422 379 235 q 477 718 492 599 q 450 802 470 771 q 396 833 429 833 q 271 762 326 833 q 147 478 204 673 q 129 154 91 283 m 9 278 q 90 641 9 451 q 307 914 180 847 q 402 939 353 939 q 513 903 451 939 q 569 825 554 879 q 584 670 584 772 q 539 398 584 569 q 294 18 460 96 q 191 -6 245 -6 q 101 18 148 -6 q 9 278 9 67 z "},"Ö":{"ha":573,"x_min":9,"x_max":592,"o":"m 516 1043 q 477 1061 493 1043 q 460 1105 460 1080 q 478 1149 460 1130 q 522 1167 496 1167 l 534 1167 q 573 1148 555 1167 q 592 1104 592 1128 q 573 1061 592 1079 q 526 1043 554 1043 l 516 1043 m 311 1043 q 271 1061 288 1043 q 254 1105 254 1080 q 272 1149 254 1130 q 317 1167 291 1167 l 329 1167 q 368 1148 350 1167 q 386 1104 386 1128 q 367 1061 386 1079 q 321 1043 348 1043 l 311 1043 m 129 154 q 197 81 150 81 q 317 148 266 81 q 437 422 379 235 q 477 718 492 599 q 450 802 470 771 q 396 833 429 833 q 271 762 326 833 q 147 478 204 673 q 129 154 91 283 m 9 278 q 90 641 9 451 q 307 914 180 847 q 402 939 353 939 q 513 903 451 939 q 569 825 554 879 q 584 670 584 772 q 539 398 584 569 q 294 18 460 96 q 191 -6 245 -6 q 101 18 148 -6 q 9 278 9 67 z "},"×":{"ha":547,"x_min":-29,"x_max":577,"o":"m 320 388 l 432 87 q 432 59 438 69 q 405 38 426 50 l 390 31 q 326 59 343 4 l 250 299 l 72 53 q 28 37 52 23 l -4 58 q -26 78 -23 69 q -16 110 -29 88 l 212 401 l 105 700 q 101 716 102 709 q 99 728 100 723 q 99 738 98 733 q 102 745 101 743 q 106 751 103 748 q 112 757 110 755 q 120 762 114 758 q 128 768 126 766 l 148 778 q 179 780 165 790 q 200 745 193 770 l 289 482 l 483 749 q 527 766 504 780 l 553 750 q 576 725 574 737 q 563 696 577 713 l 320 388 z "},"Ø":{"ha":577,"x_min":-68,"x_max":711,"o":"m 693 874 q 586 745 693 874 q 589 678 589 714 q 544 398 589 569 q 299 18 465 96 q 196 -6 250 -6 q 110 16 153 -6 q 45 90 68 39 l 17 55 q -27 34 -10 21 l -53 55 q -67 76 -67 66 q -51 108 -68 86 l 19 194 q 14 278 14 233 q 95 641 14 452 q 312 914 185 847 q 407 939 358 939 q 518 903 456 939 q 560 858 545 887 l 611 919 q 637 937 626 937 q 658 930 647 937 l 677 917 q 693 874 711 895 m 476 754 q 401 833 455 833 q 276 762 331 833 q 157 493 209 673 q 123 321 131 403 l 476 754 m 126 188 q 159 103 138 126 q 203 81 181 81 q 322 148 271 81 q 443 422 386 236 q 483 619 475 527 l 126 188 z "},"Ù":{"ha":634,"x_min":-1,"x_max":679,"o":"m 539 1175 q 578 1153 564 1175 l 651 1034 q 652 1017 657 1024 q 635 1010 646 1010 l 614 1010 q 577 1028 595 1010 l 463 1147 q 456 1167 453 1160 q 470 1175 460 1175 l 539 1175 m 88 37 q 58 358 -1 132 l 196 900 q 235 929 204 929 l 272 929 q 294 917 287 929 q 297 889 301 905 l 153 317 q 240 75 91 75 q 349 126 302 75 q 428 302 396 177 l 581 900 q 619 929 589 929 l 651 929 q 673 917 667 929 q 676 889 679 905 l 526 294 q 367 29 477 95 q 218 -9 304 -9 q 88 37 133 -9 z "},"Ú":{"ha":634,"x_min":-1,"x_max":679,"o":"m 580 1175 q 597 1166 594 1175 q 589 1142 601 1158 l 477 1026 q 441 1010 463 1010 l 415 1010 q 401 1017 404 1010 q 403 1028 399 1024 l 482 1153 q 522 1175 496 1175 l 580 1175 m 88 37 q 58 358 -1 132 l 196 900 q 235 929 204 929 l 272 929 q 294 917 287 929 q 297 889 301 905 l 153 317 q 240 75 91 75 q 349 126 302 75 q 428 302 396 177 l 581 900 q 619 929 589 929 l 651 929 q 673 917 667 929 q 676 889 679 905 l 526 294 q 367 29 477 95 q 218 -9 304 -9 q 88 37 133 -9 z "},"Û":{"ha":634,"x_min":-1,"x_max":679,"o":"m 472 1099 l 391 1017 q 376 1005 382 1008 q 356 1003 369 1003 l 324 1003 q 307 1013 310 1003 q 317 1033 305 1022 l 446 1149 q 478 1167 468 1168 l 490 1166 q 516 1143 504 1164 l 584 1024 q 586 1010 589 1016 q 571 1003 582 1003 l 534 1003 q 515 1006 520 1003 q 507 1017 510 1008 l 472 1099 m 88 37 q 58 358 -1 132 l 196 900 q 235 929 204 929 l 272 929 q 294 917 287 929 q 297 889 301 905 l 153 317 q 240 75 91 75 q 349 126 302 75 q 428 302 396 177 l 581 900 q 619 929 589 929 l 651 929 q 673 917 667 929 q 676 889 679 905 l 526 294 q 367 29 477 95 q 218 -9 304 -9 q 88 37 133 -9 z "},"Ü":{"ha":634,"x_min":-1,"x_max":679,"o":"m 548 1043 q 508 1061 525 1043 q 492 1105 492 1080 q 510 1149 492 1130 q 554 1167 528 1167 l 565 1167 q 605 1148 587 1167 q 624 1104 624 1128 q 605 1061 624 1079 q 558 1043 585 1043 l 548 1043 m 343 1043 q 303 1061 320 1043 q 286 1105 286 1080 q 304 1149 286 1130 q 349 1167 322 1167 l 361 1167 q 400 1148 382 1167 q 418 1104 418 1128 q 399 1061 418 1079 q 353 1043 380 1043 l 343 1043 m 88 37 q 58 358 -1 132 l 196 900 q 235 929 204 929 l 272 929 q 294 917 287 929 q 297 889 301 905 l 153 317 q 240 75 91 75 q 349 126 302 75 q 428 302 396 177 l 581 900 q 619 929 589 929 l 651 929 q 673 917 667 929 q 676 889 679 905 l 526 294 q 367 29 477 95 q 218 -9 304 -9 q 88 37 133 -9 z "},"Ý":{"ha":513,"x_min":94,"x_max":629,"o":"m 516 1175 q 534 1166 530 1175 q 525 1142 537 1158 l 413 1026 q 378 1010 399 1010 l 351 1010 q 338 1017 340 1010 q 339 1028 335 1024 l 418 1153 q 458 1175 432 1175 l 516 1175 m 268 482 q 525 912 447 748 q 563 929 533 931 l 603 924 q 623 910 618 922 q 618 877 629 897 q 287 373 468 614 l 199 28 q 160 0 191 0 l 123 0 q 101 12 108 0 q 98 39 94 23 l 187 393 q 168 634 187 478 q 133 842 148 790 q 128 910 119 894 q 155 927 137 926 l 191 932 q 217 928 209 934 q 229 902 225 922 q 268 482 269 664 z "},"Þ":{"ha":573,"x_min":-14,"x_max":585,"o":"m 367 840 q 577 656 585 840 q 546 492 574 571 q 472 374 517 414 q 159 295 379 291 l 91 28 q 53 0 83 0 l 16 0 q -7 12 0 0 q -10 39 -14 23 l 209 900 q 247 929 217 929 l 285 929 q 307 917 301 929 q 311 889 314 905 l 298 840 l 367 840 m 181 382 l 281 387 q 422 464 384 393 q 457 556 441 495 q 473 661 473 616 q 452 727 473 706 q 389 750 431 748 q 276 753 347 752 l 181 382 z "},"ß":{"ha":583,"x_min":-30,"x_max":590,"o":"m 33 0 q 1 0 33 0 q -23 8 -15 0 q -27 29 -30 16 l 153 705 q 243 886 182 815 q 417 964 309 964 q 544 907 495 964 q 585 772 590 853 q 512 613 580 688 q 482 582 502 602 q 452 552 462 562 q 431 525 443 542 q 410 467 410 495 q 424 421 410 440 q 456 384 437 403 q 496 346 476 366 q 542 226 542 296 q 518 103 542 157 q 446 14 495 49 q 331 -21 396 -21 q 212 66 243 -21 q 197 137 197 104 q 199 181 196 171 q 214 195 203 192 l 249 205 q 286 192 288 217 q 314 74 281 104 q 348 61 327 61 q 417 104 388 61 q 446 210 446 146 q 411 298 446 263 q 378 330 396 314 q 344 361 359 347 q 313 482 299 404 q 361 579 322 532 q 405 631 384 608 q 444 672 426 653 q 475 725 461 691 q 488 785 489 758 q 478 835 488 812 q 409 882 458 882 q 316 833 360 882 q 250 700 272 785 l 71 28 q 33 0 63 0 z "},"à":{"ha":482,"x_min":5,"x_max":609,"o":"m 491 888 q 530 866 517 888 l 604 748 q 604 730 609 737 q 587 723 599 723 l 567 723 q 529 741 547 723 l 415 860 q 409 880 406 873 q 423 888 412 888 l 491 888 m 359 554 q 260 565 297 589 q 189 466 223 540 q 109 219 131 341 q 101 142 99 165 q 120 110 103 120 q 165 123 137 101 q 223 192 193 146 q 283 312 254 237 q 359 554 312 387 m 378 626 q 408 656 385 656 l 437 657 q 470 644 460 657 q 472 611 479 632 l 319 98 q 398 182 358 126 q 430 191 411 202 l 460 170 q 467 138 480 157 q 370 43 415 76 q 266 -5 326 9 q 251 -3 257 -7 q 242 9 244 2 l 218 80 q 168 24 198 51 q 116 -4 138 -4 l 114 -4 q 82 11 104 -4 q 49 41 61 26 q 32 62 36 56 q 21 78 27 68 q 13 97 16 88 q 9 119 11 106 q 10 183 5 141 q 75 422 24 288 q 175 603 126 557 q 297 649 224 649 q 378 626 341 649 z "},"á":{"ha":482,"x_min":5,"x_max":506,"o":"m 485 888 q 502 879 498 888 q 493 855 506 871 l 382 739 q 346 723 368 723 l 319 723 q 306 730 309 723 q 307 741 304 738 l 387 866 q 427 888 401 888 l 485 888 m 359 554 q 260 565 297 589 q 189 466 223 540 q 109 219 131 341 q 101 142 99 165 q 120 110 103 120 q 165 123 137 101 q 223 192 193 146 q 283 312 254 237 q 359 554 312 387 m 378 626 q 408 656 385 656 l 437 657 q 470 644 460 657 q 472 611 479 632 l 319 98 q 398 182 358 126 q 430 191 411 202 l 460 170 q 467 138 480 157 q 370 43 415 76 q 266 -5 326 9 q 251 -3 257 -7 q 242 9 244 2 l 218 80 q 168 24 198 51 q 116 -4 138 -4 l 114 -4 q 82 11 104 -4 q 49 41 61 26 q 32 62 36 56 q 21 78 27 68 q 13 97 16 88 q 9 119 11 106 q 10 183 5 141 q 75 422 24 288 q 175 603 126 557 q 297 649 224 649 q 378 626 341 649 z "},"â":{"ha":493,"x_min":5,"x_max":480,"o":"m 344 805 l 263 723 q 247 712 254 714 q 227 709 241 709 l 196 709 q 179 719 182 709 q 188 739 177 728 l 318 855 q 350 874 340 875 l 362 872 q 388 849 376 870 l 455 731 q 457 716 461 723 q 443 709 454 709 l 405 709 q 387 712 392 709 q 378 723 382 714 l 344 805 m 359 554 q 260 565 297 589 q 189 466 223 540 q 109 219 131 341 q 101 142 99 165 q 120 110 103 120 q 165 123 137 101 q 223 192 193 146 q 283 312 254 237 q 359 554 312 387 m 378 626 q 408 656 385 656 l 437 657 q 470 644 460 657 q 472 611 479 632 l 319 98 q 398 182 358 126 q 430 191 411 202 l 460 170 q 467 138 480 157 q 370 43 415 76 q 266 -5 326 9 q 251 -3 257 -7 q 242 9 244 2 l 218 80 q 168 24 198 51 q 116 -4 138 -4 l 114 -4 q 82 11 104 -4 q 49 41 61 26 q 32 62 36 56 q 21 78 27 68 q 13 97 16 88 q 9 119 11 106 q 10 183 5 141 q 75 422 24 288 q 175 603 126 557 q 297 649 224 649 q 378 626 341 649 z "},"ã":{"ha":495,"x_min":5,"x_max":530,"o":"m 128 784 q 136 808 128 784 q 157 834 141 828 q 232 846 182 847 q 327 830 282 846 q 410 815 373 815 q 480 824 447 815 q 522 827 513 833 q 526 803 530 820 l 518 772 q 508 750 515 757 q 485 739 501 743 q 326 741 400 714 q 155 750 231 774 q 129 751 137 743 q 128 784 122 760 m 359 554 q 260 565 297 589 q 189 466 223 540 q 109 219 131 341 q 101 142 99 165 q 120 110 103 120 q 165 123 137 101 q 223 192 193 146 q 283 312 254 237 q 359 554 312 387 m 378 626 q 408 656 385 656 l 437 657 q 470 644 460 657 q 472 611 479 632 l 319 98 q 398 182 358 126 q 430 191 411 202 l 460 170 q 467 138 480 157 q 370 43 415 76 q 266 -5 326 9 q 251 -3 257 -7 q 242 9 244 2 l 218 80 q 168 24 198 51 q 116 -4 138 -4 l 114 -4 q 82 11 104 -4 q 49 41 61 26 q 32 62 36 56 q 21 78 27 68 q 13 97 16 88 q 9 119 11 106 q 10 183 5 141 q 75 422 24 288 q 175 603 126 557 q 297 649 224 649 q 378 626 341 649 z "},"ä":{"ha":482,"x_min":5,"x_max":493,"o":"m 359 554 q 260 565 297 589 q 189 466 223 540 q 109 219 131 341 q 101 142 99 165 q 120 110 103 120 q 165 123 137 101 q 223 192 193 146 q 283 312 254 237 q 359 554 312 387 m 378 626 q 408 656 385 656 l 437 657 q 470 644 460 657 q 472 611 479 632 l 319 98 q 398 182 358 126 q 430 191 411 202 l 460 170 q 467 138 480 157 q 370 43 415 76 q 266 -5 326 9 q 251 -3 257 -7 q 242 9 244 2 l 218 80 q 168 24 198 51 q 116 -4 138 -4 l 114 -4 q 82 11 104 -4 q 49 41 61 26 q 32 62 36 56 q 21 78 27 68 q 13 97 16 88 q 9 119 11 106 q 10 183 5 141 q 75 422 24 288 q 175 603 126 557 q 297 649 224 649 q 378 626 341 649 m 417 744 q 378 762 394 744 q 361 806 361 781 q 379 850 361 832 q 423 869 397 869 l 435 869 q 474 849 456 869 q 493 805 493 830 q 474 762 493 780 q 427 744 455 744 l 417 744 m 212 744 q 172 762 189 744 q 155 806 155 781 q 173 850 155 832 q 218 869 192 869 l 230 869 q 269 849 251 869 q 287 805 287 830 q 268 762 287 780 q 222 744 249 744 l 212 744 z "},"å":{"ha":498,"x_min":5,"x_max":533,"o":"m 332 719 q 227 774 266 723 q 199 894 189 825 q 259 1010 210 963 q 378 1056 309 1056 q 490 1007 446 1056 q 524 893 533 957 q 484 789 515 830 q 332 719 428 714 m 391 986 q 374 990 391 986 q 327 971 358 994 q 284 906 297 948 q 285 828 271 864 q 332 786 299 793 q 395 801 365 779 q 439 865 425 822 q 438 944 453 909 q 391 986 424 979 m 359 554 q 260 565 297 589 q 189 466 223 540 q 109 219 131 341 q 101 142 99 165 q 120 110 103 120 q 165 123 137 101 q 223 192 193 146 q 283 312 254 237 q 359 554 312 387 m 378 626 q 408 656 385 656 l 437 657 q 470 644 460 657 q 472 611 479 632 l 319 98 q 398 182 358 126 q 430 191 411 202 l 460 170 q 467 138 480 157 q 370 43 415 76 q 266 -5 326 9 q 251 -3 257 -7 q 242 9 244 2 l 218 80 q 168 24 198 51 q 116 -4 138 -4 l 114 -4 q 82 11 104 -4 q 49 41 61 26 q 32 62 36 56 q 21 78 27 68 q 13 97 16 88 q 9 119 11 106 q 10 183 5 141 q 75 422 24 288 q 175 603 126 557 q 297 649 224 649 q 378 626 341 649 z "},"æ":{"ha":647,"x_min":-19,"x_max":651,"o":"m 352 259 q 534 413 486 314 q 558 510 558 463 q 528 558 558 558 q 464 528 497 558 q 408 445 430 498 q 352 259 373 360 m 336 175 q 340 103 327 128 q 376 73 353 78 q 492 169 423 91 q 518 172 504 181 l 542 157 q 554 143 550 152 q 554 128 557 134 q 464 30 530 82 q 358 -14 398 -23 q 253 72 272 6 q 168 -5 217 14 q 71 -5 118 -24 q -19 127 -19 34 q 28 266 -19 197 q 147 380 76 334 q 294 446 218 426 q 296 458 295 452 q 271 569 312 535 q 213 526 254 565 q 157 463 172 486 q 145 457 153 458 q 131 460 137 456 l 101 478 q 90 492 94 483 q 90 507 86 501 q 180 606 112 550 q 284 656 248 663 q 353 606 319 650 q 379 558 372 582 q 529 647 435 635 q 594 637 563 651 q 651 513 651 612 q 623 400 651 455 q 445 225 572 300 q 336 175 392 194 m 277 367 q 196 323 240 355 q 116 242 152 292 q 81 146 81 192 q 94 86 81 100 q 136 72 106 72 q 220 167 182 72 q 277 367 245 229 z "},"ç":{"ha":389,"x_min":-39,"x_max":436,"o":"m 126 -39 q 163 -49 126 -39 q 178 -85 185 -54 q 159 -136 170 -115 q 128 -177 148 -157 q -8 -224 86 -220 q -31 -207 -27 -224 l -34 -192 q -18 -166 -39 -167 q 64 -133 34 -162 q 94 -59 94 -105 q 106 -39 94 -43 q 126 -39 118 -34 m 184 613 q 197 625 184 613 q 240 648 210 637 q 296 656 269 659 q 349 636 323 652 q 411 586 386 614 q 421 540 436 557 l 399 515 q 360 509 377 493 q 345 524 358 511 q 323 546 332 538 q 273 565 296 569 q 176 467 227 557 q 102 282 125 378 q 91 122 79 187 q 115 94 93 107 q 147 83 137 81 q 234 160 187 105 q 252 171 244 172 q 274 163 260 171 l 294 150 q 305 129 309 142 q 236 45 294 93 q 152 -9 178 -3 q 75 10 126 -16 q 11 61 24 36 q -3 209 -15 121 q 37 379 8 297 q 93 501 66 461 q 140 565 121 542 q 184 613 158 589 z "},"è":{"ha":400,"x_min":-8,"x_max":545,"o":"m 427 888 q 467 866 453 888 l 540 748 q 540 730 545 737 q 523 723 535 723 l 503 723 q 465 741 483 723 l 351 860 q 345 880 342 873 q 359 888 348 888 l 427 888 m 110 260 q 287 413 240 317 q 311 510 311 463 q 283 558 311 558 q 179 464 223 558 q 110 260 136 370 m 93 176 q 95 101 84 122 q 128 73 105 79 q 245 169 176 91 q 271 172 257 181 l 295 157 q 306 143 302 152 q 306 128 309 134 q 216 30 282 82 q 110 -14 150 -23 q 4 81 19 8 q 8 237 -8 139 q 70 438 25 334 q 222 631 136 590 q 347 637 291 663 q 404 513 404 612 q 376 400 404 455 q 197 225 325 300 q 93 176 147 195 z "},"é":{"ha":398,"x_min":-8,"x_max":490,"o":"m 468 888 q 486 879 482 888 q 477 855 490 871 l 366 739 q 330 723 351 723 l 303 723 q 290 730 292 723 q 291 741 287 738 l 371 866 q 411 888 384 888 l 468 888 m 110 260 q 287 413 240 317 q 311 510 311 463 q 283 558 311 558 q 179 464 223 558 q 110 260 136 370 m 93 176 q 95 101 84 122 q 128 73 105 79 q 245 169 176 91 q 271 172 257 181 l 295 157 q 306 143 302 152 q 306 128 309 134 q 216 30 282 82 q 110 -14 150 -23 q 4 81 19 8 q 8 237 -8 139 q 70 438 25 334 q 222 631 136 590 q 347 637 291 663 q 404 513 404 612 q 376 400 404 455 q 197 225 325 300 q 93 176 147 195 z "},"ê":{"ha":398,"x_min":-8,"x_max":450,"o":"m 333 805 l 252 723 q 236 712 242 714 q 216 709 230 709 l 185 709 q 168 719 170 709 q 177 739 165 728 l 307 855 q 339 874 329 875 l 351 872 q 376 849 364 870 l 444 731 q 446 716 450 723 q 431 709 443 709 l 394 709 q 376 712 381 709 q 367 723 371 714 l 333 805 m 110 260 q 287 413 240 317 q 311 510 311 463 q 283 558 311 558 q 179 464 223 558 q 110 260 136 370 m 93 176 q 95 101 84 122 q 128 73 105 79 q 245 169 176 91 q 271 172 257 181 l 295 157 q 306 143 302 152 q 306 128 309 134 q 216 30 282 82 q 110 -14 150 -23 q 4 81 19 8 q 8 237 -8 139 q 70 438 25 334 q 222 631 136 590 q 347 637 291 663 q 404 513 404 612 q 376 400 404 455 q 197 225 325 300 q 93 176 147 195 z "},"ë":{"ha":398,"x_min":-8,"x_max":500,"o":"m 110 260 q 287 413 240 317 q 311 510 311 463 q 283 558 311 558 q 179 464 223 558 q 110 260 136 370 m 93 176 q 95 101 84 122 q 128 73 105 79 q 245 169 176 91 q 271 172 257 181 l 295 157 q 306 143 302 152 q 306 128 309 134 q 216 30 282 82 q 110 -14 150 -23 q 4 81 19 8 q 8 237 -8 139 q 70 438 25 334 q 222 631 136 590 q 347 637 291 663 q 404 513 404 612 q 376 400 404 455 q 197 225 325 300 q 93 176 147 195 m 425 744 q 385 762 402 744 q 368 806 368 781 q 386 850 368 832 q 431 869 405 869 l 442 869 q 482 849 463 869 q 500 805 500 830 q 481 762 500 780 q 435 744 462 744 l 425 744 m 219 744 q 180 762 197 744 q 163 806 163 781 q 181 850 163 832 q 225 869 199 869 l 237 869 q 277 849 259 869 q 295 805 295 830 q 276 762 295 780 q 229 744 257 744 l 219 744 z "},"ì":{"ha":245,"x_min":-16,"x_max":266,"o":"m 148 888 q 187 866 173 888 l 260 748 q 261 730 266 737 q 244 723 255 723 l 224 723 q 186 741 204 723 l 72 860 q 66 880 63 873 q 80 888 69 888 l 148 888 m 250 624 q 95 28 250 624 q 56 0 87 0 l 19 0 q -9 29 -16 0 q 147 626 -9 29 q 183 651 154 651 l 225 651 q 248 645 242 651 q 250 624 254 639 z "},"í":{"ha":239,"x_min":-24,"x_max":371,"o":"m 350 888 q 368 879 364 888 q 359 855 371 871 l 247 739 q 212 723 233 723 l 185 723 q 172 730 174 723 q 173 741 169 738 l 252 866 q 292 888 266 888 l 350 888 m 242 624 q 87 28 242 624 q 49 0 80 0 l 11 0 q -17 29 -24 0 q 140 626 -17 29 q 176 651 147 651 l 218 651 q 240 645 235 651 q 242 624 246 639 z "},"î":{"ha":239,"x_min":-24,"x_max":342,"o":"m 225 805 l 144 723 q 128 712 135 714 q 108 709 122 709 l 77 709 q 60 719 63 709 q 70 739 58 728 l 199 855 q 231 874 221 875 l 243 872 q 269 849 257 870 l 336 731 q 338 716 342 723 q 324 709 335 709 l 286 709 q 268 712 273 709 q 259 723 263 714 l 225 805 m 242 624 q 87 28 242 624 q 49 0 80 0 l 11 0 q -17 29 -24 0 q 140 626 -17 29 q 176 651 147 651 l 218 651 q 240 645 235 651 q 242 624 246 639 z "},"ï":{"ha":251,"x_min":-9,"x_max":368,"o":"m 292 744 q 253 762 270 744 q 236 806 236 781 q 254 850 236 832 q 299 868 272 868 l 311 868 q 350 849 332 868 q 368 805 368 830 q 349 762 368 780 q 302 744 330 744 l 292 744 m 122 744 q 82 762 100 744 q 65 806 65 781 q 83 850 65 832 q 128 868 101 868 l 140 868 q 179 849 161 868 q 197 805 197 830 q 178 762 197 780 q 132 744 160 744 l 122 744 m 257 624 l 101 28 q 63 0 94 0 l 26 0 q -3 29 -9 0 l 154 626 q 190 651 161 651 l 232 651 q 255 645 249 651 q 257 624 260 639 z "},"ð":{"ha":425,"x_min":0,"x_max":514,"o":"m 318 441 q 318 508 320 480 q 268 568 315 568 q 215 540 239 568 q 169 465 192 513 q 108 199 112 344 q 148 80 105 81 q 222 135 187 78 q 318 441 307 272 m 314 658 q 288 777 306 721 l 177 754 q 148 768 155 750 l 132 804 q 141 828 125 824 l 262 853 q 225 944 246 896 q 227 966 220 957 q 249 974 234 974 l 308 974 q 345 942 335 974 q 366 875 360 895 l 467 895 q 492 884 484 898 l 509 852 q 510 832 514 841 q 498 821 507 823 l 386 798 q 416 450 429 618 q 312 104 406 269 q 231 18 279 47 q 135 -10 183 -12 q 58 20 86 -8 q 3 178 0 78 q 27 353 7 277 q 75 483 46 428 q 122 564 103 538 q 167 614 142 590 q 294 662 224 668 q 314 658 305 661 z "},"ñ":{"ha":542,"x_min":-13,"x_max":567,"o":"m 165 784 q 173 808 165 784 q 193 834 178 828 q 269 846 219 847 q 364 830 319 846 q 447 815 410 815 q 517 824 484 815 q 559 827 550 833 q 563 803 567 820 l 555 772 q 545 750 552 757 q 522 739 538 743 q 363 741 436 714 q 192 750 268 774 q 166 751 173 743 q 165 784 159 760 m 425 516 q 425 522 425 516 q 416 527 425 527 q 395 515 408 527 q 362 473 383 503 q 302 380 336 435 q 216 245 268 326 q 98 55 120 96 q 73 12 75 15 q 70 8 71 9 q 66 4 68 6 q 62 2 64 3 q 59 1 60 1 q 55 0 57 0 q 18 0 33 0 q -4 33 -13 0 l 152 618 q 160 643 155 636 q 177 651 165 651 l 230 651 q 250 644 246 651 q 250 614 255 636 l 154 291 l 287 512 q 374 616 329 581 q 451 651 420 651 l 478 651 q 522 541 549 651 l 378 18 q 358 0 374 0 l 291 0 q 281 31 276 0 l 416 471 q 425 516 425 505 z "},"ò":{"ha":430,"x_min":2,"x_max":518,"o":"m 400 888 q 440 866 426 888 l 513 748 q 513 730 518 737 q 497 723 508 723 l 476 723 q 438 741 456 723 l 324 860 q 318 880 315 873 q 332 888 321 888 l 400 888 m 222 135 q 314 441 310 274 q 307 542 316 517 q 268 569 297 568 q 216 542 239 570 q 170 468 192 514 q 108 199 112 348 q 148 80 105 83 q 222 135 185 78 m 4 186 q 75 483 10 359 q 121 563 103 539 q 165 612 140 588 q 294 662 219 663 q 394 597 358 659 q 417 457 420 555 q 384 266 413 359 q 317 110 354 172 q 128 -10 243 -14 q 53 26 86 -8 q 16 89 30 47 q 4 186 2 130 z "},"ó":{"ha":430,"x_min":2,"x_max":472,"o":"m 450 888 q 468 879 464 888 q 459 855 472 871 l 348 739 q 312 723 333 723 l 285 723 q 272 730 274 723 q 273 741 269 738 l 353 866 q 393 888 366 888 l 450 888 m 222 135 q 314 441 310 274 q 307 542 316 517 q 268 569 297 568 q 216 542 239 570 q 170 468 192 514 q 108 199 112 348 q 148 80 105 83 q 222 135 185 78 m 4 186 q 75 483 10 359 q 121 563 103 539 q 165 612 140 588 q 294 662 219 663 q 394 597 358 659 q 417 457 420 555 q 384 266 413 359 q 317 110 354 172 q 128 -10 243 -14 q 53 26 86 -8 q 16 89 30 47 q 4 186 2 130 z "},"ô":{"ha":430,"x_min":2,"x_max":436,"o":"m 319 799 l 239 717 q 223 705 229 708 q 203 703 217 703 l 172 703 q 155 713 157 703 q 164 733 152 722 l 294 849 q 326 867 316 869 l 338 866 q 363 843 351 864 l 431 725 q 433 710 436 716 q 418 703 430 703 l 381 703 q 363 706 368 703 q 354 717 358 708 l 319 799 m 222 135 q 314 441 310 274 q 307 542 316 517 q 268 569 297 568 q 216 542 239 570 q 170 468 192 514 q 108 199 112 348 q 148 80 105 83 q 222 135 185 78 m 4 186 q 75 483 10 359 q 121 563 103 539 q 165 612 140 588 q 294 662 219 663 q 394 597 358 659 q 417 457 420 555 q 384 266 413 359 q 317 110 354 172 q 128 -10 243 -14 q 53 26 86 -8 q 16 89 30 47 q 4 186 2 130 z "},"õ":{"ha":430,"x_min":2,"x_max":487,"o":"m 123 792 q 128 812 124 806 q 155 832 132 818 q 209 845 178 845 q 302 825 240 845 q 383 802 350 802 q 427 805 415 802 q 456 818 439 809 q 480 822 473 827 q 483 798 487 816 l 476 763 q 449 733 472 747 q 381 719 425 719 q 282 743 333 719 q 264 750 270 748 l 249 755 q 208 760 232 760 q 158 747 183 760 q 126 740 133 735 q 122 765 120 745 l 123 792 m 222 135 q 314 441 310 274 q 307 542 316 517 q 268 569 297 568 q 216 542 239 570 q 170 468 192 514 q 108 199 112 348 q 148 80 105 83 q 222 135 185 78 m 4 186 q 75 483 10 359 q 121 563 103 539 q 165 612 140 588 q 294 662 219 663 q 394 597 358 659 q 417 457 420 555 q 384 266 413 359 q 317 110 354 172 q 128 -10 243 -14 q 53 26 86 -8 q 16 89 30 47 q 4 186 2 130 z "},"ö":{"ha":430,"x_min":2,"x_max":480,"o":"m 222 135 q 314 441 310 274 q 307 542 316 517 q 268 569 297 568 q 216 542 239 570 q 170 468 192 514 q 108 199 112 348 q 148 80 105 83 q 222 135 185 78 m 4 186 q 75 483 10 359 q 121 563 103 539 q 165 612 140 588 q 294 662 219 663 q 394 597 358 659 q 417 457 420 555 q 384 266 413 359 q 317 110 354 172 q 128 -10 243 -14 q 53 26 86 -8 q 16 89 30 47 q 4 186 2 130 m 404 744 q 364 762 381 744 q 348 806 348 781 q 366 850 348 832 q 410 869 384 869 l 421 869 q 461 849 443 869 q 480 805 480 830 q 461 762 480 780 q 414 744 441 744 l 404 744 m 199 744 q 159 762 176 744 q 142 806 142 781 q 160 850 142 832 q 205 869 178 869 l 217 869 q 256 849 238 869 q 274 805 274 830 q 255 762 274 780 q 209 744 236 744 l 199 744 z "},"÷":{"ha":614,"x_min":4,"x_max":627,"o":"m 39 488 q 603 488 39 488 q 620 481 613 488 q 625 459 627 474 l 618 427 q 585 400 612 400 l 33 400 q 11 430 4 400 l 22 475 q 39 488 25 488 m 354 621 q 310 642 329 621 q 291 694 291 663 q 311 745 291 724 q 362 766 331 766 l 376 766 q 420 744 400 766 q 440 691 440 721 q 420 641 440 661 q 367 621 399 621 l 354 621 m 225 64 q 180 85 199 64 q 162 137 162 106 q 181 188 162 167 q 232 209 201 209 l 246 209 q 291 187 271 209 q 311 135 311 165 q 290 84 311 105 q 237 64 269 64 l 225 64 z "},"ø":{"ha":440,"x_min":-132,"x_max":575,"o":"m 554 600 q 426 482 554 600 q 395 271 426 369 q 327 110 364 172 q 138 -10 253 -14 q 69 19 96 -8 q 20 112 33 55 l -46 51 q -92 37 -78 23 l -110 58 q -123 75 -120 69 q -108 115 -132 92 l 17 230 q 99 509 29 376 q 304 662 178 664 q 409 589 374 658 l 482 657 q 504 669 495 668 q 529 659 513 671 l 545 645 q 554 600 575 617 m 232 135 q 321 388 306 250 l 118 203 q 158 80 113 83 q 232 135 195 77 m 323 510 q 317 542 321 531 q 278 569 307 568 q 226 542 249 570 q 180 468 204 515 q 136 339 154 414 l 323 510 z "},"ù":{"ha":518,"x_min":-10,"x_max":526,"o":"m 403 888 q 442 866 428 888 l 515 748 q 516 730 521 737 q 499 723 510 723 l 478 723 q 441 741 459 723 l 327 860 q 321 880 317 873 q 334 888 324 888 l 403 888 m 357 337 l 240 140 q 157 34 199 69 q 82 0 115 0 l 75 0 q 13 44 35 0 q 9 157 -10 87 l 140 634 q 160 651 143 651 l 227 651 q 238 644 234 651 q 237 621 242 636 l 108 176 q 111 121 95 123 q 175 188 130 120 q 326 447 220 255 q 434 642 431 639 q 439 647 437 646 q 445 650 441 649 q 450 651 449 651 l 508 651 q 521 642 515 651 q 522 618 526 632 l 367 33 q 358 8 364 16 q 341 0 353 0 l 289 0 q 268 8 272 0 q 268 37 263 15 l 357 337 z "},"ú":{"ha":518,"x_min":-10,"x_max":526,"o":"m 470 888 q 487 879 483 888 q 478 855 491 871 l 367 739 q 331 723 353 723 l 304 723 q 291 730 294 723 q 292 741 289 738 l 372 866 q 412 888 386 888 l 470 888 m 357 337 l 240 140 q 157 34 199 69 q 82 0 115 0 l 75 0 q 13 44 35 0 q 9 157 -10 87 l 140 634 q 160 651 143 651 l 227 651 q 238 644 234 651 q 237 621 242 636 l 108 176 q 111 121 95 123 q 175 188 130 120 q 326 447 220 255 q 434 642 431 639 q 439 647 437 646 q 445 650 441 649 q 450 651 449 651 l 508 651 q 521 642 515 651 q 522 618 526 632 l 367 33 q 358 8 364 16 q 341 0 353 0 l 289 0 q 268 8 272 0 q 268 37 263 15 l 357 337 z "},"û":{"ha":518,"x_min":-10,"x_max":526,"o":"m 341 800 l 260 718 q 245 707 251 709 q 225 704 239 704 l 193 704 q 177 714 179 704 q 186 734 174 723 l 316 850 q 348 869 338 870 l 359 867 q 385 844 373 865 l 453 726 q 455 711 458 718 q 440 704 451 704 l 403 704 q 384 707 389 704 q 376 718 379 709 l 341 800 m 357 337 l 240 140 q 157 34 199 69 q 82 0 115 0 l 75 0 q 13 44 35 0 q 9 157 -10 87 l 140 634 q 160 651 143 651 l 227 651 q 238 644 234 651 q 237 621 242 636 l 108 176 q 111 121 95 123 q 175 188 130 120 q 326 447 220 255 q 434 642 431 639 q 439 647 437 646 q 445 650 441 649 q 450 651 449 651 l 508 651 q 521 642 515 651 q 522 618 526 632 l 367 33 q 358 8 364 16 q 341 0 353 0 l 289 0 q 268 8 272 0 q 268 37 263 15 l 357 337 z "},"ü":{"ha":523,"x_min":-10,"x_max":526,"o":"m 357 337 l 240 140 q 157 34 199 69 q 82 0 115 0 l 75 0 q 13 44 35 0 q 9 157 -10 87 l 140 634 q 160 651 143 651 l 227 651 q 238 644 234 651 q 237 621 242 636 l 108 176 q 111 121 95 123 q 175 188 130 120 q 326 447 220 255 q 434 642 431 639 q 439 647 437 646 q 445 650 441 649 q 450 651 449 651 l 508 651 q 521 642 515 651 q 522 618 526 632 l 367 33 q 358 8 364 16 q 341 0 353 0 l 289 0 q 268 8 272 0 q 268 37 263 15 l 357 337 m 441 744 q 402 762 419 744 q 385 806 385 781 q 403 850 385 832 q 448 869 421 869 l 459 869 q 499 849 480 869 q 517 805 517 830 q 498 762 517 780 q 451 744 479 744 l 441 744 m 236 744 q 197 762 214 744 q 180 806 180 781 q 198 850 180 832 q 242 869 216 869 l 254 869 q 294 849 276 869 q 312 805 312 830 q 293 762 312 780 q 246 744 274 744 l 236 744 z "},"ý":{"ha":527,"x_min":-26,"x_max":535,"o":"m 481 888 q 498 879 495 888 q 490 855 502 871 l 378 739 q 343 723 364 723 l 316 723 q 302 730 305 723 q 304 741 300 738 l 383 866 q 423 888 397 888 l 481 888 m 461 651 l 517 651 q 529 642 524 651 q 531 618 535 632 q 415 193 483 438 q 337 -85 346 -51 q 301 -161 328 -119 q 232 -225 272 -205 q 197 -242 209 -239 q 124 -222 171 -249 l -6 -148 q -25 -125 -23 -140 q -17 -101 -26 -110 l 3 -75 q 23 -60 14 -63 q 44 -64 31 -58 l 187 -152 q 211 -150 199 -158 q 229 -116 222 -142 l 354 323 l 324 267 l 249 140 q 165 34 207 69 q 91 0 123 0 l 83 0 q 38 19 56 0 q 18 157 -6 69 l 148 634 q 169 651 153 651 l 236 651 q 246 621 252 651 l 116 176 q 120 122 103 124 q 184 188 140 120 q 334 447 229 255 q 443 642 440 639 q 448 647 446 646 q 461 651 452 651 z "},"þ":{"ha":469,"x_min":-78,"x_max":461,"o":"m 323 944 q 212 508 323 944 l 230 539 q 291 615 257 583 q 348 647 326 647 l 350 647 q 382 633 360 647 q 424 593 404 618 q 453 542 445 569 q 451 435 461 516 q 389 219 440 354 q 290 40 339 85 q 167 -5 241 -5 q 86 18 123 -5 l 23 -229 q -16 -257 16 -257 l -41 -257 q -70 -245 -62 -257 q -75 -215 -78 -233 l 223 945 q 262 973 230 973 l 295 973 q 323 944 330 973 m 105 90 q 205 79 168 54 q 276 178 242 104 q 355 425 333 303 q 363 501 365 478 q 344 534 361 524 q 299 520 327 543 q 241 452 271 498 q 181 331 210 406 q 109 101 151 255 l 105 90 z "},"ÿ":{"ha":520,"x_min":-33,"x_max":529,"o":"m 444 744 q 405 762 421 744 q 388 806 388 781 q 406 850 388 832 q 450 869 424 869 l 462 869 q 501 849 483 869 q 520 805 520 830 q 501 762 520 780 q 454 744 482 744 l 444 744 m 239 744 q 199 762 216 744 q 182 806 182 781 q 200 850 182 832 q 245 869 219 869 l 257 869 q 296 849 278 869 q 314 805 314 830 q 295 762 314 780 q 249 744 276 744 l 239 744 m 455 651 l 510 651 q 523 642 518 651 q 525 618 529 632 q 408 193 477 438 q 331 -85 339 -51 q 294 -161 322 -119 q 226 -225 266 -205 q 190 -242 202 -239 q 118 -222 165 -249 l -13 -148 q -31 -125 -29 -140 q -23 -101 -33 -110 l -4 -75 q 16 -60 8 -63 q 38 -64 25 -58 l 181 -152 q 204 -150 193 -158 q 223 -116 216 -142 l 348 323 l 318 267 l 242 140 q 159 34 201 69 q 85 0 117 0 l 77 0 q 32 19 50 0 q 11 157 -13 69 l 142 634 q 163 651 147 651 l 230 651 q 240 621 245 651 l 110 176 q 114 122 97 124 q 178 188 133 120 q 328 447 223 255 q 436 642 433 639 q 442 647 440 646 q 455 651 446 651 z "},"Ā":{"ha":590,"x_min":-81,"x_max":736,"o":"m 269 1111 q 719 1111 269 1111 q 732 1106 729 1111 q 727 1069 736 1100 q 700 1038 718 1038 l 259 1038 q 237 1048 239 1038 q 240 1062 237 1052 q 244 1075 243 1071 l 250 1096 q 269 1111 254 1111 m 156 278 l 32 26 q -16 0 18 -3 l -45 3 q -75 19 -68 3 q -72 51 -81 36 l 355 875 q 426 926 382 926 l 477 927 q 513 912 500 927 q 525 865 527 896 l 480 28 q 441 0 478 0 l 398 1 q 368 36 366 1 l 384 278 l 156 278 m 202 371 l 391 371 l 420 817 l 202 371 z "},"ā":{"ha":482,"x_min":5,"x_max":610,"o":"m 143 876 q 594 876 143 876 q 606 871 603 876 q 601 833 610 864 q 574 803 592 803 l 133 803 q 111 812 113 803 q 114 826 111 817 q 118 839 117 836 l 124 861 q 143 876 128 876 m 359 554 q 260 565 297 589 q 189 466 223 540 q 109 219 131 341 q 101 142 99 165 q 120 110 103 120 q 165 123 137 101 q 223 192 193 146 q 283 312 254 237 q 359 554 312 387 m 378 626 q 408 656 385 656 l 437 657 q 470 644 460 657 q 472 611 479 632 l 319 98 q 398 182 358 126 q 430 191 411 202 l 460 170 q 467 138 480 157 q 370 43 415 76 q 266 -5 326 9 q 251 -3 257 -7 q 242 9 244 2 l 218 80 q 168 24 198 51 q 116 -4 138 -4 l 114 -4 q 82 11 104 -4 q 49 41 61 26 q 32 62 36 56 q 21 78 27 68 q 13 97 16 88 q 9 119 11 106 q 10 183 5 141 q 75 422 24 288 q 175 603 126 557 q 297 649 224 649 q 378 626 341 649 z "},"Ă":{"ha":590,"x_min":-81,"x_max":679,"o":"m 569 1151 q 574 1187 574 1168 q 598 1205 574 1206 q 604 1204 604 1204 l 659 1204 q 678 1189 679 1204 q 608 1066 670 1118 q 450 1014 545 1014 q 289 1060 354 1014 q 224 1177 224 1106 q 224 1185 224 1182 q 224 1192 224 1189 q 225 1196 225 1195 q 242 1203 230 1203 l 292 1203 q 299 1203 294 1203 q 309 1202 305 1203 q 318 1199 312 1202 q 326 1170 327 1195 q 453 1076 318 1076 q 569 1151 549 1076 m 156 278 l 32 26 q -16 0 18 -3 l -45 3 q -75 19 -68 3 q -72 51 -81 36 l 355 875 q 426 926 382 926 l 477 927 q 513 912 500 927 q 525 865 527 896 l 480 28 q 441 0 478 0 l 398 1 q 368 36 366 1 l 384 278 l 156 278 m 202 371 l 391 371 l 420 817 l 202 371 z "},"ă":{"ha":482,"x_min":5,"x_max":554,"o":"m 443 915 q 448 951 448 932 q 472 969 448 971 q 478 969 478 969 l 534 969 q 552 953 554 969 q 482 831 544 882 q 324 779 420 779 q 163 825 228 779 q 98 942 98 871 q 98 950 98 947 q 99 956 98 953 q 100 961 99 959 q 116 967 105 967 l 167 967 q 173 967 168 967 q 183 967 179 967 q 192 964 187 966 q 200 935 201 959 q 327 840 192 840 q 443 915 423 840 m 359 554 q 260 565 297 589 q 189 466 223 540 q 109 219 131 341 q 101 142 99 165 q 120 110 103 120 q 165 123 137 101 q 223 192 193 146 q 283 312 254 237 q 359 554 312 387 m 378 626 q 408 656 385 656 l 437 657 q 470 644 460 657 q 472 611 479 632 l 319 98 q 398 182 358 126 q 430 191 411 202 l 460 170 q 467 138 480 157 q 370 43 415 76 q 266 -5 326 9 q 251 -3 257 -7 q 242 9 244 2 l 218 80 q 168 24 198 51 q 116 -4 138 -4 l 114 -4 q 82 11 104 -4 q 49 41 61 26 q 32 62 36 56 q 21 78 27 68 q 13 97 16 88 q 9 119 11 106 q 10 183 5 141 q 75 422 24 288 q 175 603 126 557 q 297 649 224 649 q 378 626 341 649 z "},"Ą":{"ha":590,"x_min":-81,"x_max":527,"o":"m 438 43 q 454 27 438 43 q 450 -1 475 6 q 370 -54 396 -21 q 346 -108 344 -87 q 419 -140 349 -163 q 443 -157 435 -133 l 449 -175 q 432 -204 456 -195 q 353 -219 391 -219 q 288 -196 316 -219 q 260 -140 260 -173 q 271 -80 259 -106 q 302 -34 283 -53 q 344 1 320 -14 q 438 43 390 31 m 156 278 l 32 26 q -16 0 18 -3 l -45 3 q -75 19 -68 3 q -72 51 -81 36 l 355 875 q 426 926 382 926 l 477 927 q 513 912 500 927 q 525 865 527 896 l 480 28 q 441 0 478 0 l 398 1 q 368 36 366 1 l 384 278 l 156 278 m 202 371 l 391 371 l 420 817 l 202 371 z "},"ą":{"ha":537,"x_min":6,"x_max":485,"o":"m 264 41 q 280 24 264 41 q 276 -4 301 4 q 196 -57 222 -24 q 172 -110 170 -90 q 245 -142 175 -166 q 269 -159 261 -136 l 275 -177 q 258 -207 282 -197 q 179 -222 217 -222 q 114 -199 142 -222 q 85 -142 86 -176 q 97 -82 85 -109 q 127 -36 109 -56 q 170 -1 146 -17 q 264 41 216 29 m 358 554 q 259 565 296 589 q 188 465 222 540 q 109 217 131 338 q 108 139 101 169 q 133 109 116 109 q 199 161 157 109 q 278 303 242 214 q 358 554 313 392 m 377 626 q 413 656 386 654 l 443 657 q 471 611 485 657 l 299 36 q 271 0 289 0 l 235 0 q 216 10 222 0 q 213 33 210 20 l 226 93 q 177 33 211 70 q 115 -4 142 -4 l 113 -4 q 84 8 103 -4 q 47 41 66 20 q 17 102 28 62 q 10 183 6 142 q 74 424 23 291 q 173 603 125 557 q 296 649 222 649 q 377 626 339 649 z "},"Ć":{"ha":542,"x_min":3,"x_max":587,"o":"m 565 1175 q 583 1166 579 1175 q 574 1142 587 1158 l 463 1026 q 427 1010 448 1010 l 400 1010 q 387 1017 389 1010 q 388 1028 384 1024 l 468 1153 q 508 1175 482 1175 l 565 1175 m 492 909 q 543 832 522 888 q 568 735 565 776 q 571 687 570 694 q 545 662 572 670 l 509 651 q 483 658 497 648 q 468 686 469 669 q 425 826 458 785 q 387 832 408 832 q 261 744 324 835 q 153 493 198 652 q 128 164 94 292 q 185 83 147 93 q 340 222 279 91 q 345 233 342 225 q 350 242 349 240 q 354 250 351 244 q 358 256 357 255 q 362 260 359 257 q 367 263 364 263 q 372 264 369 263 q 378 264 374 265 q 386 261 381 262 q 395 258 390 260 l 436 241 q 448 221 448 237 q 440 190 448 206 q 322 35 379 81 q 181 -10 266 -10 q 99 17 142 -10 q 16 201 29 59 q 48 519 3 342 q 131 732 76 636 q 260 883 187 827 q 408 939 333 939 q 450 930 423 939 q 492 909 477 921 z "},"ć":{"ha":378,"x_min":-19,"x_max":468,"o":"m 447 895 q 465 887 461 895 q 456 863 468 879 l 344 746 q 309 731 330 731 l 282 731 q 269 738 271 731 q 270 749 266 745 l 349 874 q 389 895 363 895 l 447 895 m 181 613 q 194 625 181 613 q 236 648 207 637 q 292 656 265 659 q 346 636 319 652 q 407 586 382 614 q 417 540 432 557 l 395 515 q 356 509 373 493 q 341 524 354 511 q 319 546 328 538 q 269 565 292 569 q 173 467 224 557 q 98 282 121 378 q 87 122 75 187 q 111 94 90 107 q 143 83 133 81 q 230 160 183 105 q 249 171 240 172 q 271 163 257 171 l 290 150 q 301 129 305 142 q 232 45 291 93 q 148 -9 174 -3 q 71 10 123 -16 q 8 61 20 36 q -7 209 -19 121 q 33 379 4 297 q 90 501 62 461 q 136 565 117 542 q 181 613 155 589 z "},"Č":{"ha":562,"x_min":3,"x_max":593,"o":"m 426 1098 l 507 1180 q 522 1191 516 1189 q 543 1194 529 1194 l 574 1194 q 590 1184 588 1194 q 581 1164 593 1175 l 451 1048 q 420 1029 430 1028 l 408 1031 q 383 1054 394 1033 l 314 1172 q 312 1187 309 1180 q 327 1194 316 1194 l 364 1194 q 383 1191 378 1194 q 391 1180 388 1189 l 426 1098 m 492 909 q 543 832 522 888 q 568 735 565 776 q 571 687 570 694 q 545 662 572 670 l 509 651 q 483 658 497 648 q 468 686 469 669 q 425 826 458 785 q 387 832 408 832 q 261 744 324 835 q 153 493 198 652 q 128 164 94 292 q 185 83 147 93 q 340 222 279 91 q 345 233 342 225 q 350 242 349 240 q 354 250 351 244 q 358 256 357 255 q 362 260 359 257 q 367 263 364 263 q 372 264 369 263 q 378 264 374 265 q 386 261 381 262 q 395 258 390 260 l 436 241 q 448 221 448 237 q 440 190 448 206 q 322 35 379 81 q 181 -10 266 -10 q 99 17 142 -10 q 16 201 29 59 q 48 519 3 342 q 131 732 76 636 q 260 883 187 827 q 408 939 333 939 q 450 930 423 939 q 492 909 477 921 z "},"č":{"ha":386,"x_min":-19,"x_max":485,"o":"m 318 771 l 399 853 q 415 864 408 862 q 435 867 421 867 l 466 867 q 483 857 480 867 q 473 837 485 848 l 344 721 q 312 703 322 701 l 300 704 q 275 727 287 706 l 207 845 q 204 860 201 853 q 219 867 208 867 l 257 867 q 275 864 270 867 q 284 853 280 862 l 318 771 m 181 613 q 194 625 181 613 q 236 648 207 637 q 292 656 265 659 q 346 636 319 652 q 407 586 382 614 q 417 540 432 557 l 395 515 q 356 509 373 493 q 341 524 354 511 q 319 546 328 538 q 269 565 292 569 q 173 467 224 557 q 98 282 121 378 q 87 122 75 187 q 111 94 90 107 q 143 83 133 81 q 230 160 183 105 q 249 171 240 172 q 271 163 257 171 l 290 150 q 301 129 305 142 q 232 45 291 93 q 148 -9 174 -3 q 71 10 123 -16 q 8 61 20 36 q -7 209 -19 121 q 33 379 4 297 q 90 501 62 461 q 136 565 117 542 q 181 613 155 589 z "},"Ď":{"ha":537,"x_min":-18,"x_max":553,"o":"m 301 1098 l 381 1180 q 397 1191 391 1189 q 418 1194 403 1194 l 448 1194 q 465 1184 463 1194 q 456 1164 468 1175 l 326 1048 q 294 1029 304 1028 l 282 1031 q 257 1054 269 1033 l 189 1172 q 187 1187 183 1180 q 202 1194 190 1194 l 239 1194 q 257 1191 252 1194 q 266 1180 262 1189 l 301 1098 m 294 848 q 99 86 294 848 q 158 85 110 85 q 307 178 239 85 q 418 431 376 271 q 426 761 477 656 q 409 794 420 776 q 294 848 378 845 m 188 845 l 122 837 q 101 867 98 837 l 106 903 q 128 927 110 923 q 274 937 180 937 q 473 867 406 937 q 545 662 540 796 q 465 268 553 479 q 336 70 410 137 q 137 -5 254 -5 q 34 0 68 -5 q -9 20 -1 5 q -10 64 -18 34 l 188 845 z "},"ď":{"ha":761,"x_min":5,"x_max":786,"o":"m 786 1031 q 694 743 786 899 q 629 688 663 688 q 614 704 614 688 q 635 775 614 720 q 658 859 655 830 q 669 939 661 888 q 677 1010 677 989 q 683 1036 677 1030 q 704 1046 690 1043 l 755 1057 q 786 1031 786 1063 m 564 944 q 321 98 564 944 q 398 182 358 126 q 430 191 411 202 l 460 170 q 467 138 480 157 q 370 43 415 76 q 266 -5 326 9 q 251 -3 257 -7 q 242 9 244 2 l 218 80 q 168 24 198 51 q 116 -4 138 -4 l 114 -4 q 49 39 89 -4 q 8 130 9 81 q 64 392 5 229 q 174 602 123 556 q 297 649 225 649 q 378 626 341 649 l 464 945 q 503 973 472 973 l 536 973 q 564 944 573 973 m 359 554 q 255 562 297 589 q 130 304 191 518 q 113 116 87 150 q 150 113 127 98 q 258 256 210 152 q 359 554 306 361 z "},"Đ":{"ha":592,"x_min":-21,"x_max":553,"o":"m 188 845 l 122 837 q 101 867 98 837 l 106 903 q 128 927 110 923 q 274 937 180 937 q 473 867 406 937 q 545 662 540 796 q 465 268 553 479 q 336 70 410 137 q 137 -5 254 -5 q 34 0 68 -5 q -9 20 -1 5 q -10 64 -18 34 l 90 456 l 9 456 q -14 486 -21 456 l -3 531 q 14 545 1 545 l 112 545 l 188 845 m 294 848 l 216 545 l 332 545 q 351 537 345 545 q 354 515 357 529 l 348 483 q 314 456 342 456 l 193 456 l 99 86 q 158 85 110 85 q 307 178 239 85 q 418 431 376 271 q 426 761 477 656 q 409 794 420 776 q 294 848 378 845 z "},"đ":{"ha":497,"x_min":5,"x_max":627,"o":"m 282 837 q 603 837 282 837 q 621 829 615 837 q 624 808 627 820 l 618 776 q 585 749 613 749 l 277 749 q 254 778 247 749 l 266 823 q 282 837 269 837 m 564 944 q 321 98 564 944 q 398 182 358 126 q 430 191 411 202 l 460 170 q 467 138 480 157 q 370 43 415 76 q 266 -5 326 9 q 251 -3 257 -7 q 242 9 244 2 l 218 80 q 168 24 198 51 q 116 -4 138 -4 l 114 -4 q 49 39 89 -4 q 8 130 9 81 q 64 392 5 229 q 174 602 123 556 q 297 649 225 649 q 378 626 341 649 l 464 945 q 503 973 472 973 l 536 973 q 564 944 573 973 m 359 554 q 255 562 297 589 q 130 304 191 518 q 113 116 87 150 q 150 113 127 98 q 258 256 210 152 q 359 554 306 361 z "},"Ē":{"ha":512,"x_min":-14,"x_max":687,"o":"m 220 1111 q 671 1111 220 1111 q 683 1106 680 1111 q 678 1069 687 1100 q 651 1038 669 1038 l 210 1038 q 188 1048 190 1038 q 191 1062 188 1052 q 195 1075 194 1071 l 201 1096 q 220 1111 205 1111 m 323 0 q 16 0 323 0 q -7 12 0 0 q -10 39 -14 23 l 193 840 l 142 840 q 118 846 123 840 q 119 874 114 852 l 127 903 q 138 924 131 920 q 162 929 144 929 l 580 929 q 603 922 598 929 q 604 897 609 915 l 595 864 q 563 840 589 840 l 298 840 l 224 547 l 450 547 q 467 539 462 547 q 468 518 472 530 l 459 486 q 421 459 453 459 l 201 459 l 106 88 l 353 88 q 369 80 364 88 q 371 59 374 71 l 362 27 q 323 0 356 0 z "},"ē":{"ha":400,"x_min":-8,"x_max":622,"o":"m 155 850 q 606 850 155 850 q 618 845 615 850 q 613 808 622 838 q 586 777 604 777 l 145 777 q 123 786 125 777 q 126 801 123 791 q 130 813 129 810 l 136 835 q 155 850 140 850 m 110 260 q 287 413 240 317 q 311 510 311 463 q 283 558 311 558 q 179 464 223 558 q 110 260 136 370 m 93 176 q 95 101 84 122 q 128 73 105 79 q 245 169 176 91 q 271 172 257 181 l 295 157 q 306 143 302 152 q 306 128 309 134 q 216 30 282 82 q 110 -14 150 -23 q 4 81 19 8 q 8 237 -8 139 q 70 438 25 334 q 222 631 136 590 q 347 637 291 663 q 404 513 404 612 q 376 400 404 455 q 197 225 325 300 q 93 176 147 195 z "},"Ė":{"ha":512,"x_min":-14,"x_max":609,"o":"m 435 1053 q 395 1071 412 1053 q 378 1115 378 1090 q 396 1159 378 1140 q 441 1177 415 1177 l 453 1177 q 492 1158 474 1177 q 510 1114 510 1138 q 491 1071 510 1089 q 445 1053 472 1053 l 435 1053 m 323 0 q 16 0 323 0 q -7 12 0 0 q -10 39 -14 23 l 193 840 l 142 840 q 118 846 123 840 q 119 874 114 852 l 127 903 q 138 924 131 920 q 162 929 144 929 l 580 929 q 603 922 598 929 q 604 897 609 915 l 595 864 q 563 840 589 840 l 298 840 l 224 547 l 450 547 q 467 539 462 547 q 468 518 472 530 l 459 486 q 421 459 453 459 l 201 459 l 106 88 l 353 88 q 369 80 364 88 q 371 59 374 71 l 362 27 q 323 0 356 0 z "},"ė":{"ha":400,"x_min":-8,"x_max":417,"o":"m 341 759 q 302 777 319 759 q 285 821 285 796 q 303 865 285 847 q 348 884 321 884 l 359 884 q 399 864 381 884 q 417 820 417 845 q 398 777 417 795 q 351 759 379 759 l 341 759 m 110 260 q 287 413 240 317 q 311 510 311 463 q 283 558 311 558 q 179 464 223 558 q 110 260 136 370 m 93 176 q 95 101 84 122 q 128 73 105 79 q 245 169 176 91 q 271 172 257 181 l 295 157 q 306 143 302 152 q 306 128 309 134 q 216 30 282 82 q 110 -14 150 -23 q 4 81 19 8 q 8 237 -8 139 q 70 438 25 334 q 222 631 136 590 q 347 637 291 663 q 404 513 404 612 q 376 400 404 455 q 197 225 325 300 q 93 176 147 195 z "},"Ę":{"ha":512,"x_min":-14,"x_max":609,"o":"m 317 43 q 333 27 317 43 q 329 -1 353 6 q 249 -54 275 -21 q 224 -108 223 -87 q 297 -140 227 -163 q 322 -157 314 -133 l 327 -175 q 311 -204 334 -195 q 232 -219 270 -219 q 166 -196 194 -219 q 138 -140 138 -173 q 150 -80 138 -106 q 180 -34 162 -53 q 223 1 199 -14 q 317 43 269 31 m 323 0 q 16 0 323 0 q -7 12 0 0 q -10 39 -14 23 l 193 840 l 142 840 q 118 846 123 840 q 119 874 114 852 l 127 903 q 138 924 131 920 q 162 929 144 929 l 580 929 q 603 922 598 929 q 604 897 609 915 l 595 864 q 563 840 589 840 l 298 840 l 224 547 l 450 547 q 467 539 462 547 q 468 518 472 530 l 459 486 q 421 459 453 459 l 201 459 l 106 88 l 353 88 q 369 80 364 88 q 371 59 374 71 l 362 27 q 323 0 356 0 z "},"ę":{"ha":400,"x_min":-13,"x_max":404,"o":"m 110 260 q 287 413 240 317 q 311 510 311 463 q 283 558 311 558 q 179 464 223 558 q 110 260 136 370 m -11 -135 q 68 0 -13 -55 q 4 83 16 26 q 8 237 -8 139 q 70 438 25 334 q 222 631 136 590 q 347 637 291 663 q 404 513 404 612 q 376 400 404 455 q 197 225 325 300 q 93 176 147 195 q 95 101 84 122 q 128 73 105 79 q 245 169 176 91 q 271 172 257 181 l 295 157 q 306 143 302 152 q 306 128 309 134 q 217 30 282 82 q 178 3 190 9 q 142 -18 165 -4 q 95 -57 118 -32 q 74 -105 73 -82 q 106 -145 76 -142 q 144 -139 125 -146 q 172 -155 163 -133 l 177 -173 q 160 -203 184 -193 q 82 -218 120 -218 q 17 -195 44 -218 q -11 -135 -11 -172 z "},"Ě":{"ha":512,"x_min":-14,"x_max":609,"o":"m 381 1098 l 462 1180 q 477 1191 471 1189 q 498 1194 483 1194 l 529 1194 q 545 1184 543 1194 q 536 1164 548 1175 l 406 1048 q 374 1029 384 1028 l 363 1031 q 338 1054 349 1033 l 269 1172 q 267 1187 264 1180 q 282 1194 271 1194 l 319 1194 q 338 1191 333 1194 q 346 1180 343 1189 l 381 1098 m 323 0 q 16 0 323 0 q -7 12 0 0 q -10 39 -14 23 l 193 840 l 142 840 q 118 846 123 840 q 119 874 114 852 l 127 903 q 138 924 131 920 q 162 929 144 929 l 580 929 q 603 922 598 929 q 604 897 609 915 l 595 864 q 563 840 589 840 l 298 840 l 224 547 l 450 547 q 467 539 462 547 q 468 518 472 530 l 459 486 q 421 459 453 459 l 201 459 l 106 88 l 353 88 q 369 80 364 88 q 371 59 374 71 l 362 27 q 323 0 356 0 z "},"ě":{"ha":400,"x_min":-8,"x_max":483,"o":"m 316 862 l 396 944 q 412 956 406 954 q 433 958 418 958 l 463 958 q 480 949 478 958 q 471 929 483 939 l 341 812 q 309 794 319 793 l 297 795 q 272 818 284 797 l 204 936 q 202 951 199 944 q 217 958 205 958 l 254 958 q 272 956 267 958 q 281 944 277 953 l 316 862 m 110 260 q 287 413 240 317 q 311 510 311 463 q 283 558 311 558 q 179 464 223 558 q 110 260 136 370 m 93 176 q 95 101 84 122 q 128 73 105 79 q 245 169 176 91 q 271 172 257 181 l 295 157 q 306 143 302 152 q 306 128 309 134 q 216 30 282 82 q 110 -14 150 -23 q 4 81 19 8 q 8 237 -8 139 q 70 438 25 334 q 222 631 136 590 q 347 637 291 663 q 404 513 404 612 q 376 400 404 455 q 197 225 325 300 q 93 176 147 195 z "},"Ğ":{"ha":551,"x_min":13,"x_max":746,"o":"m 635 1151 q 640 1187 640 1168 q 664 1205 640 1206 q 671 1204 670 1204 l 726 1204 q 745 1189 746 1204 q 674 1066 736 1118 q 516 1014 612 1014 q 355 1060 420 1014 q 291 1177 291 1106 q 291 1185 291 1182 q 291 1192 291 1189 q 292 1196 291 1195 q 309 1203 297 1203 l 359 1203 q 366 1203 360 1203 q 375 1202 371 1203 q 384 1199 379 1202 q 392 1170 393 1195 q 519 1076 384 1076 q 635 1151 615 1076 m 274 436 q 508 436 274 436 q 519 408 529 436 l 513 386 q 505 360 512 381 q 479 289 498 339 q 440 197 460 239 q 393 113 420 154 q 338 48 366 73 q 188 -8 275 -8 q 95 22 140 -8 q 13 277 13 76 q 44 509 13 382 q 130 732 76 637 q 255 883 183 827 q 401 939 326 939 q 487 911 451 939 q 546 813 522 884 q 570 707 570 743 q 545 662 570 671 l 500 649 q 479 653 487 646 q 468 700 470 660 q 449 782 467 740 q 401 831 431 824 q 270 754 342 847 q 153 493 199 660 q 128 162 97 292 q 180 86 145 88 q 297 153 247 78 q 383 349 354 237 l 260 349 q 245 384 235 349 l 255 421 q 262 433 258 430 q 274 436 266 436 z "},"ğ":{"ha":463,"x_min":-90,"x_max":612,"o":"m 502 890 q 507 926 507 907 q 531 944 507 945 q 537 943 537 943 l 592 943 q 611 927 612 943 q 541 805 603 857 q 383 753 478 753 q 222 799 287 753 q 157 916 157 845 q 157 924 157 921 q 157 931 157 927 q 158 935 158 934 q 175 942 163 942 l 225 942 q 232 942 227 942 q 242 941 238 942 q 251 938 245 941 q 259 909 260 934 q 386 815 251 815 q 502 890 482 815 m 404 650 q 441 651 404 650 q 467 618 473 652 q 344 166 410 395 q 278 -64 278 -63 q 177 -220 245 -183 q 136 -240 147 -237 q 60 -222 110 -250 l -71 -148 q -89 -126 -88 -140 q -81 -101 -90 -111 l -61 -75 q -19 -64 -41 -52 l 123 -152 q 165 -116 153 -165 l 227 108 q 164 28 199 61 q 108 -4 130 -4 l 105 -4 q 73 11 95 -4 q 31 50 51 26 q 3 101 11 75 q 5 209 -6 128 q 66 424 15 289 q 165 604 116 559 q 289 649 214 649 q 370 625 333 649 q 381 646 376 641 q 404 650 386 650 m 350 554 q 250 565 287 589 q 179 465 214 540 q 100 219 122 341 q 92 142 90 165 q 111 110 94 120 q 156 123 128 101 q 214 192 184 146 q 275 313 245 237 q 346 542 304 389 l 350 554 z "},"Ģ":{"ha":551,"x_min":13,"x_max":570,"o":"m 191 -56 q 133 -215 191 -116 q 70 -271 102 -271 q 54 -251 54 -271 q 60 -219 54 -244 q 82 -89 82 -121 q 89 -51 82 -57 q 109 -42 95 -45 l 160 -31 q 191 -56 191 -25 m 274 436 q 508 436 274 436 q 519 408 529 436 l 513 386 q 505 360 512 381 q 479 289 498 339 q 440 197 460 239 q 393 113 420 154 q 338 48 366 73 q 188 -8 275 -8 q 95 22 140 -8 q 13 277 13 76 q 44 509 13 382 q 130 732 76 637 q 255 883 183 827 q 401 939 326 939 q 487 911 451 939 q 546 813 522 884 q 570 707 570 743 q 545 662 570 671 l 500 649 q 479 653 487 646 q 468 700 470 660 q 449 782 467 740 q 401 831 431 824 q 270 754 342 847 q 153 493 199 660 q 128 162 97 292 q 180 86 145 88 q 297 153 247 78 q 383 349 354 237 l 260 349 q 245 384 235 349 l 255 421 q 262 433 258 430 q 274 436 266 436 z "},"ģ":{"ha":463,"x_min":-90,"x_max":473,"o":"m 297 758 q 389 1046 297 890 q 454 1101 420 1101 q 469 1085 469 1101 q 449 1014 469 1070 q 425 930 428 959 q 414 850 422 901 q 406 779 406 800 q 400 753 406 759 q 379 744 393 747 l 328 733 q 297 758 297 727 m 404 650 q 441 651 404 650 q 467 618 473 652 q 344 166 410 395 q 278 -64 278 -63 q 177 -220 245 -183 q 136 -240 147 -237 q 60 -222 110 -250 l -71 -148 q -89 -126 -88 -140 q -81 -101 -90 -111 l -61 -75 q -19 -64 -41 -52 l 123 -152 q 165 -116 153 -165 l 227 108 q 164 28 199 61 q 108 -4 130 -4 l 105 -4 q 73 11 95 -4 q 31 50 51 26 q 3 101 11 75 q 5 209 -6 128 q 66 424 15 289 q 165 604 116 559 q 289 649 214 649 q 370 625 333 649 q 381 646 376 641 q 404 650 386 650 m 350 554 q 250 565 287 589 q 179 465 214 540 q 100 219 122 341 q 92 142 90 165 q 111 110 94 120 q 156 123 128 101 q 214 192 184 146 q 275 313 245 237 q 346 542 304 389 l 350 554 z "},"ī":{"ha":245,"x_min":-24,"x_max":478,"o":"m 242 624 q 87 28 242 624 q 49 0 80 0 l 11 0 q -17 29 -24 0 q 140 626 -17 29 q 176 651 147 651 l 218 651 q 240 645 235 651 q 242 624 246 639 m 11 832 q 462 832 11 832 q 474 827 471 832 q 469 790 478 820 q 442 759 460 759 l 1 759 q -21 768 -19 759 q -18 782 -21 773 q -14 795 -15 792 l -8 817 q 11 832 -4 832 z "},"Į":{"ha":374,"x_min":-47,"x_max":400,"o":"m 132 42 q 148 26 132 42 q 144 -3 168 5 q 64 -55 90 -23 q 39 -109 38 -88 q 113 -141 43 -165 q 137 -158 129 -135 l 143 -176 q 126 -205 150 -196 q 47 -220 85 -220 q -18 -198 9 -220 q -47 -141 -46 -175 q -35 -81 -47 -108 q -5 -35 -23 -54 q 38 0 14 -16 q 132 42 84 30 m 295 900 q 333 929 302 929 l 371 929 q 393 917 386 929 q 396 889 400 905 l 177 28 q 138 0 169 0 l 101 0 q 78 12 85 0 q 75 39 71 23 l 295 900 z "},"į":{"ha":250,"x_min":-119,"x_max":251,"o":"m 247 624 q 92 28 247 624 q 54 0 85 0 l 16 0 q -12 29 -19 0 q 145 626 -12 29 q 181 651 152 651 l 223 651 q 245 645 240 651 q 247 624 251 639 m 60 48 q 76 32 60 48 q 72 4 96 11 q -8 -49 18 -16 q -33 -103 -34 -82 q 41 -135 -29 -158 q 65 -152 57 -128 l 71 -170 q 54 -199 78 -190 q -25 -214 13 -214 q -90 -191 -63 -214 q -119 -135 -118 -168 q -107 -75 -119 -101 q -77 -29 -95 -48 q -34 6 -58 -9 q 60 48 12 36 z "},"İ":{"ha":284,"x_min":-18,"x_max":413,"o":"m 338 1053 q 298 1071 315 1053 q 281 1115 281 1090 q 299 1159 281 1140 q 344 1177 317 1177 l 356 1177 q 395 1158 377 1177 q 413 1114 413 1138 q 394 1071 413 1089 q 348 1053 375 1053 l 338 1053 m 205 900 q 244 929 213 929 l 281 929 q 303 917 297 929 q 306 889 310 905 l 87 28 q 49 0 80 0 l 11 0 q -11 12 -4 0 q -14 39 -18 23 l 205 900 z "},"ı":{"ha":245,"x_min":-24,"x_max":246,"o":"m 242 624 q 87 28 242 624 q 49 0 80 0 l 11 0 q -17 29 -24 0 q 140 626 -17 29 q 176 651 147 651 l 218 651 q 240 645 235 651 q 242 624 246 639 z "},"Ķ":{"ha":546,"x_min":-18,"x_max":647,"o":"m 237 -50 q 180 -209 237 -110 q 116 -264 148 -264 q 100 -245 100 -264 q 106 -212 100 -238 q 128 -83 128 -115 q 135 -45 128 -51 q 155 -36 142 -39 l 207 -24 q 237 -50 237 -19 m 205 900 q 244 929 213 929 l 281 929 q 303 917 297 929 q 306 889 310 905 l 215 533 l 523 908 q 565 929 540 929 l 619 929 q 642 917 636 929 q 636 892 647 906 l 286 477 l 417 38 q 395 0 429 0 l 348 0 q 323 7 329 0 q 312 32 317 13 l 191 437 l 87 28 q 49 0 80 0 l 11 0 q -11 12 -4 0 q -14 39 -18 23 l 205 900 z "},"ķ":{"ha":467,"x_min":-14,"x_max":480,"o":"m 206 -49 q 148 -208 206 -109 q 85 -263 117 -263 q 69 -244 69 -263 q 75 -211 69 -237 q 97 -81 97 -113 q 104 -44 97 -49 q 124 -34 110 -38 l 175 -23 q 206 -49 206 -18 m 321 944 q 180 393 321 944 l 374 637 q 409 651 386 651 l 456 651 q 478 638 477 651 q 464 607 480 624 l 244 348 l 344 34 q 343 8 349 16 q 317 0 338 0 l 282 0 q 256 5 263 0 q 244 28 249 11 l 160 314 l 87 28 q 49 0 80 0 l 27 0 q -5 12 4 0 q -10 41 -14 23 l 224 945 q 263 973 232 973 l 292 973 q 321 944 327 973 z "},"Ĺ":{"ha":493,"x_min":-18,"x_max":445,"o":"m 423 1137 q 441 1128 437 1137 q 432 1104 445 1120 l 321 988 q 285 972 306 972 l 258 972 q 245 979 247 972 q 246 990 242 986 l 326 1115 q 366 1137 339 1137 l 423 1137 m 362 0 q 11 0 362 0 q -11 12 -4 0 q -14 39 -18 23 l 205 900 q 244 929 213 929 l 281 929 q 303 917 297 929 q 306 889 310 905 l 102 88 l 393 88 q 410 80 405 88 q 411 59 415 71 l 403 27 q 362 0 396 0 z "},"ĺ":{"ha":237,"x_min":-14,"x_max":438,"o":"m 417 1162 q 435 1154 431 1162 q 426 1130 438 1145 l 314 1013 q 279 998 300 998 l 252 998 q 239 1005 241 998 q 240 1016 236 1012 l 319 1140 q 359 1162 333 1162 l 417 1162 m 321 944 q 87 28 321 944 q 49 0 80 0 l 27 0 q -5 12 4 0 q -10 41 -14 23 l 224 945 q 263 973 232 973 l 292 973 q 321 944 327 973 z "},"Ļ":{"ha":493,"x_min":-18,"x_max":415,"o":"m 212 -56 q 154 -215 212 -116 q 90 -271 123 -271 q 75 -251 75 -271 q 81 -219 75 -244 q 103 -89 103 -121 q 109 -51 103 -57 q 130 -42 116 -45 l 181 -31 q 212 -56 212 -25 m 362 0 q 11 0 362 0 q -11 12 -4 0 q -14 39 -18 23 l 205 900 q 244 929 213 929 l 281 929 q 303 917 297 929 q 306 889 310 905 l 102 88 l 393 88 q 410 80 405 88 q 411 59 415 71 l 403 27 q 362 0 396 0 z "},"ļ":{"ha":237,"x_min":-58,"x_max":327,"o":"m 80 -48 q 22 -207 80 -108 q -42 -262 -9 -262 q -58 -242 -58 -262 q -51 -210 -58 -235 q -29 -80 -29 -112 q -23 -42 -29 -48 q -3 -33 -16 -36 l 49 -22 q 80 -48 80 -16 m 321 944 q 87 28 321 944 q 49 0 80 0 l 27 0 q -5 12 4 0 q -10 41 -14 23 l 224 945 q 263 973 232 973 l 292 973 q 321 944 327 973 z "},"Ľ":{"ha":493,"x_min":-18,"x_max":552,"o":"m 552 922 q 460 634 552 790 q 396 579 430 579 q 381 595 381 579 q 401 666 381 611 q 425 750 421 721 q 436 830 428 779 q 443 901 443 880 q 450 927 443 921 q 470 937 456 934 l 522 948 q 552 922 552 954 m 362 0 q 11 0 362 0 q -11 12 -4 0 q -14 39 -18 23 l 205 900 q 244 929 213 929 l 281 929 q 303 917 297 929 q 306 889 310 905 l 102 88 l 393 88 q 410 80 405 88 q 411 59 415 71 l 403 27 q 362 0 396 0 z "},"ľ":{"ha":501,"x_min":-14,"x_max":525,"o":"m 525 1031 q 433 743 525 899 q 369 688 403 688 q 354 704 354 688 q 374 775 354 720 q 398 859 394 830 q 409 939 401 888 q 416 1010 416 989 q 423 1036 416 1030 q 443 1046 430 1043 l 495 1057 q 525 1031 525 1063 m 321 944 q 87 28 321 944 q 49 0 80 0 l 27 0 q -5 12 4 0 q -10 41 -14 23 l 224 945 q 263 973 232 973 l 292 973 q 321 944 327 973 z "},"Ł":{"ha":496,"x_min":-19,"x_max":523,"o":"m -8 416 q 165 537 -8 416 l 258 900 q 296 929 266 929 l 333 929 q 356 917 349 929 q 359 889 363 905 l 292 626 l 465 748 q 486 752 476 755 q 500 736 495 748 l 513 706 q 502 664 523 680 l 259 495 l 155 88 l 445 88 q 462 80 457 88 q 464 59 467 71 l 455 27 q 415 0 449 0 l 64 0 q 41 12 48 0 q 38 39 34 23 l 132 406 l 38 341 q 3 351 13 322 l -14 395 q -8 416 -19 410 z "},"ł":{"ha":234,"x_min":-63,"x_max":414,"o":"m -53 417 q 118 537 -53 417 l 224 945 q 263 973 232 973 l 292 973 q 321 944 327 973 l 238 621 l 355 703 q 375 707 366 710 q 390 691 385 703 l 403 662 q 391 619 414 636 q 205 490 391 619 l 87 28 q 49 0 80 0 l 27 0 q -5 12 4 0 q -10 41 -14 23 l 85 406 l -6 343 q -43 353 -33 326 l -59 396 q -53 417 -63 411 z "},"Ń":{"ha":663,"x_min":-18,"x_max":701,"o":"m 619 1175 q 637 1166 633 1175 q 628 1142 641 1158 l 517 1026 q 481 1010 502 1010 l 454 1010 q 441 1017 443 1010 q 442 1028 438 1024 l 522 1153 q 562 1175 535 1175 l 619 1175 m 205 900 q 242 929 213 928 l 281 929 q 314 889 307 929 l 428 239 l 596 900 q 635 929 604 929 l 672 929 q 694 917 688 929 q 698 889 701 905 l 478 28 q 440 0 471 0 l 394 0 q 373 15 378 0 q 370 31 371 24 q 368 39 369 37 l 255 686 l 87 28 q 49 0 80 0 l 11 0 q -11 12 -4 0 q -14 39 -18 23 l 205 900 z "},"ń":{"ha":542,"x_min":-13,"x_max":549,"o":"m 495 939 q 513 931 509 939 q 504 907 517 922 l 393 790 q 357 775 378 775 l 330 775 q 317 782 319 775 q 318 793 314 789 l 398 917 q 438 939 411 939 l 495 939 m 425 516 q 425 522 425 516 q 416 527 425 527 q 395 515 408 527 q 362 473 383 503 q 302 380 336 435 q 216 245 268 326 q 98 55 120 96 q 73 12 75 15 q 70 8 71 9 q 66 4 68 6 q 62 2 64 3 q 59 1 60 1 q 55 0 57 0 q 18 0 33 0 q -4 33 -13 0 l 152 618 q 160 643 155 636 q 177 651 165 651 l 230 651 q 250 644 246 651 q 250 614 255 636 l 154 291 l 287 512 q 374 616 329 581 q 451 651 420 651 l 478 651 q 522 541 549 651 l 378 18 q 358 0 374 0 l 291 0 q 281 31 276 0 l 416 471 q 425 516 425 505 z "},"Ņ":{"ha":663,"x_min":-18,"x_max":701,"o":"m 283 -31 q 225 -190 283 -91 q 162 -245 194 -245 q 146 -226 146 -245 q 152 -193 146 -219 q 174 -64 174 -96 q 181 -26 174 -32 q 201 -17 187 -20 l 252 -6 q 283 -31 283 0 m 205 900 q 242 929 213 928 l 281 929 q 314 889 307 929 l 428 239 l 596 900 q 635 929 604 929 l 672 929 q 694 917 688 929 q 698 889 701 905 l 478 28 q 440 0 471 0 l 394 0 q 373 15 378 0 q 370 31 371 24 q 368 39 369 37 l 255 686 l 87 28 q 49 0 80 0 l 11 0 q -11 12 -4 0 q -14 39 -18 23 l 205 900 z "},"ņ":{"ha":542,"x_min":-13,"x_max":549,"o":"m 223 -44 q 165 -203 223 -104 q 101 -258 134 -258 q 86 -239 86 -258 q 92 -206 86 -232 q 114 -76 114 -108 q 121 -39 114 -44 q 141 -29 127 -33 l 192 -18 q 223 -44 223 -13 m 425 516 q 425 522 425 516 q 416 527 425 527 q 395 515 408 527 q 362 473 383 503 q 302 380 336 435 q 216 245 268 326 q 98 55 120 96 q 73 12 75 15 q 70 8 71 9 q 66 4 68 6 q 62 2 64 3 q 59 1 60 1 q 55 0 57 0 q 18 0 33 0 q -4 33 -13 0 l 152 618 q 160 643 155 636 q 177 651 165 651 l 230 651 q 250 644 246 651 q 250 614 255 636 l 154 291 l 287 512 q 374 616 329 581 q 451 651 420 651 l 478 651 q 522 541 549 651 l 378 18 q 358 0 374 0 l 291 0 q 281 31 276 0 l 416 471 q 425 516 425 505 z "},"Ň":{"ha":663,"x_min":-18,"x_max":701,"o":"m 454 1098 l 535 1180 q 550 1191 544 1189 q 571 1194 557 1194 l 602 1194 q 619 1184 616 1194 q 609 1164 621 1175 l 480 1048 q 448 1029 458 1028 l 436 1031 q 411 1054 423 1033 l 343 1172 q 340 1187 337 1180 q 355 1194 344 1194 l 393 1194 q 411 1191 406 1194 q 420 1180 416 1189 l 454 1098 m 205 900 q 242 929 213 928 l 281 929 q 314 889 307 929 l 428 239 l 596 900 q 635 929 604 929 l 672 929 q 694 917 688 929 q 698 889 701 905 l 478 28 q 440 0 471 0 l 394 0 q 373 15 378 0 q 370 31 371 24 q 368 39 369 37 l 255 686 l 87 28 q 49 0 80 0 l 11 0 q -11 12 -4 0 q -14 39 -18 23 l 205 900 z "},"ň":{"ha":542,"x_min":-13,"x_max":549,"o":"m 329 862 l 410 944 q 426 956 420 954 q 446 958 432 958 l 477 958 q 494 949 492 958 q 485 929 497 939 l 355 812 q 323 794 333 793 l 311 795 q 286 818 298 797 l 218 936 q 216 951 212 944 q 230 958 219 958 l 268 958 q 286 956 281 958 q 295 944 291 953 l 329 862 m 425 516 q 425 522 425 516 q 416 527 425 527 q 395 515 408 527 q 362 473 383 503 q 302 380 336 435 q 216 245 268 326 q 98 55 120 96 q 73 12 75 15 q 70 8 71 9 q 66 4 68 6 q 62 2 64 3 q 59 1 60 1 q 55 0 57 0 q 18 0 33 0 q -4 33 -13 0 l 152 618 q 160 643 155 636 q 177 651 165 651 l 230 651 q 250 644 246 651 q 250 614 255 636 l 154 291 l 287 512 q 374 616 329 581 q 451 651 420 651 l 478 651 q 522 541 549 651 l 378 18 q 358 0 374 0 l 291 0 q 281 31 276 0 l 416 471 q 425 516 425 505 z "},"Ō":{"ha":572,"x_min":9,"x_max":709,"o":"m 242 1111 q 693 1111 242 1111 q 705 1106 702 1111 q 700 1069 709 1100 q 673 1038 691 1038 l 232 1038 q 210 1048 212 1038 q 213 1062 210 1052 q 217 1075 216 1071 l 223 1096 q 242 1111 227 1111 m 129 154 q 197 81 150 81 q 317 148 266 81 q 437 422 379 235 q 477 718 492 599 q 450 802 470 771 q 396 833 429 833 q 271 762 326 833 q 147 478 204 673 q 129 154 91 283 m 9 278 q 90 641 9 451 q 307 914 180 847 q 402 939 353 939 q 513 903 451 939 q 569 825 554 879 q 584 670 584 772 q 539 398 584 569 q 294 18 460 96 q 191 -6 245 -6 q 101 18 148 -6 q 9 278 9 67 z "},"ō":{"ha":430,"x_min":2,"x_max":609,"o":"m 142 832 q 592 832 142 832 q 605 827 602 832 q 600 790 609 820 q 573 759 590 759 l 132 759 q 110 768 111 759 q 113 782 110 773 q 116 795 116 792 l 123 817 q 142 832 126 832 m 222 135 q 314 441 310 274 q 307 542 316 517 q 268 569 297 568 q 216 542 239 570 q 170 468 192 514 q 108 199 112 348 q 148 80 105 83 q 222 135 185 78 m 4 186 q 75 483 10 359 q 121 563 103 539 q 165 612 140 588 q 294 662 219 663 q 394 597 358 659 q 417 457 420 555 q 384 266 413 359 q 317 110 354 172 q 128 -10 243 -14 q 53 26 86 -8 q 16 89 30 47 q 4 186 2 130 z "},"Ő":{"ha":572,"x_min":9,"x_max":621,"o":"m 441 1208 q 450 1176 473 1208 l 355 1058 q 319 1043 340 1043 l 302 1043 q 287 1049 290 1043 q 290 1064 284 1056 l 366 1186 q 405 1208 379 1208 l 441 1208 m 599 1208 q 617 1199 613 1208 q 608 1176 621 1190 l 508 1060 q 469 1043 490 1043 l 454 1043 q 438 1049 441 1043 q 441 1064 435 1056 l 523 1186 q 563 1208 537 1208 l 599 1208 m 129 154 q 197 81 150 81 q 317 148 266 81 q 437 422 379 235 q 477 718 492 599 q 450 802 470 771 q 396 833 429 833 q 271 762 326 833 q 147 478 204 673 q 129 154 91 283 m 9 278 q 90 641 9 451 q 307 914 180 847 q 402 939 353 939 q 513 903 451 939 q 569 825 554 879 q 584 670 584 772 q 539 398 584 569 q 294 18 460 96 q 191 -6 245 -6 q 101 18 148 -6 q 9 278 9 67 z "},"ő":{"ha":430,"x_min":2,"x_max":535,"o":"m 355 916 q 364 884 388 916 l 269 766 q 234 751 254 751 l 217 751 q 201 758 204 751 q 204 772 199 765 l 280 894 q 319 916 294 916 l 355 916 m 513 916 q 531 907 527 916 q 522 884 535 899 l 422 768 q 383 751 405 751 l 368 751 q 353 758 356 751 q 355 772 349 765 l 437 894 q 477 916 451 916 l 513 916 m 222 135 q 314 441 310 274 q 307 542 316 517 q 268 569 297 568 q 216 542 239 570 q 170 468 192 514 q 108 199 112 348 q 148 80 105 83 q 222 135 185 78 m 4 186 q 75 483 10 359 q 121 563 103 539 q 165 612 140 588 q 294 662 219 663 q 394 597 358 659 q 417 457 420 555 q 384 266 413 359 q 317 110 354 172 q 128 -10 243 -14 q 53 26 86 -8 q 16 89 30 47 q 4 186 2 130 z "},"Œ":{"ha":1071,"x_min":-6,"x_max":894,"o":"m 392 88 l 639 88 q 655 80 650 88 q 657 59 660 71 l 647 27 q 609 0 641 0 l 301 0 q 120 70 184 0 q 85 531 -6 209 q 325 900 167 825 q 459 929 385 929 l 865 929 q 889 922 884 929 q 890 897 894 915 l 881 864 q 849 840 875 840 l 584 840 l 509 547 l 736 547 q 752 539 748 547 q 754 518 757 530 l 745 486 q 706 459 739 459 l 487 459 l 392 88 m 480 840 l 446 840 q 292 749 364 840 q 180 500 221 657 q 182 153 115 252 q 289 91 215 103 l 480 840 z "},"œ":{"ha":830,"x_min":2,"x_max":688,"o":"m 393 260 q 570 413 523 317 q 594 510 594 463 q 567 558 594 558 q 463 464 507 558 q 393 260 420 370 m 377 176 q 378 101 368 122 q 412 73 389 79 q 529 169 460 91 q 554 172 540 181 l 579 157 q 590 143 586 152 q 590 128 593 134 q 500 30 566 82 q 394 -14 434 -23 q 287 81 303 8 q 292 237 276 139 q 354 438 309 334 q 506 631 420 590 q 631 637 574 663 q 688 513 688 612 q 659 400 688 455 q 480 225 609 300 q 377 176 430 195 m 222 135 q 314 441 310 274 q 307 542 316 517 q 268 569 297 568 q 216 542 239 570 q 170 468 192 514 q 108 199 112 348 q 148 80 105 83 q 222 135 185 78 m 4 186 q 75 483 10 359 q 121 563 103 539 q 165 612 140 588 q 294 662 219 663 q 394 597 358 659 q 417 457 420 555 q 384 266 413 359 q 317 110 354 172 q 128 -10 243 -14 q 53 26 86 -8 q 16 89 30 47 q 4 186 2 130 z "},"Ŕ":{"ha":577,"x_min":-15,"x_max":572,"o":"m 453 1175 q 470 1166 467 1175 q 462 1142 474 1158 l 350 1026 q 314 1010 336 1010 l 287 1010 q 274 1017 277 1010 q 276 1028 272 1024 l 355 1153 q 395 1175 369 1175 l 453 1175 m 209 494 l 289 498 q 422 573 376 502 q 467 759 467 641 q 444 815 467 792 q 383 838 422 837 q 297 839 343 838 l 209 494 m 192 840 q 153 840 172 840 q 127 851 135 840 q 123 876 120 862 l 130 903 q 142 921 132 914 q 159 929 151 929 l 377 929 q 518 884 465 929 q 572 754 572 840 q 539 592 572 668 q 467 484 506 516 q 407 441 428 451 q 362 423 386 431 l 421 44 q 393 0 428 0 l 349 0 q 325 10 332 0 q 314 45 317 20 l 266 407 l 186 406 l 90 28 q 51 0 82 0 l 14 0 q -8 12 -1 0 q -11 39 -15 23 l 192 840 z "},"ŕ":{"ha":361,"x_min":-12,"x_max":446,"o":"m 396 939 q 414 931 410 939 q 405 907 418 922 l 294 790 q 258 775 279 775 l 231 775 q 218 782 220 775 q 219 793 215 789 l 299 917 q 339 939 312 939 l 396 939 m 214 479 q 343 645 297 614 q 396 656 358 656 l 409 656 q 435 627 446 656 q 403 588 429 611 q 335 512 378 565 q 292 441 292 458 q 324 378 292 408 q 329 364 332 372 q 316 355 326 357 l 267 346 q 235 351 246 343 q 209 389 225 359 l 198 409 l 99 28 q 60 0 91 0 l 23 0 q -5 29 -12 0 l 152 626 q 187 651 158 651 l 227 651 q 249 645 244 651 q 251 624 255 639 l 214 479 z "},"Ŗ":{"ha":577,"x_min":-15,"x_max":572,"o":"m 241 -44 q 183 -203 241 -104 q 120 -258 152 -258 q 104 -239 104 -258 q 110 -206 104 -232 q 132 -76 132 -108 q 139 -39 132 -44 q 159 -29 145 -33 l 210 -18 q 241 -44 241 -13 m 209 494 l 289 498 q 422 573 376 502 q 467 759 467 641 q 444 815 467 792 q 383 838 422 837 q 297 839 343 838 l 209 494 m 192 840 q 153 840 172 840 q 127 851 135 840 q 123 876 120 862 l 130 903 q 142 921 132 914 q 159 929 151 929 l 377 929 q 518 884 465 929 q 572 754 572 840 q 539 592 572 668 q 467 484 506 516 q 407 441 428 451 q 362 423 386 431 l 421 44 q 393 0 428 0 l 349 0 q 325 10 332 0 q 314 45 317 20 l 266 407 l 186 406 l 90 28 q 51 0 82 0 l 14 0 q -8 12 -1 0 q -11 39 -15 23 l 192 840 z "},"ŗ":{"ha":361,"x_min":-54,"x_max":446,"o":"m 83 -44 q 26 -203 83 -104 q -38 -258 -6 -258 q -54 -239 -54 -258 q -48 -206 -54 -232 q -26 -76 -26 -108 q -19 -39 -26 -44 q 1 -29 -13 -33 l 53 -18 q 83 -44 83 -13 m 214 479 q 343 645 297 614 q 396 656 358 656 l 409 656 q 435 627 446 656 q 403 588 429 611 q 335 512 378 565 q 292 441 292 458 q 324 378 292 408 q 329 364 332 372 q 316 355 326 357 l 267 346 q 235 351 246 343 q 209 389 225 359 l 198 409 l 99 28 q 60 0 91 0 l 23 0 q -5 29 -12 0 l 152 626 q 187 651 158 651 l 227 651 q 249 645 244 651 q 251 624 255 639 l 214 479 z "},"Ř":{"ha":577,"x_min":-15,"x_max":572,"o":"m 377 1073 l 458 1155 q 473 1166 467 1164 q 494 1168 480 1168 l 525 1168 q 542 1159 539 1168 q 532 1139 544 1150 l 403 1023 q 371 1004 381 1003 l 359 1006 q 334 1029 346 1008 l 266 1147 q 263 1162 260 1155 q 278 1168 267 1168 l 316 1168 q 334 1166 329 1168 q 343 1155 339 1163 l 377 1073 m 209 494 l 289 498 q 422 573 376 502 q 467 759 467 641 q 444 815 467 792 q 383 838 422 837 q 297 839 343 838 l 209 494 m 192 840 q 153 840 172 840 q 127 851 135 840 q 123 876 120 862 l 130 903 q 142 921 132 914 q 159 929 151 929 l 377 929 q 518 884 465 929 q 572 754 572 840 q 539 592 572 668 q 467 484 506 516 q 407 441 428 451 q 362 423 386 431 l 421 44 q 393 0 428 0 l 349 0 q 325 10 332 0 q 314 45 317 20 l 266 407 l 186 406 l 90 28 q 51 0 82 0 l 14 0 q -8 12 -1 0 q -11 39 -15 23 l 192 840 z "},"ř":{"ha":361,"x_min":-12,"x_max":475,"o":"m 307 772 l 388 854 q 404 866 398 864 q 425 868 410 868 l 455 868 q 472 859 470 868 q 463 838 475 849 l 333 722 q 301 704 311 703 l 289 705 q 264 728 276 707 l 196 846 q 194 861 190 854 q 209 868 197 868 l 246 868 q 264 865 259 868 q 273 854 269 863 l 307 772 m 214 479 q 343 645 297 614 q 396 656 358 656 l 409 656 q 435 627 446 656 q 403 588 429 611 q 335 512 378 565 q 292 441 292 458 q 324 378 292 408 q 329 364 332 372 q 316 355 326 357 l 267 346 q 235 351 246 343 q 209 389 225 359 l 198 409 l 99 28 q 60 0 91 0 l 23 0 q -5 29 -12 0 l 152 626 q 187 651 158 651 l 227 651 q 249 645 244 651 q 251 624 255 639 l 214 479 z "},"Ś":{"ha":563,"x_min":34,"x_max":588,"o":"m 567 1175 q 584 1166 580 1175 q 575 1142 588 1158 l 464 1026 q 428 1010 450 1010 l 401 1010 q 388 1017 391 1010 q 389 1028 386 1024 l 469 1153 q 509 1175 483 1175 l 567 1175 m 420 942 q 537 874 503 942 q 572 678 572 806 q 550 640 572 646 l 505 626 q 485 629 495 622 q 475 652 475 636 q 420 848 475 822 q 358 844 394 861 q 286 761 322 827 q 246 612 249 696 q 257 560 245 578 q 306 530 270 542 l 359 512 q 458 449 435 486 q 480 340 480 415 q 439 178 480 264 q 330 35 399 91 q 186 -21 261 -21 q 34 225 34 -21 l 34 230 q 54 284 34 279 l 101 299 q 122 297 114 304 q 131 274 131 290 q 143 122 131 173 q 182 58 155 71 q 232 66 202 53 q 326 162 284 90 q 374 361 376 250 q 337 415 374 394 q 284 435 318 424 l 230 451 q 167 492 193 462 q 141 574 141 522 q 162 690 141 625 q 218 812 183 756 q 307 905 254 869 q 420 942 361 942 z "},"ś":{"ha":410,"x_min":-33,"x_max":432,"o":"m 411 895 q 428 887 425 895 q 420 863 432 879 l 308 746 q 272 731 294 731 l 245 731 q 232 738 235 731 q 234 749 230 745 l 313 874 q 353 895 327 895 l 411 895 m 252 659 q 272 659 252 659 q 352 626 315 659 q 413 544 389 593 q 415 522 417 535 q 404 503 414 509 l 366 481 q 344 474 355 473 q 329 483 333 475 q 316 511 325 490 q 302 541 307 532 q 281 563 296 551 q 250 576 267 574 q 190 534 219 570 q 162 432 162 497 q 175 393 162 404 q 223 374 188 381 l 259 367 q 338 237 338 350 q 287 83 338 171 q 221 14 262 42 q 132 -14 180 -14 l 123 -14 q 36 20 75 -14 q -18 89 -3 54 q -18 142 -33 125 l 10 165 q 39 177 24 178 q 59 154 54 175 q 90 103 64 133 q 138 72 116 74 q 205 117 177 78 q 234 207 234 157 q 224 272 234 257 q 181 294 214 286 l 153 300 q 82 341 102 312 q 61 422 61 371 q 88 530 61 474 q 160 622 115 585 q 252 659 205 659 z "},"Ş":{"ha":563,"x_min":27,"x_max":572,"o":"m 192 -50 q 229 -60 192 -50 q 244 -96 252 -66 q 226 -147 237 -126 q 194 -188 215 -168 q 59 -235 153 -231 q 36 -218 39 -235 l 32 -203 q 48 -177 27 -178 q 130 -145 100 -173 q 160 -71 160 -116 q 173 -50 160 -54 q 192 -50 185 -45 m 420 942 q 537 874 503 942 q 572 678 572 806 q 550 640 572 646 l 505 626 q 485 629 495 622 q 475 652 475 636 q 420 848 475 822 q 358 844 394 861 q 286 761 322 827 q 246 612 249 696 q 257 560 245 578 q 306 530 270 542 l 359 512 q 458 449 435 486 q 480 340 480 415 q 439 178 480 264 q 330 35 399 91 q 186 -21 261 -21 q 34 225 34 -21 l 34 230 q 54 284 34 279 l 101 299 q 122 297 114 304 q 131 274 131 290 q 143 122 131 173 q 182 58 155 71 q 232 66 202 53 q 326 162 284 90 q 374 361 376 250 q 337 415 374 394 q 284 435 318 424 l 230 451 q 167 492 193 462 q 141 574 141 522 q 162 690 141 625 q 218 812 183 756 q 307 905 254 869 q 420 942 361 942 z "},"ş":{"ha":410,"x_min":-61,"x_max":417,"o":"m 104 -50 q 141 -60 104 -50 q 156 -96 163 -66 q 137 -147 148 -126 q 106 -188 126 -168 q -29 -235 64 -231 q -53 -218 -49 -235 l -56 -203 q -40 -177 -61 -178 q 42 -145 12 -173 q 72 -71 72 -116 q 84 -50 72 -54 q 104 -50 96 -45 m 252 659 q 272 659 252 659 q 352 626 315 659 q 413 544 389 593 q 415 522 417 535 q 404 503 414 509 l 366 481 q 344 474 355 473 q 329 483 333 475 q 316 511 325 490 q 302 541 307 532 q 281 563 296 551 q 250 576 267 574 q 190 534 219 570 q 162 432 162 497 q 175 393 162 404 q 223 374 188 381 l 259 367 q 338 237 338 350 q 287 83 338 171 q 221 14 262 42 q 132 -14 180 -14 l 123 -14 q 36 20 75 -14 q -18 89 -3 54 q -18 142 -33 125 l 10 165 q 39 177 24 178 q 59 154 54 175 q 90 103 64 133 q 138 72 116 74 q 205 117 177 78 q 234 207 234 157 q 224 272 234 257 q 181 294 214 286 l 153 300 q 82 341 102 312 q 61 422 61 371 q 88 530 61 474 q 160 622 115 585 q 252 659 205 659 z "},"Š":{"ha":523,"x_min":24,"x_max":601,"o":"m 433 1098 l 514 1180 q 530 1191 523 1189 q 550 1194 536 1194 l 581 1194 q 598 1184 596 1194 q 589 1164 601 1175 l 459 1048 q 427 1029 437 1028 l 415 1031 q 390 1054 402 1033 l 322 1172 q 320 1187 316 1180 q 334 1194 323 1194 l 372 1194 q 390 1191 385 1194 q 399 1180 395 1189 l 433 1098 m 410 942 q 527 874 493 942 q 562 678 562 806 q 540 640 562 646 l 495 626 q 475 629 485 622 q 465 652 465 636 q 410 848 465 822 q 348 844 384 861 q 276 761 312 827 q 236 612 239 696 q 247 560 235 578 q 296 530 260 542 l 349 512 q 448 449 425 486 q 470 340 470 415 q 429 178 470 264 q 320 35 389 91 q 176 -21 251 -21 q 24 225 24 -21 l 24 230 q 44 284 24 279 l 91 299 q 112 297 104 304 q 121 274 121 290 q 133 122 121 173 q 172 58 145 71 q 222 66 192 53 q 316 162 274 90 q 364 361 366 250 q 327 415 364 394 q 274 435 308 424 l 220 451 q 157 492 183 462 q 131 574 131 522 q 152 690 131 625 q 208 812 173 756 q 297 905 244 869 q 410 942 351 942 z "},"š":{"ha":410,"x_min":-33,"x_max":460,"o":"m 292 806 l 373 888 q 389 900 383 897 q 410 902 395 902 l 440 902 q 457 892 455 902 q 448 872 460 883 l 318 756 q 286 738 296 736 l 274 739 q 249 762 261 741 l 181 880 q 179 895 175 888 q 193 902 182 902 l 231 902 q 249 899 244 902 q 258 888 254 897 l 292 806 m 252 659 q 272 659 252 659 q 352 626 315 659 q 413 544 389 593 q 415 522 417 535 q 404 503 414 509 l 366 481 q 344 474 355 473 q 329 483 333 475 q 316 511 325 490 q 302 541 307 532 q 281 563 296 551 q 250 576 267 574 q 190 534 219 570 q 162 432 162 497 q 175 393 162 404 q 223 374 188 381 l 259 367 q 338 237 338 350 q 287 83 338 171 q 221 14 262 42 q 132 -14 180 -14 l 123 -14 q 36 20 75 -14 q -18 89 -3 54 q -18 142 -33 125 l 10 165 q 39 177 24 178 q 59 154 54 175 q 90 103 64 133 q 138 72 116 74 q 205 117 177 78 q 234 207 234 157 q 224 272 234 257 q 181 294 214 286 l 153 300 q 82 341 102 312 q 61 422 61 371 q 88 530 61 474 q 160 622 115 585 q 252 659 205 659 z "},"Ţ":{"ha":570,"x_min":68,"x_max":683,"o":"m 205 -44 q 147 -203 205 -104 q 83 -258 116 -258 q 68 -239 68 -258 q 74 -206 68 -232 q 96 -76 96 -108 q 102 -39 96 -44 q 123 -29 109 -33 l 174 -18 q 205 -44 205 -13 m 629 836 q 432 836 629 836 l 225 28 q 187 0 218 0 l 150 0 q 128 12 135 0 q 125 39 121 23 l 327 836 l 125 836 q 96 865 88 836 l 105 903 q 117 924 109 919 q 143 929 125 929 l 644 929 q 674 892 683 929 l 668 863 q 629 836 663 836 z "},"ţ":{"ha":297,"x_min":-39,"x_max":358,"o":"m 98 -44 q 41 -203 98 -104 q -23 -258 9 -258 q -39 -239 -39 -258 q -33 -206 -39 -232 q -11 -76 -11 -108 q -4 -39 -11 -44 q 16 -29 3 -33 l 68 -18 q 98 -44 98 -13 m 318 849 q 267 651 318 849 l 335 651 q 354 645 349 651 q 354 623 358 639 l 345 590 q 312 562 337 562 l 245 562 l 109 28 q 71 0 101 0 l 46 0 q 17 12 26 0 q 13 41 9 24 l 145 562 l 95 562 q 78 568 82 562 q 78 592 74 575 l 88 627 q 116 651 95 651 l 168 651 l 219 850 q 258 879 227 879 l 290 879 q 318 849 325 879 z "},"Ť":{"ha":570,"x_min":88,"x_max":683,"o":"m 425 1043 l 505 1125 q 521 1136 515 1134 q 542 1138 527 1138 l 572 1138 q 589 1129 587 1138 q 580 1109 592 1120 l 450 993 q 418 974 428 973 l 406 976 q 381 999 393 977 l 313 1116 q 311 1132 307 1125 q 326 1138 314 1138 l 363 1138 q 381 1136 376 1138 q 390 1125 386 1133 l 425 1043 m 629 836 q 432 836 629 836 l 225 28 q 187 0 218 0 l 150 0 q 128 12 135 0 q 125 39 121 23 l 327 836 l 125 836 q 96 865 88 836 l 105 903 q 117 924 109 919 q 143 929 125 929 l 644 929 q 674 892 683 929 l 668 863 q 629 836 663 836 z "},"ť":{"ha":374,"x_min":9,"x_max":522,"o":"m 522 1031 q 430 743 522 899 q 365 688 399 688 q 350 704 350 688 q 370 775 350 720 q 394 859 391 830 q 405 939 397 888 q 413 1010 413 989 q 419 1036 413 1030 q 440 1046 426 1043 l 491 1057 q 522 1031 522 1063 m 318 849 q 267 651 318 849 l 335 651 q 354 645 349 651 q 354 623 358 639 l 345 590 q 312 562 337 562 l 245 562 l 109 28 q 71 0 101 0 l 46 0 q 17 12 26 0 q 13 41 9 24 l 145 562 l 95 562 q 78 568 82 562 q 78 592 74 575 l 88 627 q 116 651 95 651 l 168 651 l 219 850 q 258 879 227 879 l 290 879 q 318 849 325 879 z "},"Ū":{"ha":634,"x_min":-1,"x_max":728,"o":"m 262 1111 q 712 1111 262 1111 q 725 1106 721 1111 q 719 1069 728 1100 q 693 1038 710 1038 l 252 1038 q 230 1048 231 1038 q 233 1062 230 1052 q 236 1075 235 1071 l 242 1096 q 262 1111 246 1111 m 88 37 q 58 358 -1 132 l 196 900 q 235 929 204 929 l 272 929 q 294 917 287 929 q 297 889 301 905 l 153 317 q 240 75 91 75 q 349 126 302 75 q 428 302 396 177 l 581 900 q 619 929 589 929 l 651 929 q 673 917 667 929 q 676 889 679 905 l 526 294 q 367 29 477 95 q 218 -9 304 -9 q 88 37 133 -9 z "},"ū":{"ha":518,"x_min":-10,"x_max":617,"o":"m 150 876 q 601 876 150 876 q 613 871 610 876 q 608 833 617 864 q 581 803 599 803 l 140 803 q 118 812 120 803 q 121 826 118 817 q 125 839 124 836 l 131 861 q 150 876 135 876 m 357 337 l 240 140 q 157 34 199 69 q 82 0 115 0 l 75 0 q 13 44 35 0 q 9 157 -10 87 l 140 634 q 160 651 143 651 l 227 651 q 238 644 234 651 q 237 621 242 636 l 108 176 q 111 121 95 123 q 175 188 130 120 q 326 447 220 255 q 434 642 431 639 q 439 647 437 646 q 445 650 441 649 q 450 651 449 651 l 508 651 q 521 642 515 651 q 522 618 526 632 l 367 33 q 358 8 364 16 q 341 0 353 0 l 289 0 q 268 8 272 0 q 268 37 263 15 l 357 337 z "},"Ů":{"ha":634,"x_min":-1,"x_max":679,"o":"m 462 1021 q 357 1075 395 1024 q 329 1195 319 1126 q 389 1311 339 1264 q 507 1358 438 1358 q 619 1308 576 1358 q 653 1194 663 1258 q 614 1090 644 1131 q 462 1021 558 1015 m 520 1287 q 504 1291 520 1287 q 457 1272 487 1295 q 414 1207 427 1249 q 415 1129 401 1165 q 462 1087 428 1094 q 524 1102 495 1080 q 568 1167 554 1123 q 568 1245 582 1210 q 520 1287 554 1280 m 88 37 q 58 358 -1 132 l 196 900 q 235 929 204 929 l 272 929 q 294 917 287 929 q 297 889 301 905 l 153 317 q 240 75 91 75 q 349 126 302 75 q 428 302 396 177 l 581 900 q 619 929 589 929 l 651 929 q 673 917 667 929 q 676 889 679 905 l 526 294 q 367 29 477 95 q 218 -9 304 -9 q 88 37 133 -9 z "},"ů":{"ha":518,"x_min":-10,"x_max":526,"o":"m 324 785 q 220 840 258 789 q 192 960 182 890 q 252 1075 202 1029 q 370 1122 301 1122 q 482 1072 439 1122 q 516 959 525 1023 q 477 855 507 895 q 324 785 421 780 m 383 1052 q 367 1056 383 1052 q 320 1037 350 1060 q 277 972 290 1014 q 277 894 264 929 q 324 852 291 859 q 387 866 358 845 q 431 931 417 888 q 431 1009 445 974 q 383 1052 416 1044 m 357 337 l 240 140 q 157 34 199 69 q 82 0 115 0 l 75 0 q 13 44 35 0 q 9 157 -10 87 l 140 634 q 160 651 143 651 l 227 651 q 238 644 234 651 q 237 621 242 636 l 108 176 q 111 121 95 123 q 175 188 130 120 q 326 447 220 255 q 434 642 431 639 q 439 647 437 646 q 445 650 441 649 q 450 651 449 651 l 508 651 q 521 642 515 651 q 522 618 526 632 l 367 33 q 358 8 364 16 q 341 0 353 0 l 289 0 q 268 8 272 0 q 268 37 263 15 l 357 337 z "},"Ű":{"ha":634,"x_min":-1,"x_max":679,"o":"m 498 1208 q 508 1176 531 1208 l 413 1058 q 377 1043 398 1043 l 360 1043 q 345 1049 348 1043 q 348 1064 342 1056 l 423 1186 q 463 1208 437 1208 l 498 1208 m 656 1208 q 675 1199 671 1208 q 666 1176 679 1190 l 565 1060 q 527 1043 548 1043 l 512 1043 q 496 1049 499 1043 q 498 1064 493 1056 l 580 1186 q 621 1208 594 1208 l 656 1208 m 88 37 q 58 358 -1 132 l 196 900 q 235 929 204 929 l 272 929 q 294 917 287 929 q 297 889 301 905 l 153 317 q 240 75 91 75 q 349 126 302 75 q 428 302 396 177 l 581 900 q 619 929 589 929 l 651 929 q 673 917 667 929 q 676 889 679 905 l 526 294 q 367 29 477 95 q 218 -9 304 -9 q 88 37 133 -9 z "},"ű":{"ha":518,"x_min":-10,"x_max":567,"o":"m 387 934 q 396 902 420 934 l 301 783 q 266 768 286 768 l 249 768 q 233 775 236 768 q 236 790 230 782 l 312 912 q 351 934 326 934 l 387 934 m 545 934 q 563 925 559 934 q 554 902 567 916 l 454 786 q 415 768 436 768 l 400 768 q 384 775 388 768 q 387 790 381 782 l 469 912 q 509 934 483 934 l 545 934 m 357 337 l 240 140 q 157 34 199 69 q 82 0 115 0 l 75 0 q 13 44 35 0 q 9 157 -10 87 l 140 634 q 160 651 143 651 l 227 651 q 238 644 234 651 q 237 621 242 636 l 108 176 q 111 121 95 123 q 175 188 130 120 q 326 447 220 255 q 434 642 431 639 q 439 647 437 646 q 445 650 441 649 q 450 651 449 651 l 508 651 q 521 642 515 651 q 522 618 526 632 l 367 33 q 358 8 364 16 q 341 0 353 0 l 289 0 q 268 8 272 0 q 268 37 263 15 l 357 337 z "},"Ų":{"ha":634,"x_min":-1,"x_max":679,"o":"m 281 43 q 296 27 281 43 q 292 -1 317 6 q 213 -54 239 -21 q 188 -108 187 -87 q 261 -140 191 -163 q 286 -157 277 -133 l 291 -175 q 274 -204 298 -195 q 196 -219 234 -219 q 130 -196 158 -219 q 102 -140 102 -173 q 113 -80 101 -106 q 144 -34 125 -53 q 187 1 162 -14 q 281 43 232 31 m 88 37 q 58 358 -1 132 l 196 900 q 235 929 204 929 l 272 929 q 294 917 287 929 q 297 889 301 905 l 153 317 q 240 75 91 75 q 349 126 302 75 q 428 302 396 177 l 581 900 q 619 929 589 929 l 651 929 q 673 917 667 929 q 676 889 679 905 l 526 294 q 367 29 477 95 q 218 -9 304 -9 q 88 37 133 -9 z "},"ų":{"ha":518,"x_min":-10,"x_max":526,"o":"m 334 44 q 350 28 334 44 q 346 0 371 8 q 266 -53 292 -20 q 242 -106 240 -86 q 315 -138 245 -162 q 339 -155 331 -132 l 345 -173 q 328 -203 352 -193 q 250 -218 287 -218 q 184 -195 212 -218 q 156 -139 156 -172 q 167 -79 155 -105 q 198 -33 179 -52 q 240 3 216 -13 q 334 44 286 33 m 357 337 l 240 140 q 157 34 199 69 q 82 0 115 0 l 75 0 q 13 44 35 0 q 9 157 -10 87 l 140 634 q 160 651 143 651 l 227 651 q 238 644 234 651 q 237 621 242 636 l 108 176 q 111 121 95 123 q 175 188 130 120 q 326 447 220 255 q 434 642 431 639 q 439 647 437 646 q 445 650 441 649 q 450 651 449 651 l 508 651 q 521 642 515 651 q 522 618 526 632 l 367 33 q 358 8 364 16 q 341 0 353 0 l 289 0 q 268 8 272 0 q 268 37 263 15 l 357 337 z "},"Ÿ":{"ha":513,"x_min":94,"x_max":629,"o":"m 481 1043 q 441 1061 458 1043 q 425 1105 425 1080 q 443 1149 425 1130 q 487 1167 461 1167 l 498 1167 q 538 1148 520 1167 q 557 1104 557 1128 q 538 1061 557 1079 q 491 1043 518 1043 l 481 1043 m 276 1043 q 236 1061 253 1043 q 219 1105 219 1080 q 237 1149 219 1130 q 282 1167 255 1167 l 294 1167 q 333 1148 315 1167 q 351 1104 351 1128 q 332 1061 351 1079 q 286 1043 313 1043 l 276 1043 m 268 482 q 525 912 447 748 q 563 929 533 931 l 603 924 q 623 910 618 922 q 618 877 629 897 q 287 373 468 614 l 199 28 q 160 0 191 0 l 123 0 q 101 12 108 0 q 98 39 94 23 l 187 393 q 168 634 187 478 q 133 842 148 790 q 128 910 119 894 q 155 927 137 926 l 191 932 q 217 928 209 934 q 229 902 225 922 q 268 482 269 664 z "},"Ź":{"ha":587,"x_min":-35,"x_max":643,"o":"m 554 1175 q 572 1166 568 1175 q 563 1142 575 1158 l 451 1026 q 416 1010 437 1010 l 389 1010 q 376 1017 378 1010 q 377 1028 373 1024 l 456 1153 q 497 1175 470 1175 l 554 1175 m 199 929 q 617 929 199 929 q 638 922 634 929 q 641 902 643 915 l 634 864 q 621 842 630 848 q 597 836 613 836 l 592 836 l 101 92 l 406 92 q 436 58 444 92 l 430 28 q 387 0 425 0 l 10 0 q -23 9 -12 0 q -35 31 -35 18 q -29 59 -35 44 l 482 836 l 195 836 q 167 870 158 836 l 178 910 q 185 925 181 922 q 199 929 190 929 z "},"ź":{"ha":469,"x_min":-46,"x_max":497,"o":"m 476 939 q 493 931 490 939 q 485 907 497 922 l 373 790 q 338 775 359 775 l 311 775 q 297 782 300 775 q 299 793 295 789 l 378 917 q 418 939 392 939 l 476 939 m 81 82 l 266 82 l 287 164 q 327 192 293 190 l 354 195 q 378 188 371 196 q 382 164 386 180 l 346 28 q 308 0 339 0 l 4 0 q -34 14 -22 0 q -44 46 -46 28 q -28 81 -42 65 l 374 569 l 194 569 l 173 487 q 133 459 167 462 l 105 456 q 81 463 88 455 q 77 487 73 472 l 114 626 q 152 651 121 651 l 440 651 q 476 638 460 651 q 494 602 492 624 q 471 549 497 579 l 81 82 z "},"Ż":{"ha":587,"x_min":-35,"x_max":643,"o":"m 442 1053 q 403 1071 420 1053 q 386 1115 386 1090 q 404 1159 386 1140 q 448 1177 422 1177 l 460 1177 q 500 1158 482 1177 q 518 1114 518 1138 q 499 1071 518 1089 q 452 1053 480 1053 l 442 1053 m 199 929 q 617 929 199 929 q 638 922 634 929 q 641 902 643 915 l 634 864 q 621 842 630 848 q 597 836 613 836 l 592 836 l 101 92 l 406 92 q 436 58 444 92 l 430 28 q 387 0 425 0 l 10 0 q -23 9 -12 0 q -35 31 -35 18 q -29 59 -35 44 l 482 836 l 195 836 q 167 870 158 836 l 178 910 q 185 925 181 922 q 199 929 190 929 z "},"ż":{"ha":469,"x_min":-46,"x_max":497,"o":"m 339 778 q 299 797 316 778 q 282 841 282 815 q 301 884 282 866 q 345 903 319 903 l 357 903 q 396 884 378 903 q 415 839 415 864 q 395 797 415 815 q 349 778 376 778 l 339 778 m 81 82 l 266 82 l 287 164 q 327 192 293 190 l 354 195 q 378 188 371 196 q 382 164 386 180 l 346 28 q 308 0 339 0 l 4 0 q -34 14 -22 0 q -44 46 -46 28 q -28 81 -42 65 l 374 569 l 194 569 l 173 487 q 133 459 167 462 l 105 456 q 81 463 88 455 q 77 487 73 472 l 114 626 q 152 651 121 651 l 440 651 q 476 638 460 651 q 494 602 492 624 q 471 549 497 579 l 81 82 z "},"Ž":{"ha":578,"x_min":-31,"x_max":647,"o":"m 453 1085 l 534 1167 q 549 1179 543 1177 q 570 1181 555 1181 l 601 1181 q 617 1172 615 1181 q 608 1152 620 1162 l 478 1035 q 446 1017 456 1016 l 435 1018 q 410 1041 421 1020 l 341 1159 q 339 1174 336 1167 q 354 1181 343 1181 l 391 1181 q 410 1178 405 1181 q 418 1167 415 1176 l 453 1085 m 202 929 q 621 929 202 929 q 642 922 637 929 q 645 902 647 915 l 637 864 q 625 842 634 848 q 601 836 617 836 l 596 836 l 105 92 l 410 92 q 440 58 448 92 l 433 28 q 391 0 428 0 l 14 0 q -20 9 -8 0 q -31 31 -31 18 q -26 59 -31 44 l 485 836 l 199 836 q 170 870 162 836 l 182 910 q 189 925 185 922 q 202 929 193 929 z "},"ž":{"ha":501,"x_min":-14,"x_max":537,"o":"m 369 811 l 450 893 q 466 905 460 902 q 487 907 472 907 l 517 907 q 534 897 532 907 q 525 877 537 888 l 395 761 q 363 743 373 741 l 351 744 q 326 767 338 746 l 258 885 q 256 900 252 893 q 271 907 259 907 l 308 907 q 326 904 321 907 q 335 893 331 902 l 369 811 m 113 82 l 298 82 l 319 164 q 359 192 325 190 l 386 195 q 410 188 403 196 q 414 164 418 180 l 378 28 q 340 0 371 0 l 36 0 q -2 14 10 0 q -12 46 -14 28 q 4 81 -10 65 l 406 569 l 226 569 l 205 487 q 165 459 199 462 l 137 456 q 113 463 120 455 q 109 487 105 472 l 146 626 q 183 651 153 651 l 472 651 q 508 638 492 651 q 526 602 524 624 q 503 549 529 579 l 113 82 z "},"ƒ":{"ha":482,"x_min":-95,"x_max":700,"o":"m -86 -127 q -66 -101 -86 -127 q -24 -92 -51 -78 l 68 -149 q 94 -153 83 -158 q 121 -104 111 -145 l 296 562 l 223 562 q 206 568 210 562 q 207 592 202 575 l 215 627 q 244 651 220 651 l 319 651 l 335 711 q 475 954 382 888 q 524 978 498 971 q 563 984 551 986 q 581 980 575 981 l 659 959 q 679 912 700 949 l 663 881 q 618 875 654 863 l 535 903 q 433 711 470 850 l 418 651 l 510 651 q 529 645 525 651 q 530 623 534 639 l 520 590 q 486 562 512 562 l 394 562 l 235 -48 q 130 -220 199 -182 q 65 -245 78 -249 q 14 -225 33 -235 q -24 -203 -5 -214 q -76 -173 -58 -183 q -94 -149 -93 -163 q -86 -127 -95 -136 z "},"Ș":{"ha":563,"x_min":34,"x_max":572,"o":"m 196 -70 q 138 -229 196 -130 q 75 -284 107 -284 q 59 -264 59 -284 q 65 -232 59 -257 q 87 -102 87 -134 q 94 -64 87 -70 q 114 -55 100 -58 l 165 -44 q 196 -70 196 -38 m 420 942 q 537 874 503 942 q 572 678 572 806 q 550 640 572 646 l 505 626 q 485 629 495 622 q 475 652 475 636 q 420 848 475 822 q 358 844 394 861 q 286 761 322 827 q 246 612 249 696 q 257 560 245 578 q 306 530 270 542 l 359 512 q 458 449 435 486 q 480 340 480 415 q 439 178 480 264 q 330 35 399 91 q 186 -21 261 -21 q 34 225 34 -21 l 34 230 q 54 284 34 279 l 101 299 q 122 297 114 304 q 131 274 131 290 q 143 122 131 173 q 182 58 155 71 q 232 66 202 53 q 326 162 284 90 q 374 361 376 250 q 337 415 374 394 q 284 435 318 424 l 230 451 q 167 492 193 462 q 141 574 141 522 q 162 690 141 625 q 218 812 183 756 q 307 905 254 869 q 420 942 361 942 z "},"ș":{"ha":410,"x_min":-33,"x_max":417,"o":"m 119 -70 q 61 -229 119 -130 q -3 -284 30 -284 q -18 -264 -18 -284 q -12 -232 -18 -257 q 10 -102 10 -134 q 17 -64 10 -70 q 37 -55 23 -58 l 88 -44 q 119 -70 119 -38 m 252 659 q 272 659 252 659 q 352 626 315 659 q 413 544 389 593 q 415 522 417 535 q 404 503 414 509 l 366 481 q 344 474 355 473 q 329 483 333 475 q 316 511 325 490 q 302 541 307 532 q 281 563 296 551 q 250 576 267 574 q 190 534 219 570 q 162 432 162 497 q 175 393 162 404 q 223 374 188 381 l 259 367 q 338 237 338 350 q 287 83 338 171 q 221 14 262 42 q 132 -14 180 -14 l 123 -14 q 36 20 75 -14 q -18 89 -3 54 q -18 142 -33 125 l 10 165 q 39 177 24 178 q 59 154 54 175 q 90 103 64 133 q 138 72 116 74 q 205 117 177 78 q 234 207 234 157 q 224 272 234 257 q 181 294 214 286 l 153 300 q 82 341 102 312 q 61 422 61 371 q 88 530 61 474 q 160 622 115 585 q 252 659 205 659 z "},"Ț":{"ha":570,"x_min":71,"x_max":683,"o":"m 209 -45 q 151 -204 209 -105 q 87 -259 120 -259 q 71 -240 71 -259 q 78 -207 71 -233 q 100 -78 100 -110 q 106 -40 100 -46 q 126 -31 113 -34 l 178 -19 q 209 -45 209 -14 m 629 836 q 432 836 629 836 l 225 28 q 187 0 218 0 l 150 0 q 128 12 135 0 q 125 39 121 23 l 327 836 l 125 836 q 96 865 88 836 l 105 903 q 117 924 109 919 q 143 929 125 929 l 644 929 q 674 892 683 929 l 668 863 q 629 836 663 836 z "},"ț":{"ha":297,"x_min":-39,"x_max":358,"o":"m 98 -46 q 41 -205 98 -106 q -23 -260 9 -260 q -39 -241 -39 -260 q -33 -209 -39 -234 q -11 -79 -11 -111 q -4 -41 -11 -47 q 16 -32 3 -35 l 68 -21 q 98 -46 98 -15 m 318 849 q 267 651 318 849 l 335 651 q 354 645 349 651 q 354 623 358 639 l 345 590 q 312 562 337 562 l 245 562 l 109 28 q 71 0 101 0 l 46 0 q 17 12 26 0 q 13 41 9 24 l 145 562 l 95 562 q 78 568 82 562 q 78 592 74 575 l 88 627 q 116 651 95 651 l 168 651 l 219 850 q 258 879 227 879 l 290 879 q 318 849 325 879 z "},"ˆ":{"ha":468,"x_min":97,"x_max":381,"o":"m 264 859 l 183 777 q 168 766 174 768 q 148 763 162 763 l 116 763 q 100 773 102 763 q 109 793 97 782 l 239 909 q 271 927 260 929 l 282 926 q 308 903 296 924 l 376 785 q 378 770 381 776 q 363 763 374 763 l 326 763 q 307 766 312 763 q 299 777 302 768 l 264 859 z "},"ˇ":{"ha":460,"x_min":101,"x_max":385,"o":"m 218 818 l 299 900 q 314 912 308 910 q 335 914 321 914 l 366 914 q 383 905 380 914 q 373 885 385 895 l 244 768 q 212 750 222 749 l 200 751 q 175 775 187 753 l 106 892 q 104 907 101 900 q 119 914 108 914 l 157 914 q 175 912 170 914 q 183 900 180 909 l 218 818 z "},"˘":{"ha":584,"x_min":65,"x_max":520,"o":"m 410 872 q 415 908 415 889 q 439 926 415 927 q 445 925 445 925 l 500 925 q 519 909 520 925 q 449 787 511 838 q 291 735 386 735 q 130 781 195 735 q 65 898 65 827 q 65 906 65 903 q 65 912 65 909 q 66 917 66 915 q 83 924 71 924 l 133 924 q 140 924 135 924 q 150 923 146 924 q 159 920 153 922 q 167 891 168 915 q 294 797 159 797 q 410 872 389 797 z "},"˙":{"ha":299,"x_min":186,"x_max":318,"o":"m 242 773 q 203 792 220 773 q 186 836 186 810 q 204 879 186 861 q 249 898 222 898 l 260 898 q 300 879 282 898 q 318 834 318 859 q 299 792 318 810 q 252 773 280 773 l 242 773 z "},"˚":{"ha":782,"x_min":322,"x_max":666,"o":"m 465 741 q 361 796 399 745 q 333 916 322 847 q 393 1032 343 985 q 511 1078 442 1078 q 623 1029 580 1078 q 657 915 666 979 q 617 811 648 852 q 465 741 562 736 m 524 1008 q 508 1012 524 1008 q 461 993 491 1016 q 418 928 431 970 q 418 850 405 885 q 465 808 432 815 q 528 823 498 801 q 572 887 558 844 q 572 966 586 931 q 524 1008 557 1001 z "},"˛":{"ha":361,"x_min":12,"x_max":227,"o":"m 191 37 q 207 21 191 37 q 203 -8 227 0 q 123 -60 149 -28 q 98 -114 97 -93 q 172 -146 101 -170 q 196 -163 188 -140 l 202 -181 q 185 -210 209 -201 q 106 -225 144 -225 q 40 -203 68 -225 q 12 -146 13 -180 q 24 -86 12 -113 q 54 -40 36 -59 q 97 -5 73 -21 q 191 37 143 25 z "},"˜":{"ha":714,"x_min":157,"x_max":565,"o":"m 163 740 q 170 765 163 740 q 191 790 175 784 q 266 802 216 803 q 362 786 316 802 q 445 771 408 771 q 515 780 482 771 q 556 783 548 790 q 560 759 565 776 l 553 728 q 542 706 549 713 q 519 695 535 699 q 360 698 434 671 q 190 706 266 730 q 164 708 171 699 q 163 740 157 716 z "},"˝":{"ha":563,"x_min":68,"x_max":405,"o":"m 224 929 q 234 897 257 929 l 138 778 q 103 763 123 763 l 86 763 q 70 770 73 763 q 73 785 68 777 l 149 907 q 188 929 163 929 l 224 929 m 382 929 q 400 920 396 929 q 391 897 405 911 l 291 781 q 252 763 274 763 l 237 763 q 222 770 225 763 q 224 785 219 777 l 306 907 q 346 929 320 929 l 382 929 z "},"̃":{"ha":714,"x_min":188,"x_max":587,"o":"m 368 854 l 388 847 q 474 821 455 821 q 501 823 493 821 q 513 826 509 824 q 527 833 517 827 q 551 846 537 839 q 576 847 564 853 q 580 820 587 841 l 560 768 q 536 743 555 751 q 465 725 500 725 q 402 735 430 725 q 354 756 374 746 q 293 775 318 775 q 237 758 268 775 q 198 752 207 741 q 196 789 188 763 l 203 810 q 231 848 212 838 q 296 867 267 867 q 368 854 333 867 z "},"ऀ":{"ha":0,"x_min":-193,"x_max":214,"o":"m 187 912 q 145 934 187 912 q 128 975 126 943 q 126 1025 131 1006 q 108 1052 120 1043 q 63 1061 96 1061 q -98 925 -51 1061 q -115 908 -101 912 q -140 910 -128 904 l -182 934 q -190 939 -187 936 q -193 944 -193 941 q -192 948 -193 947 q -190 955 -192 950 q -183 979 -188 960 q -158 1030 -177 998 q -111 1089 -139 1062 q 34 1149 -52 1149 q 140 1115 92 1149 q 207 1023 188 1080 q 214 974 214 998 q 206 928 214 950 q 187 912 197 907 m 31 961 q 42 961 31 961 q 65 948 53 961 q 77 914 77 936 q 55 873 77 892 q 12 853 34 853 q -23 865 -11 853 q -34 900 -34 878 q -13 941 -34 921 q 31 961 9 961 z "},"ँ":{"ha":0,"x_min":-271,"x_max":137,"o":"m -244 1093 q -202 1071 -244 1093 q -185 1030 -182 1061 q -182 980 -187 998 q -164 952 -177 961 q -119 944 -152 944 q 41 1080 -5 944 q 59 1096 45 1093 q 83 1094 72 1100 l 126 1071 q 134 1066 131 1068 q 137 1060 137 1063 q 136 1056 137 1058 q 134 1049 135 1055 q 126 1025 132 1044 q 102 974 121 1006 q 55 915 83 942 q -91 855 -4 855 q -197 890 -148 855 q -263 981 -245 924 q -271 1031 -271 1007 q -262 1076 -271 1055 q -244 1093 -254 1098 m -88 1044 q -99 1044 -88 1044 q -121 1056 -110 1044 q -133 1091 -133 1069 q -112 1132 -133 1112 q -68 1152 -90 1152 q -34 1139 -46 1152 q -22 1105 -22 1127 q -44 1064 -22 1083 q -88 1044 -66 1044 z "},"ं":{"ha":0,"x_min":-132,"x_max":-18,"o":"m -83 865 q -117 884 -103 865 q -132 927 -132 902 q -116 969 -132 951 q -78 988 -101 988 l -68 988 q -34 969 -49 988 q -18 926 -18 950 q -34 884 -18 902 q -75 865 -51 865 l -83 865 z "},"ः":{"ha":0,"x_min":-212,"x_max":66,"o":"m -20 527 q -64 549 -46 527 q -83 600 -83 570 q -64 652 -83 631 q -13 673 -44 673 l 1 673 q 46 650 26 673 q 66 598 66 628 q 45 548 66 568 q -8 527 24 527 l -20 527 m -148 -24 q -193 -3 -174 -24 q -212 49 -212 18 q -192 100 -212 79 q -141 121 -172 121 l -127 121 q -83 99 -103 121 q -63 46 -63 76 q -83 -4 -63 16 q -136 -24 -104 -24 l -148 -24 z "},"ऄ":{"ha":788,"x_min":48,"x_max":920,"o":"m 903 800 q 918 746 903 800 q 917 732 920 736 q 902 727 914 727 l 815 727 l 634 1 q 607 -13 629 -23 l 560 11 q 546 49 540 21 l 614 318 l 432 318 q 432 301 432 316 q 425 255 432 287 q 402 188 418 224 q 362 125 385 153 q 301 78 338 96 q 221 59 264 59 q 146 80 179 59 q 93 136 113 101 q 48 290 50 207 q 73 311 48 314 l 103 305 q 121 295 116 304 q 126 282 125 286 q 135 236 128 276 q 163 173 142 196 q 218 150 183 150 q 284 180 253 150 q 343 322 343 237 q 327 389 343 369 q 269 418 311 409 l 245 418 q 227 421 232 418 q 218 433 222 423 l 202 491 q 205 503 200 495 q 214 510 209 510 l 255 510 q 377 564 318 510 q 436 676 436 617 q 425 726 436 706 q 391 745 415 745 q 329 709 367 745 q 291 712 302 695 l 260 751 q 276 798 244 776 q 384 836 328 836 q 482 782 440 836 q 525 659 525 728 q 453 490 525 562 q 384 440 421 458 q 410 405 399 425 l 635 405 l 716 727 l 654 727 q 624 746 629 727 l 608 800 q 624 820 602 820 l 708 820 l 656 918 q 653 922 654 920 q 645 938 652 924 q 630 962 637 952 q 608 986 622 972 q 529 1008 584 1008 l 509 1008 q 480 1028 475 1008 l 487 1065 q 505 1085 492 1085 l 554 1085 q 653 1058 614 1085 q 721 976 693 1031 l 802 820 l 874 820 q 903 800 897 820 z "},"अ":{"ha":781,"x_min":48,"x_max":912,"o":"m 218 433 q 202 491 218 433 q 205 503 200 495 q 214 510 209 510 l 255 510 q 377 564 318 510 q 436 676 436 617 q 425 726 436 706 q 391 745 415 745 q 329 709 367 745 q 291 712 302 695 l 260 751 q 276 798 244 776 q 384 836 328 836 q 482 782 440 836 q 525 659 525 728 q 453 490 525 562 q 384 440 421 458 q 410 405 399 425 l 625 405 l 706 727 l 644 727 q 614 746 619 727 l 597 800 q 614 820 592 820 l 863 820 q 892 800 887 820 l 908 746 q 891 727 912 727 l 805 727 l 623 1 q 596 -13 619 -23 l 550 11 q 536 49 530 21 l 604 318 l 432 318 q 432 301 432 316 q 425 255 432 287 q 402 188 418 224 q 362 125 385 153 q 301 78 338 96 q 221 59 264 59 q 146 80 179 59 q 93 136 113 101 q 48 290 50 207 q 73 311 48 314 l 103 305 q 121 295 116 304 q 126 282 125 286 q 135 236 128 276 q 163 173 142 196 q 218 150 183 150 q 284 180 253 150 q 343 322 343 237 q 327 389 343 369 q 269 418 311 409 l 245 418 q 227 421 232 418 q 218 433 222 423 z "},"आ":{"ha":1014,"x_min":45,"x_max":1148,"o":"m 215 433 q 199 491 215 433 q 202 503 197 495 q 212 510 207 510 l 252 510 q 374 564 315 510 q 433 676 433 617 q 423 726 433 706 q 389 745 413 745 q 327 709 364 745 q 289 712 299 695 l 258 751 q 273 798 242 776 q 382 836 326 836 q 480 782 438 836 q 522 659 522 728 q 450 490 522 562 q 381 440 418 458 q 408 405 396 425 l 623 405 l 624 404 l 704 727 l 642 727 q 613 746 618 727 l 596 800 q 613 820 590 820 l 1099 820 q 1128 800 1123 820 l 1144 746 q 1127 727 1148 727 l 1041 727 l 859 1 q 832 -13 855 -23 l 786 11 q 772 49 766 21 l 942 727 l 803 727 l 622 1 q 595 -13 617 -23 l 549 11 q 535 49 529 21 l 602 318 l 430 318 q 430 301 430 316 q 423 255 430 287 q 399 188 416 224 q 359 125 383 153 q 298 78 336 96 q 219 59 261 59 q 143 80 177 59 q 90 136 110 101 q 45 290 48 207 q 71 311 45 314 l 100 305 q 118 295 114 304 q 123 282 122 286 q 132 236 125 276 q 160 173 140 196 q 216 150 181 150 q 281 180 250 150 q 340 322 340 237 q 324 389 340 369 q 266 418 308 409 l 242 418 q 224 421 229 418 q 215 433 219 423 z "},"इ":{"ha":544,"x_min":14,"x_max":686,"o":"m 230 435 q 292 382 230 382 l 328 382 q 422 358 381 382 q 487 214 487 313 q 427 60 487 116 q 305 8 371 8 q 210 31 254 8 q 333 -76 263 -34 q 343 -92 343 -81 q 331 -113 344 -103 l 300 -126 q 276 -129 286 -132 q 251 -113 267 -126 q 144 11 193 -61 q 75 165 95 82 q 49 200 72 175 q 21 249 27 224 q 25 292 14 274 q 63 308 36 311 l 76 306 q 111 292 97 304 q 127 269 124 281 q 132 246 130 257 q 138 205 135 229 q 144 172 142 175 q 277 99 202 99 q 364 137 329 99 q 399 242 399 174 q 389 276 399 264 q 368 290 379 287 q 338 292 356 292 l 302 292 q 165 353 209 292 q 141 436 141 386 q 197 568 141 522 q 358 613 254 613 l 472 613 l 501 727 l 152 727 q 125 749 131 727 l 110 794 q 113 813 107 807 q 130 820 120 820 l 634 820 q 666 795 658 820 l 678 750 q 654 727 686 727 l 601 727 l 557 553 q 526 520 550 520 l 390 520 q 266 498 302 520 q 230 435 230 477 z "},"ई":{"ha":549,"x_min":14,"x_max":700,"o":"m 501 820 q 450 955 450 887 q 496 1067 450 1023 q 613 1111 542 1111 l 632 1111 q 671 1088 659 1111 l 694 1045 q 697 1027 700 1033 q 681 1022 694 1022 l 663 1022 q 580 989 615 1022 q 545 904 545 956 q 561 844 545 862 q 584 820 577 826 l 634 820 q 666 795 658 820 l 678 750 q 654 727 686 727 l 601 727 l 557 553 q 526 520 550 520 l 390 520 q 266 498 302 520 q 230 435 230 477 q 292 382 230 382 l 328 382 q 422 358 381 382 q 487 214 487 313 q 427 60 487 116 q 305 8 371 8 q 210 31 254 8 q 333 -76 263 -34 q 343 -92 343 -81 q 331 -113 344 -103 l 300 -126 q 276 -129 286 -132 q 251 -113 267 -126 q 144 11 193 -61 q 75 165 95 82 q 49 200 72 175 q 21 249 27 224 q 25 292 14 274 q 63 308 36 311 l 76 306 q 111 292 97 304 q 127 269 124 281 q 132 246 130 257 q 138 205 135 229 q 144 172 142 175 q 277 99 202 99 q 364 137 329 99 q 399 242 399 174 q 389 276 399 264 q 368 290 379 287 q 338 292 356 292 l 302 292 q 165 353 209 292 q 141 436 141 386 q 197 568 141 522 q 358 613 254 613 l 472 613 l 501 727 l 152 727 q 125 749 131 727 l 110 794 q 113 813 107 807 q 130 820 120 820 l 501 820 z "},"उ":{"ha":464,"x_min":28,"x_max":587,"o":"m 199 433 q 182 491 199 433 q 185 503 181 495 q 195 510 190 510 l 236 510 q 356 559 299 510 q 413 667 413 607 q 377 727 413 727 l 137 727 q 110 749 116 727 l 98 795 q 100 814 94 808 q 116 820 106 820 l 539 820 q 572 797 565 820 l 585 750 q 581 733 587 738 q 560 727 575 727 l 485 727 q 502 651 502 694 q 431 487 502 557 q 365 440 401 457 q 413 313 413 393 q 389 203 413 252 q 342 125 366 153 q 281 78 319 96 q 202 59 244 59 q 126 80 160 59 q 73 136 93 101 q 28 290 31 207 q 54 311 28 314 l 83 305 q 101 295 97 304 q 106 282 105 286 q 116 236 108 276 q 143 173 123 196 q 199 150 164 150 q 264 180 234 150 q 323 322 323 237 q 307 389 323 369 q 249 418 291 409 l 225 418 q 207 421 212 418 q 199 433 202 423 z "},"ऊ":{"ha":677,"x_min":28,"x_max":800,"o":"m 785 798 q 797 750 785 798 q 796 732 800 738 q 778 727 792 727 l 485 727 q 502 651 502 694 q 431 487 502 557 q 365 440 401 457 q 389 408 379 426 q 494 450 443 450 q 581 427 546 450 q 657 270 657 379 q 567 43 657 160 q 552 28 558 30 q 537 33 546 26 l 499 73 q 493 113 479 93 q 572 289 572 215 q 554 349 572 337 q 518 358 537 358 q 411 292 469 358 q 342 125 403 199 q 281 78 319 96 q 202 59 244 59 q 126 80 160 59 q 73 136 93 101 q 28 290 31 207 q 54 311 28 314 l 83 305 q 101 295 97 304 q 106 282 105 286 q 116 236 108 276 q 143 173 123 196 q 199 150 164 150 q 264 180 234 150 q 323 322 323 237 q 307 389 323 369 q 249 418 291 409 l 225 418 q 207 421 212 418 q 199 433 202 423 l 182 491 q 185 503 181 495 q 195 510 190 510 l 236 510 q 356 559 299 510 q 413 667 413 607 q 377 727 413 727 l 137 727 q 110 749 116 727 l 98 795 q 100 814 94 808 q 116 820 106 820 l 751 820 q 785 798 778 820 z "},"ऋ":{"ha":813,"x_min":-55,"x_max":938,"o":"m 756 141 q 782 122 756 141 q 794 108 792 114 q 786 84 796 101 q 738 44 776 67 q 659 18 700 21 q 586 33 617 16 q 537 89 555 50 q 518 167 518 127 q 562 279 518 234 q 654 333 606 324 l 644 368 l 466 368 l 374 1 q 348 -13 370 -23 l 301 11 q 287 49 281 21 l 354 314 l 138 116 q 100 116 117 95 l 73 153 q 80 192 58 173 l 318 410 q 291 489 303 472 q 236 522 266 522 q 189 513 206 522 q 155 486 172 505 q 132 462 138 467 q 92 468 108 448 l 58 503 q 63 542 39 521 q 230 613 124 613 q 371 541 319 613 q 399 496 387 519 l 457 727 l -11 727 q -38 749 -32 727 l -51 795 q -49 814 -55 808 q -32 820 -43 820 l 887 820 q 920 798 914 820 l 935 749 q 934 732 938 737 q 915 727 929 727 l 556 727 l 489 459 l 618 459 l 581 587 q 602 611 577 611 l 635 609 q 666 585 661 607 l 753 284 q 750 266 755 271 q 732 262 745 261 l 706 263 q 638 217 674 259 q 603 131 603 175 q 610 105 603 109 q 636 101 617 101 q 680 115 655 101 q 715 139 706 128 q 732 152 725 150 q 756 141 741 152 z "},"ऌ":{"ha":695,"x_min":-46,"x_max":804,"o":"m 783 797 q 797 750 783 797 q 772 727 804 727 l 589 727 l 559 607 q 632 553 601 596 q 662 433 662 510 q 579 203 662 308 q 497 114 542 156 q 444 63 452 72 q 424 39 435 54 q 404 -21 404 13 q 435 -55 404 -55 q 472 -39 453 -55 q 502 -6 491 -23 q 544 -4 515 16 l 565 -22 q 571 -60 584 -36 q 524 -110 559 -84 q 441 -136 490 -136 q 357 -96 391 -136 q 322 -6 322 -57 q 430 181 322 75 q 531 310 500 249 q 563 453 563 370 q 507 519 563 519 q 446 492 472 519 q 405 426 421 465 q 379 351 388 387 l 360 259 q 336 245 355 234 l 297 268 q 285 306 280 279 l 305 399 q 313 463 313 431 q 302 508 313 496 q 263 519 291 519 q 178 463 213 519 q 143 321 143 407 q 188 142 143 219 q 242 60 219 86 q 246 40 250 52 q 230 22 242 28 l 213 14 q 193 13 199 9 q 180 22 185 18 q 163 42 175 26 q 133 89 152 58 q 97 158 114 120 q 55 335 55 250 q 76 479 55 420 q 142 575 98 539 q 247 612 187 612 q 366 537 334 612 q 421 591 396 578 q 470 608 446 604 l 500 727 l -3 727 q -29 749 -23 727 l -43 795 q -40 814 -46 808 q -23 820 -34 820 l 750 820 q 783 797 776 820 z "},"ऍ":{"ha":570,"x_min":76,"x_max":727,"o":"m 218 1093 q 260 1071 218 1093 q 277 1031 279 1062 q 280 981 274 1000 q 297 952 286 961 q 343 944 309 944 q 503 1080 456 944 q 520 1096 507 1093 q 545 1094 534 1100 l 587 1071 q 596 1066 592 1068 q 598 1060 599 1063 q 597 1056 598 1058 q 595 1049 597 1055 q 588 1025 594 1044 q 563 974 582 1006 q 517 915 544 942 q 371 855 457 855 q 266 890 313 855 q 191 1038 191 943 q 199 1076 191 1055 q 218 1093 208 1098 m 711 797 q 723 750 711 797 q 723 732 727 738 q 705 727 719 727 l 599 727 l 532 459 q 489 342 515 390 q 446 277 463 293 q 403 272 416 247 l 378 313 q 382 363 364 338 l 389 374 q 445 505 426 428 l 500 727 l 311 727 l 229 395 q 221 309 213 335 q 255 251 233 272 l 317 197 q 392 33 401 124 q 378 -40 389 -3 q 341 -87 368 -77 q 322 -95 331 -91 q 306 -101 313 -98 q 290 -103 298 -104 q 277 -98 282 -102 q 287 -15 263 -86 q 302 68 302 30 q 264 142 302 106 l 224 181 q 148 265 156 247 q 133 301 140 282 q 126 336 126 319 q 138 430 127 382 l 213 727 l 131 727 q 96 750 103 727 l 82 797 q 101 820 76 820 l 678 820 q 711 797 706 820 z "},"ऎ":{"ha":570,"x_min":76,"x_max":727,"o":"m 535 738 l 437 918 q 378 995 405 982 q 311 1008 349 1008 l 291 1008 q 262 1028 257 1008 l 269 1065 q 287 1085 274 1085 l 336 1085 q 435 1058 396 1085 q 503 976 475 1031 l 599 790 l 535 738 m 711 797 q 723 750 711 797 q 723 732 727 738 q 705 727 719 727 l 599 727 l 532 459 q 489 342 515 390 q 446 277 463 293 q 403 272 416 247 l 378 313 q 382 363 364 338 l 389 374 q 445 505 426 428 l 500 727 l 311 727 l 229 395 q 221 309 213 335 q 255 251 233 272 l 317 197 q 392 33 401 124 q 378 -40 389 -3 q 341 -87 368 -77 q 322 -95 331 -91 q 306 -101 313 -98 q 290 -103 298 -104 q 277 -98 282 -102 q 287 -15 263 -86 q 302 68 302 30 q 264 142 302 106 l 224 181 q 148 265 156 247 q 133 301 140 282 q 126 336 126 319 q 138 430 127 382 l 213 727 l 131 727 q 96 750 103 727 l 82 797 q 101 820 76 820 l 678 820 q 711 797 706 820 z "},"ए":{"ha":570,"x_min":76,"x_max":727,"o":"m 711 797 q 723 750 711 797 q 723 732 727 738 q 705 727 719 727 l 599 727 l 532 459 q 489 342 515 390 q 446 277 463 293 q 403 272 416 247 l 378 313 q 382 363 364 338 l 389 374 q 445 505 426 428 l 500 727 l 311 727 l 229 395 q 221 309 213 335 q 255 251 233 272 l 317 197 q 392 33 401 124 q 378 -40 389 -3 q 341 -87 368 -77 q 322 -95 331 -91 q 306 -101 313 -98 q 290 -103 298 -104 q 277 -98 282 -102 q 287 -15 263 -86 q 302 68 302 30 q 264 142 302 106 l 224 181 q 148 265 156 247 q 133 301 140 282 q 126 336 126 319 q 138 430 127 382 l 213 727 l 131 727 q 96 750 103 727 l 82 797 q 101 820 76 820 l 678 820 q 711 797 706 820 z "},"ऐ":{"ha":570,"x_min":76,"x_max":727,"o":"m 711 797 q 723 750 711 797 q 723 732 727 738 q 705 727 719 727 l 599 727 l 532 459 q 489 342 515 390 q 446 277 463 293 q 403 272 416 247 l 378 313 q 382 363 364 338 l 389 374 q 445 505 426 428 l 500 727 l 311 727 l 229 395 q 221 309 213 335 q 255 251 233 272 l 317 197 q 392 33 401 124 q 378 -40 389 -3 q 341 -87 368 -77 q 322 -95 331 -91 q 306 -101 313 -98 q 290 -103 298 -104 q 277 -98 282 -102 q 287 -15 263 -86 q 302 68 302 30 q 264 142 302 106 l 224 181 q 148 265 156 247 q 133 301 140 282 q 126 336 126 319 q 138 430 127 382 l 213 727 l 131 727 q 96 750 103 727 l 82 797 q 101 820 76 820 l 678 820 q 711 797 706 820 m 530 739 l 432 919 q 373 996 400 983 q 306 1009 344 1009 l 286 1009 q 257 1029 252 1009 l 264 1066 q 282 1086 269 1086 l 331 1086 q 430 1059 391 1086 q 498 977 470 1032 l 594 792 l 530 739 z "},"ऑ":{"ha":986,"x_min":45,"x_max":1120,"o":"m 713 1093 q 755 1071 713 1093 q 772 1030 775 1061 q 775 980 770 998 q 792 952 780 961 q 837 944 804 944 q 998 1080 951 944 q 1015 1096 1001 1093 q 1040 1094 1029 1100 l 1083 1071 q 1091 1066 1088 1068 q 1094 1060 1094 1063 q 1093 1056 1093 1058 q 1091 1049 1092 1055 q 1083 1025 1089 1044 q 1059 974 1078 1006 q 1012 915 1039 942 q 865 855 951 855 q 760 890 808 855 q 694 981 712 924 q 686 1031 686 1007 q 695 1076 686 1055 q 713 1093 703 1098 m 215 433 l 199 491 q 202 503 197 495 q 212 510 207 510 l 252 510 q 374 564 315 510 q 433 676 433 617 q 423 726 433 706 q 389 745 413 745 q 327 709 364 745 q 289 712 299 695 l 258 751 q 273 798 242 776 q 382 836 326 836 q 480 782 438 836 q 522 659 522 728 q 450 490 522 562 q 381 440 418 458 q 408 405 396 425 l 643 405 l 724 727 l 662 727 q 632 746 637 727 l 616 800 q 632 820 610 820 l 1071 820 q 1100 800 1095 820 l 1116 746 q 1099 727 1120 727 l 1013 727 l 831 1 q 804 -13 827 -23 l 758 11 q 744 49 738 21 l 914 727 l 823 727 l 641 1 q 614 -13 637 -23 l 568 11 q 554 49 548 21 l 621 318 l 430 318 q 430 301 430 316 q 423 255 430 287 q 399 188 416 224 q 359 125 383 153 q 298 78 336 96 q 219 59 261 59 q 143 80 177 59 q 90 136 110 101 q 45 290 48 207 q 71 311 45 314 l 100 305 q 118 295 114 304 q 123 282 122 286 q 132 236 125 276 q 160 173 140 196 q 216 150 181 150 q 281 180 250 150 q 340 322 340 237 q 324 389 340 369 q 266 418 308 409 l 242 418 q 224 421 229 418 q 215 433 219 423 z "},"ऒ":{"ha":995,"x_min":45,"x_max":1128,"o":"m 1110 800 q 1125 746 1110 800 q 1108 727 1128 727 l 1021 727 l 840 1 q 813 -13 835 -23 l 767 11 q 753 49 746 21 l 922 727 l 824 727 l 642 1 q 616 -13 638 -23 l 569 11 q 555 49 549 21 l 622 318 l 430 318 q 430 301 430 316 q 423 255 430 287 q 399 188 416 224 q 359 125 383 153 q 298 78 336 96 q 219 59 261 59 q 143 80 177 59 q 90 136 110 101 q 45 290 48 207 q 71 311 45 314 l 100 305 q 118 295 114 304 q 123 282 122 286 q 132 236 125 276 q 160 173 140 196 q 216 150 181 150 q 281 180 250 150 q 340 322 340 237 q 324 389 340 369 q 266 418 308 409 l 242 418 q 224 421 229 418 q 215 433 219 423 l 199 491 q 202 503 197 495 q 212 510 207 510 l 252 510 q 374 564 315 510 q 433 676 433 617 q 423 726 433 706 q 389 745 413 745 q 327 709 364 745 q 289 712 299 695 l 258 751 q 273 798 242 776 q 382 836 326 836 q 480 782 438 836 q 522 659 522 728 q 450 490 522 562 q 381 440 418 458 q 408 405 396 425 l 644 405 l 725 727 l 663 727 q 634 746 639 727 l 617 800 q 634 820 611 820 l 910 820 l 857 918 q 854 922 855 920 q 846 938 853 924 q 831 962 838 952 q 809 986 823 972 q 730 1008 785 1008 l 711 1008 q 681 1028 676 1008 l 689 1065 q 706 1085 694 1085 l 755 1085 q 854 1058 815 1085 q 922 976 894 1031 l 1003 820 l 1080 820 q 1110 800 1104 820 z "},"ओ":{"ha":987,"x_min":45,"x_max":1143,"o":"m 1123 800 q 1139 746 1123 800 q 1122 727 1143 727 l 1036 727 l 854 1 q 827 -13 850 -23 l 781 11 q 767 49 761 21 l 937 727 l 824 727 l 642 1 q 616 -13 638 -23 l 569 11 q 555 49 549 21 l 622 318 l 430 318 q 430 301 430 316 q 423 255 430 287 q 399 188 416 224 q 359 125 383 153 q 298 78 336 96 q 219 59 261 59 q 143 80 177 59 q 90 136 110 101 q 45 290 48 207 q 71 311 45 314 l 100 305 q 118 295 114 304 q 123 282 122 286 q 132 236 125 276 q 160 173 140 196 q 216 150 181 150 q 281 180 250 150 q 340 322 340 237 q 324 389 340 369 q 266 418 308 409 l 242 418 q 224 421 229 418 q 215 433 219 423 l 199 491 q 202 503 197 495 q 212 510 207 510 l 252 510 q 374 564 315 510 q 433 676 433 617 q 423 726 433 706 q 389 745 413 745 q 327 709 364 745 q 289 712 299 695 l 258 751 q 273 798 242 776 q 382 836 326 836 q 480 782 438 836 q 522 659 522 728 q 450 490 522 562 q 381 440 418 458 q 408 405 396 425 l 644 405 l 725 727 l 663 727 q 634 746 639 727 l 617 800 q 634 820 611 820 l 1094 820 q 1123 800 1118 820 z "},"औ":{"ha":996,"x_min":46,"x_max":1143,"o":"m 912 820 q 765 854 854 854 l 745 854 q 716 875 718 854 l 713 914 q 715 931 712 927 q 730 935 718 935 l 805 935 q 872 927 838 935 q 798 1001 837 991 q 749 1006 778 1006 l 730 1006 q 700 1026 702 1006 l 696 1066 q 698 1082 695 1078 q 713 1086 701 1086 l 789 1086 q 958 979 903 1086 l 1041 820 l 1094 820 q 1123 800 1118 820 l 1139 746 q 1122 727 1143 727 l 1036 727 l 854 1 q 827 -13 850 -23 l 781 11 q 767 49 761 21 l 937 727 l 807 727 l 626 1 q 599 -13 621 -23 l 553 11 q 539 49 532 21 l 606 318 l 431 318 q 431 301 431 316 q 424 255 431 287 q 400 188 417 224 q 360 125 384 153 q 300 78 337 96 q 220 59 262 59 q 145 80 178 59 q 91 136 111 101 q 46 290 49 207 q 72 311 46 314 l 101 305 q 119 295 115 304 q 125 282 123 286 q 134 236 126 276 q 162 173 141 196 q 217 150 182 150 q 282 180 252 150 q 341 322 341 237 q 325 389 341 369 q 267 418 309 409 l 244 418 q 225 421 230 418 q 217 433 220 423 l 200 491 q 203 503 199 495 q 213 510 208 510 l 254 510 q 376 564 317 510 q 435 676 435 617 q 424 726 435 706 q 390 745 414 745 q 328 709 366 745 q 290 712 301 695 l 259 751 q 274 798 243 776 q 383 836 327 836 q 481 782 439 836 q 523 659 523 728 q 451 490 523 562 q 383 440 420 458 q 409 405 398 425 l 627 405 l 708 727 l 646 727 q 617 746 622 727 l 600 800 q 617 820 594 820 l 912 820 z "},"क":{"ha":782,"x_min":56,"x_max":914,"o":"m 294 613 q 408 559 361 613 l 450 727 l 132 727 q 105 749 111 727 l 92 795 q 95 814 88 808 q 111 820 101 820 l 865 820 q 899 797 892 820 l 912 750 q 908 733 914 738 q 887 727 902 727 l 548 727 l 515 598 q 590 613 549 613 q 669 589 632 613 q 725 518 706 565 q 745 420 745 471 q 725 318 745 369 q 675 225 706 267 q 568 105 618 148 q 549 92 554 93 q 534 98 544 90 l 493 137 q 487 159 485 145 q 500 183 488 173 q 604 307 549 223 q 658 446 658 390 q 642 511 658 501 q 604 520 627 520 q 518 477 560 520 q 462 383 477 434 l 367 4 q 340 -11 362 -23 l 295 13 q 281 50 273 21 l 308 157 q 221 131 264 131 q 136 159 178 131 q 75 235 95 187 q 56 328 56 284 q 124 529 56 446 q 294 613 191 613 m 382 455 q 305 520 368 520 q 193 457 243 520 q 143 309 143 393 q 160 243 143 264 q 212 222 176 222 q 287 253 249 222 q 351 336 326 284 l 353 335 l 382 455 z "},"ख":{"ha":847,"x_min":65,"x_max":979,"o":"m 618 613 q 733 561 686 613 l 773 727 l 464 727 q 430 750 436 727 l 416 798 q 417 815 413 810 q 435 820 421 820 l 931 820 q 963 797 956 820 l 976 750 q 976 732 979 738 q 958 727 972 727 l 873 727 l 691 1 q 664 -13 687 -23 l 619 11 q 606 49 597 22 l 632 157 q 545 131 589 131 q 451 165 502 131 q 400 236 419 188 q 381 328 381 284 q 448 529 381 446 q 618 613 515 613 m 676 335 l 676 334 l 706 455 q 629 520 691 520 q 518 457 567 520 q 468 321 468 393 q 493 234 468 249 q 542 222 511 222 q 611 253 573 222 q 676 335 650 284 m 495 798 q 508 749 495 798 q 508 732 512 737 q 490 727 503 727 l 403 727 l 351 520 q 312 436 339 472 q 197 366 259 366 q 183 366 190 366 l 267 81 q 254 45 272 63 l 220 14 q 195 18 202 -1 l 77 433 q 82 480 65 460 l 115 514 q 130 519 121 522 q 142 504 138 517 l 147 488 q 175 455 159 455 q 226 475 204 455 q 260 549 248 495 l 306 727 l 142 727 q 109 751 114 727 l 96 797 q 96 814 93 809 q 114 820 100 820 l 462 820 q 495 798 488 820 z "},"ग":{"ha":569,"x_min":50,"x_max":730,"o":"m 384 -13 q 340 11 384 -13 q 326 49 317 22 l 495 727 l 307 727 l 186 246 q 153 208 180 218 l 116 192 q 97 192 102 188 q 90 206 93 195 q 56 355 63 330 q 58 394 50 379 q 85 408 66 408 l 128 408 l 207 727 l 130 727 q 96 749 103 727 l 82 798 q 83 815 79 810 q 101 820 88 820 l 676 820 q 709 798 703 820 l 723 749 q 704 727 730 727 l 593 727 l 411 1 q 384 -13 407 -23 z "},"घ":{"ha":627,"x_min":29,"x_max":756,"o":"m 739 800 q 754 746 739 800 q 753 732 756 736 q 738 727 750 727 l 651 727 l 470 1 q 443 -13 465 -23 l 396 11 q 382 49 376 21 l 411 167 q 284 131 358 131 q 160 186 210 131 q 110 313 110 240 q 190 502 110 431 q 148 555 163 522 q 132 635 132 589 q 158 727 132 682 l 80 727 q 48 749 54 727 l 33 798 q 34 815 29 810 q 51 820 38 820 l 709 820 q 739 800 733 820 m 312 727 q 253 687 286 719 q 220 611 220 655 q 278 560 220 559 l 336 562 q 345 562 341 562 l 358 562 q 391 537 384 562 l 403 492 q 402 476 406 480 q 384 471 398 471 l 344 471 q 247 418 293 471 q 202 302 202 365 q 269 222 202 222 q 375 266 328 222 q 470 402 422 311 l 552 727 l 312 727 z "},"ङ":{"ha":623,"x_min":-18,"x_max":750,"o":"m 399 240 q 338 279 399 279 l 302 279 q 189 321 237 279 q 141 442 141 363 q 197 568 141 522 q 358 613 254 613 l 472 613 l 501 727 l 152 727 q 125 749 131 727 l 110 794 q 113 813 107 807 q 130 820 120 820 l 698 820 q 730 795 722 820 l 743 750 q 718 727 750 727 l 601 727 l 557 553 q 526 520 550 520 l 390 520 q 230 416 230 520 q 242 380 230 391 q 292 369 255 369 l 328 369 q 422 345 381 369 q 472 282 457 321 q 487 200 487 244 q 471 117 487 157 q 427 54 454 78 q 314 8 373 8 q 209 28 255 8 q 130 80 163 49 q 68 150 97 110 q -9 284 20 214 q -1 309 -18 302 l 16 317 q 60 313 46 329 q 83 272 66 302 q 111 224 100 242 q 142 179 121 206 q 180 138 162 153 q 277 99 225 99 q 379 161 343 99 q 399 240 399 194 m 487 358 q 453 376 468 358 q 438 419 438 394 q 454 462 438 443 q 492 480 470 480 l 503 480 q 537 461 522 480 q 553 418 553 442 q 537 376 553 394 q 497 358 520 358 l 487 358 z "},"च":{"ha":664,"x_min":-51,"x_max":798,"o":"m 647 797 q 659 750 647 797 q 656 733 662 738 q 635 727 649 727 l -8 727 q -34 749 -28 727 l -47 795 q -45 814 -51 808 q -28 820 -39 820 l 613 820 q 647 797 640 820 m 73 545 l 61 590 q 61 608 57 602 q 78 613 64 613 l 460 613 q 481 597 477 613 l 497 539 q 494 525 499 530 q 481 520 489 520 l 444 520 q 306 458 365 520 q 247 306 247 396 q 249 268 247 286 q 325 222 262 222 q 438 268 388 222 q 509 394 488 314 l 596 346 q 506 187 570 243 q 354 131 441 131 q 241 166 294 131 q 167 267 188 201 q 155 340 155 299 q 220 520 155 443 l 106 520 q 73 545 78 520 m 778 800 q 794 746 778 800 q 777 727 798 727 l 691 727 l 509 1 q 482 -13 505 -23 l 436 11 q 422 49 416 21 l 592 727 l 530 727 q 500 746 505 727 l 483 800 q 500 820 478 820 l 749 820 q 778 800 773 820 z "},"छ":{"ha":659,"x_min":3,"x_max":797,"o":"m 212 532 q 180 632 180 576 q 207 727 180 687 l 46 727 q 19 749 26 727 l 6 795 q 9 814 3 808 q 26 820 15 820 l 748 820 q 781 797 774 820 l 794 750 q 790 733 797 738 q 770 727 784 727 l 639 727 l 607 597 q 636 569 623 587 q 668 458 668 525 q 634 317 668 391 q 545 187 599 244 q 418 95 490 130 q 288 59 346 59 q 190 73 230 59 q 118 114 150 87 q 48 289 48 174 q 163 511 48 445 q 212 532 187 524 m 510 295 q 401 440 401 307 q 440 554 401 508 q 523 611 478 601 l 552 727 l 391 727 q 309 689 349 727 q 268 606 268 652 q 276 569 268 578 q 308 560 284 560 l 321 560 q 339 555 334 560 q 348 536 344 550 l 360 492 q 341 471 366 471 l 340 471 q 188 415 241 471 q 136 269 136 359 q 218 156 136 183 q 260 149 239 149 q 398 191 325 149 q 510 295 472 234 m 546 397 q 554 406 546 397 q 574 443 562 415 q 585 497 585 471 q 568 523 585 523 q 514 487 539 523 q 490 405 490 451 q 493 384 490 390 q 513 378 497 378 q 546 397 530 378 z "},"ज":{"ha":796,"x_min":-46,"x_max":927,"o":"m 460 515 q 503 382 503 460 q 477 258 503 311 q 425 176 451 205 q 263 109 364 109 q 141 165 193 109 q 72 323 89 221 l 49 462 q 52 479 47 475 q 70 483 56 484 l 99 481 q 131 456 128 479 l 148 355 q 191 239 160 279 q 262 200 222 200 q 332 222 302 200 q 378 279 362 245 q 411 401 411 348 q 391 484 411 455 q 338 515 371 512 l 335 515 q 306 537 312 515 l 294 585 q 297 602 291 596 q 313 608 303 608 l 718 608 q 750 585 743 608 l 763 540 q 760 522 767 528 q 739 515 753 515 l 460 515 m 814 797 l 827 750 q 823 733 830 738 q 803 727 817 727 l -3 727 q -29 749 -23 727 l -43 795 q -40 814 -46 808 q -23 820 -34 820 l 781 820 q 814 797 807 820 m 908 800 q 924 746 908 800 q 907 727 927 727 l 820 727 l 639 1 q 612 -13 634 -23 l 565 11 q 552 49 545 21 l 721 727 l 659 727 q 630 746 635 727 l 613 800 q 630 820 607 820 l 879 820 q 908 800 902 820 z "},"झ":{"ha":787,"x_min":14,"x_max":932,"o":"m 331 -113 q 300 -126 331 -113 q 276 -129 286 -132 q 251 -113 267 -126 q 144 11 193 -61 q 75 165 95 82 q 49 200 72 175 q 21 249 27 224 q 25 292 14 274 q 63 308 36 311 l 76 306 q 111 292 97 304 q 127 269 124 281 q 132 246 130 257 q 138 205 135 229 q 144 172 142 175 q 277 99 202 99 q 364 137 329 99 q 399 242 399 174 q 389 276 399 264 q 368 290 379 287 q 338 292 356 292 l 302 292 q 165 353 209 292 q 141 436 141 386 q 197 568 141 522 q 358 613 254 613 l 472 613 l 501 727 l 152 727 q 125 749 131 727 l 110 794 q 113 813 107 807 q 130 820 120 820 l 634 820 q 634 820 634 820 q 635 820 634 820 l 884 820 q 913 800 907 820 l 929 746 q 912 727 932 727 l 825 727 l 644 1 q 617 -13 639 -23 l 570 11 q 557 49 550 21 l 598 214 l 487 214 q 427 60 487 116 q 305 8 371 8 q 210 31 254 8 q 333 -76 263 -34 q 343 -92 343 -81 q 331 -113 344 -103 m 328 382 q 470 301 432 382 l 620 301 l 726 727 l 664 727 q 659 727 662 727 l 654 727 l 601 727 l 557 553 q 526 520 550 520 l 390 520 q 266 498 302 520 q 230 435 230 477 q 292 382 230 382 l 328 382 z "},"ञ":{"ha":651,"x_min":-10,"x_max":785,"o":"m 644 797 q 656 750 644 797 q 632 727 664 727 l 41 727 q 14 749 20 727 l 1 795 q 3 814 -3 808 q 20 820 9 820 l 611 820 q 644 797 637 820 m 27 286 l 66 286 q 82 281 78 286 q 89 259 87 276 q 139 220 92 220 q 232 285 187 220 q 278 435 278 349 q 241 520 278 520 q 191 492 215 520 q 142 488 157 471 l 106 532 q 121 569 96 547 q 141 588 133 581 q 172 604 149 594 q 227 614 195 614 q 287 596 259 614 q 333 547 316 577 q 366 411 366 486 q 366 406 366 409 l 524 406 q 557 384 550 406 l 572 340 q 552 317 579 317 l 355 317 q 304 212 340 258 q 155 131 242 131 q 24 216 65 131 q 27 286 -10 286 m 766 800 q 781 746 766 800 q 765 727 785 727 l 678 727 l 497 1 q 470 -13 492 -23 l 423 11 q 410 49 403 21 l 579 727 l 517 727 q 488 746 493 727 l 471 800 q 488 820 465 820 l 736 820 q 766 800 760 820 z "},"ट":{"ha":505,"x_min":38,"x_max":635,"o":"m 618 797 q 631 750 618 797 q 631 732 635 738 q 613 727 627 727 l 457 727 l 411 545 q 378 520 406 520 l 339 520 q 194 456 257 520 q 127 268 127 386 q 165 170 127 195 q 224 150 195 150 q 351 223 297 150 q 378 239 363 239 q 400 230 393 240 l 432 197 q 431 159 447 182 q 241 59 357 59 q 95 129 152 59 q 38 304 38 199 q 61 434 38 374 q 122 532 84 493 q 314 613 202 613 l 329 613 l 358 727 l 136 727 q 103 751 108 727 l 88 797 q 108 820 83 820 l 586 820 q 618 797 611 820 z "},"ठ":{"ha":527,"x_min":51,"x_max":662,"o":"m 410 584 q 488 396 488 530 q 391 128 488 231 q 232 59 326 59 q 111 108 165 59 q 51 262 51 162 q 83 440 51 363 q 174 565 114 518 q 309 613 234 613 q 318 613 314 613 l 347 727 l 146 727 q 119 749 125 727 l 105 795 q 125 820 100 820 l 613 820 q 645 797 640 820 l 658 750 q 655 732 662 738 q 634 727 649 727 l 445 727 l 410 584 m 307 187 q 328 205 307 187 q 374 285 348 224 q 399 405 399 347 q 381 492 399 463 q 318 520 364 520 q 231 484 272 520 q 165 387 190 448 q 140 263 140 325 q 223 150 140 150 q 307 187 266 150 z "},"ड":{"ha":539,"x_min":-18,"x_max":686,"o":"m 399 240 q 338 279 399 279 l 302 279 q 189 321 237 279 q 141 442 141 363 q 197 568 141 522 q 358 613 254 613 l 472 613 l 501 727 l 152 727 q 125 749 131 727 l 110 794 q 113 813 107 807 q 130 820 120 820 l 634 820 q 666 795 658 820 l 678 750 q 654 727 686 727 l 601 727 l 557 553 q 526 520 550 520 l 390 520 q 230 416 230 520 q 242 380 230 391 q 292 369 255 369 l 328 369 q 422 345 381 369 q 472 282 457 321 q 487 200 487 244 q 471 117 487 157 q 427 54 454 78 q 314 8 373 8 q 209 28 255 8 q 130 80 163 49 q 68 150 97 110 q -9 284 20 214 q -1 309 -18 302 l 16 317 q 60 313 46 329 q 83 272 66 302 q 111 224 100 242 q 142 179 121 206 q 180 138 162 153 q 277 99 225 99 q 379 161 343 99 q 399 240 399 194 z "},"ढ":{"ha":512,"x_min":49,"x_max":634,"o":"m 617 797 q 630 750 617 797 q 627 732 634 738 q 606 727 621 727 l 486 727 l 441 550 q 431 527 437 534 q 406 520 424 520 l 344 520 q 203 456 265 520 q 138 272 138 389 q 222 150 138 155 q 202 245 202 186 q 241 355 202 304 q 337 406 281 406 q 424 369 393 406 q 455 264 455 332 q 394 116 455 174 q 244 59 333 59 q 102 125 155 59 q 49 300 49 192 q 71 433 49 373 q 130 532 93 493 q 314 613 209 613 l 359 613 l 387 727 l 133 727 q 106 749 113 727 l 92 795 q 111 820 87 820 l 585 820 q 617 797 612 820 m 324 188 q 372 287 372 236 q 368 312 372 305 q 351 318 363 318 q 297 282 323 318 q 272 200 272 246 q 276 177 272 183 q 293 170 279 170 q 324 188 306 170 z "},"ण":{"ha":656,"x_min":-27,"x_max":800,"o":"m 781 800 q 797 746 781 800 q 780 727 800 727 l 693 727 l 512 1 q 485 -13 507 -23 l 438 11 q 425 49 418 21 l 594 727 l 532 727 q 503 746 508 727 l 486 800 q 503 820 480 820 l 751 820 q 781 800 775 820 m 645 797 q 659 750 645 797 q 640 727 666 727 l 493 727 l 425 454 q 240 264 376 264 q 139 294 187 264 q 72 379 90 324 q 72 503 54 435 l 128 727 l 24 727 q -10 751 -3 727 l -23 795 q -23 814 -27 809 q -5 820 -19 820 l 611 820 q 645 797 638 820 m 228 727 l 159 454 q 210 355 133 355 q 288 388 257 355 q 339 504 319 421 l 394 727 l 228 727 z "},"त":{"ha":512,"x_min":-59,"x_max":645,"o":"m 427 798 q 440 749 427 798 q 440 732 443 737 q 422 727 436 727 l -8 727 q -43 750 -36 727 l -55 798 q -55 815 -59 810 q -37 820 -51 820 l 394 820 q 427 798 420 820 m 162 60 l 133 56 q 116 60 121 56 q 104 78 110 64 q 38 336 38 210 q 103 538 38 462 q 268 613 168 613 l 398 613 q 431 590 424 613 l 444 542 q 444 525 448 530 q 426 520 440 520 l 296 520 q 178 461 230 520 q 126 299 126 401 q 141 190 126 239 q 185 86 157 142 q 182 70 188 78 q 162 60 175 62 m 626 800 q 641 746 626 800 q 624 727 645 727 l 538 727 l 356 1 q 329 -13 352 -23 l 283 11 q 269 49 263 21 l 439 727 l 377 727 q 348 746 353 727 l 331 800 q 348 820 325 820 l 596 820 q 626 800 620 820 z "},"थ":{"ha":621,"x_min":71,"x_max":756,"o":"m 402 143 q 291 110 346 110 q 130 199 189 110 q 83 430 71 287 q 109 455 85 451 q 205 476 172 465 q 274 517 239 487 q 199 566 227 525 q 170 668 170 607 q 216 782 170 729 q 338 836 262 836 q 372 827 357 836 q 446 691 446 781 q 398 528 446 602 q 268 410 349 453 q 167 372 218 383 q 175 281 160 322 q 271 202 204 202 q 359 234 317 202 q 470 416 446 300 q 471 419 470 418 l 548 727 l 537 727 q 508 746 513 727 l 491 800 q 508 820 485 820 l 705 820 q 735 800 730 820 l 750 746 q 733 727 756 727 l 647 727 l 555 362 q 544 314 553 339 l 465 1 q 438 -13 461 -23 l 393 11 q 378 49 372 21 l 402 143 m 323 618 q 333 629 323 618 q 353 667 343 639 q 363 717 363 695 q 359 745 363 739 q 345 750 354 750 q 286 712 316 750 q 257 624 257 673 q 261 602 257 609 q 284 596 266 596 q 323 618 303 596 z "},"द":{"ha":505,"x_min":38,"x_max":635,"o":"m 353 340 q 428 334 381 373 q 475 266 475 296 q 447 194 475 236 l 514 27 q 497 1 523 5 l 472 -1 q 436 17 445 -5 l 394 118 q 241 59 331 59 q 95 129 152 59 q 38 304 38 199 q 61 434 38 374 q 122 532 84 493 q 314 613 202 613 l 329 613 l 358 727 l 136 727 q 101 750 108 727 l 88 798 q 89 815 85 810 q 106 820 93 820 l 586 820 q 618 797 611 820 l 631 750 q 631 732 635 738 q 613 727 627 727 l 457 727 l 411 545 q 378 520 405 520 l 339 520 q 194 457 256 520 q 127 268 127 389 q 165 170 127 195 q 224 150 195 150 q 350 222 297 150 q 331 287 331 269 q 334 312 331 304 q 353 340 338 321 z "},"ध":{"ha":674,"x_min":154,"x_max":820,"o":"m 800 800 q 816 746 800 800 q 799 727 820 727 l 713 727 l 531 1 q 504 -13 527 -23 l 458 11 q 444 49 438 21 l 614 727 l 552 727 q 522 746 527 727 l 505 800 q 522 820 500 820 l 771 820 q 800 800 795 820 m 239 503 q 176 627 176 544 q 227 765 176 709 q 349 821 278 821 q 445 778 408 821 q 476 706 478 738 q 465 691 475 696 q 439 683 454 686 q 419 682 423 681 q 413 683 415 683 q 409 686 411 683 q 406 690 407 689 q 404 696 406 691 q 401 703 403 700 q 398 710 400 705 q 394 718 395 716 q 390 723 393 719 q 376 727 386 727 q 302 688 339 727 q 266 599 266 650 q 305 560 266 560 l 426 560 q 458 537 453 560 l 471 493 q 469 477 473 481 q 451 472 465 472 l 417 472 q 359 459 395 472 q 276 391 311 438 q 242 295 242 344 q 268 234 242 245 q 319 222 294 222 q 433 262 388 222 q 530 398 479 302 q 546 402 537 410 q 604 354 555 394 q 609 335 614 346 q 516 209 584 277 q 437 153 483 176 q 341 131 392 131 q 245 155 289 131 q 178 227 202 179 q 154 327 154 276 q 239 503 154 422 z "},"न":{"ha":545,"x_min":51,"x_max":702,"o":"m 685 800 q 700 746 685 800 q 699 732 702 736 q 684 727 696 727 l 597 727 l 416 1 q 389 -13 411 -23 l 343 11 q 328 49 322 21 l 421 418 l 215 418 l 197 346 q 164 309 190 319 q 122 292 130 294 q 110 292 115 289 q 101 323 106 296 q 70 463 97 350 q 71 495 64 482 q 95 509 78 509 l 443 509 l 498 727 l 101 727 q 68 749 75 727 l 55 798 q 55 815 51 810 q 73 820 59 820 l 656 820 q 685 800 679 820 z "},"ऩ":{"ha":607,"x_min":61,"x_max":730,"o":"m 138 -70 q 99 -51 116 -70 q 82 -7 82 -33 q 100 37 82 19 q 145 55 118 55 l 157 55 q 196 36 178 55 q 214 -8 214 17 q 195 -51 214 -33 q 149 -70 177 -70 l 138 -70 m 173 309 q 131 292 139 294 q 119 292 123 289 q 110 323 115 296 q 78 463 106 350 q 80 495 73 482 q 104 509 87 509 l 465 509 q 498 486 492 509 l 510 440 q 510 423 514 428 q 492 418 506 418 l 224 418 l 206 346 q 173 309 199 319 m 567 797 l 579 750 q 578 732 582 738 q 560 727 574 727 l 111 727 q 78 749 85 727 l 65 798 q 65 815 61 810 q 83 820 70 820 l 535 820 q 567 797 560 820 m 711 800 q 726 746 711 800 q 709 727 730 727 l 623 727 l 441 1 q 415 -13 437 -23 l 368 11 q 354 49 348 21 l 524 727 l 462 727 q 433 746 438 727 l 416 800 q 433 820 410 820 l 681 820 q 711 800 705 820 z "},"प":{"ha":550,"x_min":86,"x_max":676,"o":"m 361 267 q 250 212 307 212 q 193 221 210 212 q 164 239 177 230 q 141 260 152 249 q 120 292 130 272 q 104 334 110 311 q 109 455 91 384 l 177 727 l 132 727 q 105 749 111 727 l 91 795 q 110 820 86 820 l 624 820 q 657 797 652 820 l 669 750 q 646 727 676 727 l 575 727 l 394 1 q 384 -15 390 -13 q 367 -13 379 -18 l 321 11 q 306 49 299 22 l 361 267 m 475 727 l 275 727 l 204 443 q 198 345 188 387 q 242 304 207 304 q 343 372 290 304 q 450 627 401 445 l 475 727 z "}}}
